<svg width="20" height="21" viewBox="0 0 20 21" fill="none" xmlns="http://www.w3.org/2000/svg">
<g clip-path="url(#clip0_838_58604)">
<path d="M3.1999 5.66929H17.5994V4.06934H3.1999C2.31993 4.06934 1.59995 4.78931 1.59995 5.66929V14.469H0V16.8689H11.1996V14.469H3.1999V5.66929ZM18.3994 7.26923H13.5996C13.1596 7.26923 12.7996 7.62922 12.7996 8.06921V16.069C12.7996 16.5089 13.1596 16.8689 13.5996 16.8689H18.3994C18.8394 16.8689 19.1994 16.5089 19.1994 16.069V8.06921C19.1994 7.62922 18.8394 7.26923 18.3994 7.26923ZM17.5994 14.469H14.3995V8.86918H17.5994V14.469Z" fill="#787878"/>
</g>
<defs>
<clipPath id="clip0_838_58604">
<rect width="19.1994" height="19.1994" fill="white" transform="translate(0 0.869141)"/>
</clipPath>
</defs>
</svg>
