<svg width="20" height="21" viewBox="0 0 20 21" fill="none" xmlns="http://www.w3.org/2000/svg">
    <path fill-rule="evenodd" clip-rule="evenodd"
        d="M12.4488 5.03596C12.982 4.39629 13.2495 3.7052 13.2495 2.96503V2.96502C13.2495 2.86685 13.245 2.76789 13.2342 2.66895C12.8627 2.68842 12.4677 2.80218 12.0502 3.00787C11.6317 3.21668 11.2866 3.47844 11.0153 3.79325C10.4719 4.41502 10.1658 5.17546 10.1658 5.88602C10.1658 5.98423 10.1721 6.07768 10.1828 6.16648C11.0269 6.23582 11.8053 5.7964 12.4488 5.03596ZM15.2876 15.6332C15.5913 15.1956 15.8534 14.7196 16.0748 14.2025C16.1661 13.9833 16.252 13.7549 16.3333 13.5165C15.9583 13.3575 15.6211 13.1337 15.3193 12.8441C14.6532 12.2201 14.3142 11.4343 14.3043 10.4899C14.2934 9.27757 14.8384 8.3325 15.9402 7.65775C15.3247 6.77343 14.3992 6.28258 13.1673 6.18209C12.7127 6.14308 12.1578 6.24211 11.5002 6.48128C10.8049 6.73917 10.3948 6.86853 10.2738 6.86853C10.1119 6.86853 9.74269 6.7579 9.16769 6.53975C8.59106 6.32232 8.12705 6.21169 7.77321 6.21169C7.12653 6.22256 6.52605 6.39248 5.9703 6.72593C5.41455 7.05937 4.97051 7.51359 4.63673 8.08941C4.21203 8.80627 4 9.66172 4 10.6536C4 11.5194 4.15726 12.4138 4.47097 13.3374C4.7639 14.1925 5.1378 14.9425 5.5926 15.5893C6.01648 16.195 6.37032 16.6225 6.65321 16.8719C7.09644 17.2885 7.54048 17.4868 7.98596 17.4676C8.27889 17.4575 8.66201 17.3561 9.13759 17.1615C9.61245 16.9679 10.0564 16.8719 10.4703 16.8719C10.865 16.8719 11.2967 16.9679 11.7664 17.1615C12.2346 17.3561 12.6368 17.452 12.9703 17.452C13.4348 17.4411 13.8687 17.2483 14.2736 16.8719C14.5348 16.6426 14.8737 16.2297 15.2876 15.6332Z"
        fill="#A9A9A9" />
</svg>