<svg width="20" height="21" viewBox="0 0 20 21" fill="none" xmlns="http://www.w3.org/2000/svg">
<path fill-rule="evenodd" clip-rule="evenodd" d="M15.9104 5.90606L14.4112 8.51334C17.04 9.94607 18.7665 12.6106 19 15.5954H1C1.23649 12.6158 2.96121 9.95699 5.58555 8.52638L4.08962 5.9191C4.07681 5.90483 4.06685 5.88823 4.06029 5.87021C4.03858 5.72715 4.11379 5.58691 4.24497 5.52584C4.37615 5.46477 4.53189 5.49751 4.62738 5.60623L6.14612 8.23306C8.59803 7.13493 11.402 7.13493 13.8539 8.23306L15.3694 5.59319C15.3754 5.5756 15.3842 5.55909 15.3954 5.5443C15.5086 5.45 15.6709 5.44331 15.7914 5.52798C15.912 5.61265 15.9607 5.76764 15.9104 5.90606ZM5.85609 13.0241C5.4421 13.0241 5.1065 12.6885 5.1065 12.2745C5.1065 11.8605 5.4421 11.5249 5.85609 11.5249C6.27008 11.5249 6.60568 11.8605 6.60568 12.2745C6.60568 12.6885 6.27008 13.0241 5.85609 13.0241ZM14.1407 13.0241C13.7267 13.0241 13.3911 12.6885 13.3911 12.2745C13.3911 11.8605 13.7267 11.5249 14.1407 11.5249C14.5547 11.5249 14.8903 11.8605 14.8903 12.2745C14.8903 12.6885 14.5547 13.0241 14.1407 13.0241Z" fill="#3DDC84"/>
</svg>
