<svg width="14" height="15" viewBox="0 0 14 15" fill="none" xmlns="http://www.w3.org/2000/svg">
<path d="M7.875 2.21875C4.97583 2.21875 2.625 4.56958 2.625 7.46875H0.875L3.14417 9.73792L3.185 9.81958L5.54167 7.46875H3.79167C3.79167 5.21125 5.6175 3.38542 7.875 3.38542C10.1325 3.38542 11.9583 5.21125 11.9583 7.46875C11.9583 9.72625 10.1325 11.5521 7.875 11.5521C6.74917 11.5521 5.72833 11.0913 4.99333 10.3504L4.165 11.1788C5.11583 12.1296 6.4225 12.7188 7.875 12.7188C10.7742 12.7188 13.125 10.3679 13.125 7.46875C13.125 4.56958 10.7742 2.21875 7.875 2.21875ZM7.29167 5.13542V8.05208L9.77083 9.52208L10.22 8.77542L8.16667 7.55625V5.13542H7.29167Z" fill="#333333"/>
</svg>
