<svg width="20" height="20" viewBox="0 0 20 20" fill="none" xmlns="http://www.w3.org/2000/svg">
<path d="M17.8541 7.6146C17.6561 6.12819 17.1303 4.78134 16.2054 3.79473C15.2188 2.86978 13.8719 2.34402 12.3855 2.14604C10.9672 1.95781 10.0001 2.00324 10.0001 2.00324C10.0001 2.00324 9.03297 1.95781 7.61471 2.14604C6.1283 2.34402 4.78144 2.86978 3.79808 3.79473C2.86988 4.78134 2.34412 6.12819 2.14615 7.6146C1.95792 9.03286 2.00335 10 2.00335 10C2.00335 10 1.95792 10.9671 2.14615 12.3854C2.34412 13.8718 2.86988 15.2187 3.79483 16.2053C4.78144 17.1335 6.1283 17.6592 7.61146 17.8572C9.02972 18.0454 9.99686 18 9.99686 18C9.99686 18 10.964 18.0454 12.3823 17.8572C13.8687 17.6592 15.2155 17.1335 16.1989 16.2053C17.1271 15.2187 17.6528 13.8718 17.8476 12.3854C18.0358 10.9671 17.9904 10 17.9904 10C17.9904 10 18.0423 9.03286 17.8541 7.6146Z" fill="#7882FF"/>
<path d="M14.096 8.81541C14.7289 11.0872 13.3982 13.4434 11.1264 14.0763C8.85461 14.7091 6.49843 13.3785 5.86557 11.1067C5.23271 8.83488 6.56333 6.4787 8.83514 5.84584C11.1069 5.21298 13.4631 6.54361 14.096 8.81541Z" fill="white"/>
<path d="M14.0956 8.81541C14.3326 9.66896 14.2936 10.5323 14.034 11.3112C14.0145 11.3728 13.9918 11.4377 13.9658 11.4994" fill="white"/>
<path d="M14.0278 8.81541C14.1933 9.41257 14.2258 10.0162 14.1382 10.5907L14.0278 8.81541Z" fill="white"/>
<path d="M12.8365 12.9598C11.7558 12.9598 10.4414 12.684 9.1302 12.1874C7.81904 11.6909 6.65393 11.0223 5.84581 10.3051C4.53466 9.13996 4.61579 8.23773 4.78131 7.80284C4.94683 7.36795 5.48557 6.63773 7.23811 6.63773C8.31884 6.63773 9.63324 6.91359 10.9444 7.41014C12.2556 7.90669 13.4207 8.57525 14.2288 9.29249C15.5399 10.4576 15.4588 11.3598 15.2933 11.7947C15.131 12.2296 14.5923 12.9598 12.8365 12.9598ZM7.24135 7.99107C6.42999 7.99107 6.08273 8.19229 6.04703 8.28316C6.01133 8.37403 6.14115 8.757 6.74805 9.29574C7.42634 9.89614 8.47137 10.4933 9.61377 10.9249C10.7562 11.3598 11.9343 11.6097 12.8397 11.6097C13.6511 11.6097 13.9983 11.4085 14.034 11.3176C14.0697 11.2268 13.9399 10.8438 13.3363 10.3051C12.658 9.70466 11.613 9.1075 10.4706 8.67586C9.32168 8.24097 8.14683 7.99107 7.24135 7.99107Z" fill="#4D5CC1"/>
<path d="M6.04736 8.29614L14.0279 11.3274C14.294 10.542 14.3362 9.67221 14.096 8.81541C13.4632 6.54361 11.1102 5.21298 8.83519 5.84584C7.53053 6.20933 6.53742 7.14077 6.04736 8.29614Z" fill="white"/>
</svg>
