<svg width="16" height="16" viewBox="0 0 16 16" fill="none" xmlns="http://www.w3.org/2000/svg">
    <g clip-path="url(#clip0_170_2680)">
        <path
            d="M12.3636 0H3.63636C1.62806 0 0 1.62806 0 3.63636V12.3636C0 14.3719 1.62806 16 3.63636 16H12.3636C14.3719 16 16 14.3719 16 12.3636V3.63636C16 1.62806 14.3719 0 12.3636 0Z"
            fill="url(#paint0_linear_170_2680)" />
        <path
            d="M2.40872 4.07572C3.20217 2.53827 5.41526 1.75281 6.89381 2.42627C8.64508 3.22336 9.01381 5.36008 7.60145 6.78699C7.12508 7.26772 6.52581 7.63427 5.95927 8.01609C5.25599 8.49099 4.61381 9.00518 4.26908 9.81463C3.67854 11.1979 4.18181 12.8684 5.44508 13.6801C5.55563 13.7514 5.67054 13.8168 5.79563 13.8924C5.06981 13.9841 3.94399 13.5579 3.32436 12.9652C2.06763 11.7652 1.80581 9.85608 2.74836 8.3739C3.12217 7.78554 3.65017 7.29608 4.03199 6.71208C4.31708 6.27572 4.6109 5.77463 4.66981 5.27499C4.78036 4.34408 3.83345 3.69245 2.86036 3.93318C2.73236 3.96518 2.60799 4.01245 2.40872 4.07572ZM8.72872 7.15208C9.36872 6.79863 9.92726 6.49608 10.48 6.1819C10.7731 6.01536 10.8902 5.76518 10.9207 5.4139C10.9534 5.04663 11.1084 4.69099 11.2102 4.33027L11.3934 4.31572C11.5069 4.52445 11.6625 4.72154 11.7222 4.94481C11.8116 5.27645 11.9833 5.45827 12.304 5.59936C13.3309 6.04736 13.824 6.87936 13.912 7.9819C13.9411 8.3419 13.7869 8.54118 13.4509 8.5419C13.0538 8.54408 12.6087 8.58627 12.2676 8.4299C11.1404 7.91136 10.0698 7.26045 8.72872 7.15208ZM5.17817 9.67936C5.82763 8.64154 7.03272 8.30481 8.26326 8.76445C9.90181 9.37681 10.5142 10.723 10.1484 12.9884C10.4233 13.0554 10.72 13.0874 10.9804 13.2023C11.2334 13.3143 11.4487 13.5114 11.6807 13.6714L11.6189 13.8415L7.84654 13.9783C8.48145 13.5463 8.97963 13.0394 9.18836 12.2983C9.40072 11.5455 9.25599 10.8466 8.82836 10.2066C8.08654 9.09536 6.75272 8.89172 5.17817 9.67936ZM8.43272 11.6757C8.42763 12.6154 7.69963 13.3259 6.74399 13.3223C5.79636 13.3194 5.0749 12.5957 5.07708 11.6532C5.07657 11.4294 5.12066 11.2078 5.20678 11.0013C5.2929 10.7948 5.41931 10.6075 5.57864 10.4504C5.73797 10.2933 5.92701 10.1696 6.13472 10.0864C6.34243 10.0032 6.56464 9.96223 6.78836 9.9659C7.70617 9.98045 8.43708 10.7404 8.43199 11.6757H8.43272ZM6.77381 12.475C7.21599 12.4641 7.5949 12.0677 7.58326 11.6292C7.57163 11.1921 7.16581 10.8044 6.73236 10.8183C6.29454 10.8321 5.91272 11.2343 5.92508 11.6714C5.93672 12.1164 6.32726 12.4859 6.77381 12.475ZM7.14763 7.89027C8.36217 7.59208 9.52217 7.80299 10.5833 8.40372C11.4116 8.87281 12.2327 9.28154 13.1985 9.3579C13.5302 9.38408 13.8087 9.56736 13.9753 10.0328C13.2691 9.75645 12.7294 10.0677 12.1644 10.2714C11.4189 10.5404 11.0625 10.4066 10.5913 9.76008C9.74036 8.59499 8.62254 7.91863 7.14763 7.89027Z"
            fill="white" />
    </g>
    <defs>
        <linearGradient id="paint0_linear_170_2680" x1="800" y1="0" x2="800" y2="1600" gradientUnits="userSpaceOnUse">
            <stop stop-color="#FF9E00" />
            <stop offset="1" stop-color="#FF6B00" />
        </linearGradient>
        <clipPath id="clip0_170_2680">
            <rect width="16" height="16" fill="white" />
        </clipPath>
    </defs>
</svg>