<svg viewBox="0 0 33 50" xmlns="http://www.w3.org/2000/svg"><path d="M31.7,7.1 C32.2,7.6 32.2,8.3 31.7,8.8 L21,19.6 C20.5,20.1 19.8,20.8 19.3,21.3 L8.5,32.1 C8,32.6 7.3,32.6 6.8,32.1 L4.5,29.8 C4,29.3 3.3,28.6 2.8,28.1 L0.5,25.8 C2.77555756e-17,25.3 2.77555756e-17,24.6 0.5,24.1 L11.3,13.3 C11.8,12.8 12.5,12.1 13,11.6 L23.7,0.8 C24.2,0.3 24.9,0.3 25.4,0.8 L27.7,3.1 C28.2,3.6 28.9,4.3 29.4,4.8 L31.7,7.1 Z"/><path d="M25.4,49 C24.9,49.5 24.2,49.5 23.7,49 L12.9,38.2 C12.4,37.7 11.7,37 11.2,36.5 L0.4,25.7 C-0.1,25.2 -0.1,24.5 0.4,24 L2.7,21.7 C3.2,21.2 3.9,20.5 4.4,20 L6.7,17.7 C7.2,17.2 7.9,17.2 8.4,17.7 L19.2,28.5 C19.7,29 20.4,29.7 20.9,30.2 L31.7,41 C32.2,41.5 32.2,42.2 31.7,42.7 L29.4,45 C28.9,45.5 28.2,46.2 27.7,46.7 L25.4,49 Z"/></svg>