<svg width="16" height="20" xmlns="http://www.w3.org/2000/svg">
            <path d="M10.7765,16.2155 L11.7765,16.2155 L11.7765,7.622 L10.7765,7.622 L10.7765,16.2155 L10.7765,
            16.2155 Z M7.417,16.2155 L8.417,16.2155 L8.417,7.622 L7.417,7.622 L7.417,16.2155 L7.417,16.2155 Z M4.058,
            16.2155 L5.058,16.2155 L5.058,7.622 L4.058,7.622 L4.058,16.2155 L4.058,16.2155 Z M14.8335,3.6155 C14.8335,
            3.4715 14.7165,3.354 14.5725,3.354 L1.2615,3.354 C1.1175,3.354 1,3.4715 1,3.6155 L1,4.301 L14.8335,
            4.301 L14.8335,3.6155 L14.8335,3.6155 Z M6.193,2.354 L9.641,2.354 L9.641,1.261 C9.641,1.117 9.5235,1 9.3795,
            1 L6.4545,1 C6.3105,1 6.193,1.117 6.193,1.261 L6.193,2.354 L6.193,2.354 Z M15.8335,3.6155 L15.8335,5.301 L0,
            5.301 L0,3.6155 C0,2.92 0.566,2.354 1.2615,2.354 L5.193,2.354 L5.193,1.261 C5.193,0.5655 5.759,0 6.4545,
            0 L9.3795,0 C10.075,0 10.641,0.5655 10.641,1.261 L10.641,2.354 L11.1065,2.354 L14.5725,2.354 C15.268,
            2.354 15.8335,2.92 15.8335,3.6155 L15.8335,3.6155 L15.8335,3.6155 Z M14.136,6.0625 L15.136,6.0625 L15.136,
            18.0995 C15.136,19.1475 14.2835,20 13.2355,20 L2.5985,20 C1.551,20 0.6985,19.1475 0.6985,18.0995 L0.6985,
            6.0625 L1.6985,6.0625 L1.6985,18.0995 C1.6985,18.596 2.1025,19 2.5985,19 L13.2355,19 C13.732,19 14.136,
            18.596 14.136,18.0995 L14.136,6.0625 L14.136,6.0625 Z" fill="#E7A2A2" fill-rule="evenodd"/>
          </svg>