<svg width="36" height="31" xmlns="http://www.w3.org/2000/svg" xmlns:xlink="http://www.w3.org/1999/xlink">
  <defs>
    <path d="M3,0 L33,0 C34.6568542,-3.04359188e-16 36,1.34314575 36,3 L36,22.5483871 C36,24.2052413 34.6568542,25.5483871 33,25.5483871 L3,25.5483871 C1.34314575,25.5483871 2.02906125e-16,24.2052413 0,22.5483871 L0,3 C-2.02906125e-16,1.34314575 1.34314575,3.04359188e-16 3,0 Z" id="a"/>
    <mask id="b" x="0" y="0" width="36" height="25.548" fill="#fff">
      <use xlink:href="#a"/>
    </mask>
  </defs>
  <g fill="none" fill-rule="evenodd">
    <use stroke="#FFF" mask="url(#b)" stroke-width="2" stroke-dasharray="2,1,2,1" xlink:href="#a"/>
    <g fill="#FFF">
      <path d="M11.4040719,2.96875617 C10.6955031,2.96875617 10.1212438,2.4784321 10.1212438,1.87351543 C10.1212438,1.26896605 10.6955031,0.778274691 11.4040719,0.778274691 C12.1139321,0.778274691 12.6881914,1.26896605 12.6881914,1.87351543 C12.6881914,2.4784321 12.1139321,2.96875617 11.4040719,2.96875617 Z M11.21575,0.146546296 C10.2622809,0.146546296 9.48914815,0.920046296 9.48914815,1.87351543 C9.48914815,2.33041667 9.66691358,2.74581481 9.95670062,3.05470062 C10.0959012,3.20308333 8.59738272,3.92810185 7.3963642,4.78424074 C7.80111111,5.12104012 8.15333642,5.44314815 8.42035185,5.73624074 C9.61035185,4.3754537 10.8198179,3.60048457 11.21575,3.60048457 C12.1699537,3.60048457 12.9430864,2.82735185 12.9430864,1.87351543 C12.9430864,0.920046296 12.1699537,0.146546296 11.21575,0.146546296 Z M0.108348765,10.0048148 C0.108348765,10.0048148 1.26823148,10.9457963 2.51773148,10.1469537 C3.46201852,9.54313889 5.64625617,8.13937963 7.17636111,6.89391975 C6.87702469,6.67942593 6.39220988,6.33197531 5.81337037,5.91767901 C3.60379012,7.50104012 0.108348765,10.0048148 0.108348765,10.0048148 Z" transform="translate(19 19)"/>
      <path d="M11.4040719,8.70205864 C12.1139321,8.70205864 12.6881914,9.19164815 12.6881914,9.79729938 C12.6881914,10.4018488 12.1139321,10.8925401 11.4040719,10.8925401 C10.6955031,10.8925401 10.1212438,10.4018488 10.1212438,9.79729938 C10.1212438,9.19164815 10.6955031,8.70205864 11.4040719,8.70205864 Z M0.108348765,1.66563272 C0.108348765,1.66563272 6.17147222,6.00913272 7.37616358,6.87188272 C8.58085494,7.73389815 10.0966358,8.46662963 9.95670062,8.6161142 C9.66691358,8.92463272 9.48914815,9.34076543 9.48914815,9.79729938 C9.48914815,10.7507685 10.2622809,11.5239012 11.21575,11.5239012 C12.1699537,11.5239012 12.9430864,10.7507685 12.9430864,9.79729938 C12.9430864,8.84346296 12.1699537,8.07033025 11.21575,8.07033025 C10.8168796,8.07033025 9.59235494,7.28434259 8.39427469,5.90519136 C7.19582716,4.52604012 3.76833333,2.32307099 2.51773148,1.52386111 C1.26823148,0.725018519 0.108348765,1.66563272 0.108348765,1.66563272 Z" transform="translate(19 19)"/>
      <path d="M7.81672455,5.48877663 L9.01810661,7.47874034 C9.4404452,7.11541148 9.57456623,6.54409932 9.28206823,6.06137264 C8.99099704,5.57607827 8.38459873,5.36809496 7.81672455,5.48877663 Z M6.94921826,7.20142927 C7.24314309,7.6854398 7.84668776,7.89213925 8.41598876,7.77274143 L7.2146067,5.78149387 C6.79369493,6.14610658 6.65814707,6.71613489 6.94921826,7.20142927 Z" transform="translate(19 19)"/>
    </g>
  </g>
</svg>