<svg width="16" height="16" xmlns="http://www.w3.org/2000/svg" fill="#7b68ee">
  <g transform="scale(0.4)">
    <path d="M40,20 C40,23.6284722 39.1059028,26.9748264 37.3177083,30.0390625 C35.5295139,33.1032986 33.1032986,35.5295139 30.0390625,37.3177083 C26.9748264,39.1059028 23.6284722,40 20,40 C16.3715278,40 13.0251736,39.1059028 9.9609375,37.3177083 C6.89670139,35.5295139 4.47048611,33.1032986 2.68229167,30.0390625 C0.894097222,26.9748264 0,23.6284722 0,20 C0,16.3715278 0.894097222,13.0251736 2.68229167,9.9609375 C4.47048611,6.89670139 6.89670139,4.47048611 9.9609375,2.68229167 C13.0251736,0.894097222 16.3715278,0 20,0 C23.6284722,0 26.9748264,0.894097222 30.0390625,2.68229167 C33.1032986,4.47048611 35.5295139,6.89670139 37.3177083,9.9609375 C39.1059028,13.0251736 40,16.3715278 40,20 Z"/><path d="M29.921875,25.8854167 C29.921875,25.4340278 29.7569444,25.0434028 29.4270833,24.7135417 L24.7135417,20 L29.4270833,15.2864583 C29.7569444,14.9565972 29.921875,14.5659722 29.921875,14.1145833 C29.921875,13.6458333 29.7569444,13.2465278 29.4270833,12.9166667 L27.0833333,10.5729167 C26.7534722,10.2430556 26.3541667,10.078125 25.8854167,10.078125 C25.4340278,10.078125 25.0434028,10.2430556 24.7135417,10.5729167 L20,15.2864583 L15.2864583,10.5729167 C14.9565972,10.2430556 14.5659722,10.078125 14.1145833,10.078125 C13.6458333,10.078125 13.2465278,10.2430556 12.9166667,10.5729167 L10.5729167,12.9166667 C10.2430556,13.2465278 10.078125,13.6458333 10.078125,14.1145833 C10.078125,14.5659722 10.2430556,14.9565972 10.5729167,15.2864583 L15.2864583,20 L10.5729167,24.7135417 C10.2430556,25.0434028 10.078125,25.4340278 10.078125,25.8854167 C10.078125,26.3541667 10.2430556,26.7534722 10.5729167,27.0833333 L12.9166667,29.4270833 C13.2465278,29.7569444 13.6458333,29.921875 14.1145833,29.921875 C14.5659722,29.921875 14.9565972,29.7569444 15.2864583,29.4270833 L20,24.7135417 L24.7135417,29.4270833 C25.0434028,29.7569444 25.4340278,29.921875 25.8854167,29.921875 C26.3541667,29.921875 26.7534722,29.7569444 27.0833333,29.4270833 L29.4270833,27.0833333 C29.7569444,26.7534722 29.921875,26.3541667 29.921875,25.8854167 Z" fill="#FFF" fill-rule="nonzero" />
  </g>
</svg>
