<?xml version="1.0" encoding="UTF-8"?>
<svg width="14px" height="11px" viewBox="0 0 14 11" version="1.1" xmlns="http://www.w3.org/2000/svg" xmlns:xlink="http://www.w3.org/1999/xlink">
    <g fill-rule="nonzero">
        <path d="M14,2.09548387 C14,2.33634409 13.9156989,2.54107527 13.7470968,2.70967742 L7.20774194,9.24903226 L5.97935484,10.4774194 C5.81075269,10.6460215 5.60602151,10.7303226 5.36516129,10.7303226 C5.12430108,10.7303226 4.91956989,10.6460215 4.75096774,10.4774194 L3.52258065,9.24903226 L0.252903226,5.97935484 C0.0843010753,5.81075269 0,5.60602151 0,5.36516129 C0,5.12430108 0.0843010753,4.91956989 0.252903226,4.75096774 L1.48129032,3.52258065 C1.64989247,3.35397849 1.85462366,3.26967742 2.09548387,3.26967742 C2.33634409,3.26967742 2.54107527,3.35397849 2.70967742,3.52258065 L5.36516129,6.18709677 L11.2903226,0.252903226 C11.4589247,0.0843010753 11.6636559,0 11.9045161,0 C12.1453763,0 12.3501075,0.0843010753 12.5187097,0.252903226 L13.7470968,1.48129032 C13.9156989,1.64989247 14,1.85462366 14,2.09548387 Z"></path>
    </g>
</svg>
