<svg xmlns="http://www.w3.org/2000/svg" xmlns:xlink="http://www.w3.org/1999/xlink" width="272" height="173" viewBox="0 0 272 173">
    <defs>
        <path id="b" d="M225.244 61.842c0-15.822-12.825-28.648-28.646-28.648-15.822 0-28.647 12.826-28.647 28.648 0 15.82 12.825 28.646 28.647 28.646 15.821 0 28.646-12.825 28.646-28.646"/>
        <filter id="a" width="145.4%" height="145.4%" x="-22.7%" y="-19.2%" filterUnits="objectBoundingBox">
            <feOffset dy="2" in="SourceAlpha" result="shadowOffsetOuter1"/>
            <feGaussianBlur in="shadowOffsetOuter1" result="shadowBlurOuter1" stdDeviation="4"/>
            <feColorMatrix in="shadowBlurOuter1" values="0 0 0 0 0 0 0 0 0 0 0 0 0 0 0 0 0 0 0.187613225 0"/>
        </filter>
    </defs>
    <g fill="none" fill-rule="evenodd">
        <path fill="#EEE" d="M8.181 169.626c-4.07-.552-5.57-1.203-3.621-1.969 13.545-5.328 74.522-5.166 104.1-5.16 37.204.007 75.914-.134 109.423 1.164 14.023.543 45.794 1.042 51.242 2.845 14.293 4.736-87.074 6.039-103.48 6.103-27.351.108-134.421.17-157.664-2.983"/>
        <path fill="#EEE" d="M254.557 166.94H12.074c-6.637 0-12.036-5.4-12.036-12.036v-.723c0-.39.316-.705.706-.705h265.158c.393 0 .708.315.708.705v.707c0 6.645-5.408 12.051-12.053 12.051"/>
        <path fill="#EEE" d="M243.585 158.609V24.773c0-2.423-1.906-4.405-4.235-4.405H27.477c-2.33 0-4.235 1.982-4.235 4.405V158.61h220.343"/>
        <path fill="#F8F8F8" d="M247.21 153.378V24.718a4.247 4.247 0 0 0-4.235-4.234H31.102a4.247 4.247 0 0 0-4.235 4.235v128.66H247.21"/>
        <path fill="#5D7183" d="M247.951 151.187v-11.17-27.301-34.114-31.61-19.79c0-1.212.174-2.69-.171-3.867-.737-2.51-3.076-3.293-5.398-3.293H36.033c-3.527 0-8.924-.72-9.831 3.96-.22 1.137-.077 2.418-.077 3.565V151.36c0 .644 1.483.345 1.483-.173V140.2v-26.774-33.761-31.461V27.8c0-1.05-.041-2.11 0-3.16.077-1.953 1.304-3.61 3.352-3.715.321-.016.648 0 .97 0H237.59c3.28 0 8.634-.898 8.877 3.895.196 3.882 0 7.825 0 11.71v114.83c0 .644 1.483.345 1.483-.173"/>
        <path fill="#F8F8F8" d="M258.272 166.94H15.788c-6.636 0-12.036-5.4-12.036-12.036v-.723c0-.39.316-.705.706-.705H269.62c.39 0 .705.315.705.705v.707c0 6.645-5.405 12.051-12.052 12.051"/>
        <path fill="#5D7183" d="M258.543 166.456H17.627c-1.603 0-3.153.013-4.728-.439-4.374-1.253-7.65-5.127-8.287-9.611-.078-.551-.019-1.152-.114-1.688.005.033.022-1.124-.31-.76.006-.006.031.006.038 0 .036-.032.194.012.241 0 .933-.229 2.22 0 3.173 0H266.485c.683 0 2.09-.28 2.727 0 1.216.534-.132 4.58-.5 5.47-1.743 4.252-5.788 6.952-10.358 7.03-.796.014-1.177.98-.164.962 4.044-.07 7.92-1.93 10.366-5.182a12.482 12.482 0 0 0 2.335-5.35c.196-1.124.736-3.532-.833-3.867-.625-.132-1.352-.029-1.983-.029H8.067c-1.032 0-2.07-.032-3.102 0-.805.025-1.646.206-1.91 1.084-.466 1.558.2 3.886.753 5.327a12.476 12.476 0 0 0 3.532 4.996c3.965 3.395 8.658 3.024 13.436 3.024H258c.64 0 1.54-.967.542-.967"/>
        <path fill="#5D7183" d="M106.194 155.725c1.8 2.933 5.079 2.475 8.018 2.475h44.312c3.234 0 7.252.679 9.275-2.502.511-.804-.86-1.11-1.253-.49-1.566 2.46-4.92 1.836-7.454 1.836h-42.673c-2.84 0-7.145.83-8.876-1.991-.375-.611-1.774-.021-1.35.672"/>
        <path fill="#FFF" d="M37.113 147.283h199.85V30.708H37.113z"/>
        <path fill="#5D7183" d="M237.03 30.173H45.322c-2.59 0-5.228-.147-7.815 0-.108.006-.218 0-.326 0-.285 0-.816.249-.816.593V142.58c0 1.46-.214 3.105 0 4.554.01.066 0 .14 0 .207 0 .382.359.477.682.477h191.709c2.59 0 5.229.147 7.815 0 .108-.006.218 0 .326 0 .286 0 .817-.249.817-.593v-11.6-27.853-33.693-29.01-9.658c0-1.46.214-3.105 0-4.554-.01-.066 0-.14 0-.207 0-.766-1.499-.54-1.499.116V145.542c0 .422-.153 1.192 0 1.592.02.052 0 .149 0 .207l.817-.594H40.18c-.822 0-1.868-.177-2.675 0-.099.022-.223 0-.326 0l.682.478v-11.6-27.853-33.693-29.01-9.658-2.961c0-.424.153-1.193 0-1.593-.02-.052 0-.149 0-.207l-.816.594h191.709c2.59 0 5.229.147 7.815 0 .108-.006.218 0 .326 0 .84 0 1.14-1.071.135-1.071"/>
        <path fill="#D6D1E8" d="M71.596 135.615l.134-83.02 131.237.212-.133 83.019-131.238-.211"/>
        <path fill="#E5E1F6" d="M80.479 126.869c-3.11-2.912-2.478-8.293-2.305-12.108.227-5.003.294-10.01.346-15.018.086-8.19.066-16.382-.058-24.572-.055-3.64-.026-7.302-.311-10.933-.079-.999-2.096-11.216-2.104-11.21 2.488-1.631 9.745-.41 13.021-.404l13.76.022 36.342.058 60.827.098 2.97.005-.015 9.852-.06 36.422-.028 17.686c-.007 4.637-.767 9.604-.587 14.109-12.274 1.95-25.437.55-37.767-.12-13.113-.713-26.239-1.21-39.37-1.328-12.787-.116-26.228 1.595-38.903-.302-1.803-.27-3.625-.727-5.131-1.754a5.179 5.179 0 0 1-.627-.503"/>
        <path fill="#D6D1E8" d="M71.73 52.596l131.237.211-63.184 53.671a4.72 4.72 0 0 1-5.938.14l-56.69-43.72-5.425-10.302"/>
        <path fill="#E5E1F6" d="M71.73 52.596l131.237.211-65.274 51.291L71.73 52.596"/>
        <path fill="#5D7183" d="M70.99 52.812l-.045 28.105-.072 44.725-.017 10.17c0 .16.352.156.435.156l13.047.021 31.333.05 37.912.062 32.78.053c5.29.008 10.655.283 15.94.025.074-.003.15 0 .225 0 .292 0 1.044-.157 1.046-.551l.045-18.307a280556788.704 280556788.704 0 0 1 .088-35.781c0-.338-1.479-.099-1.48.396l-.045 18.308-.072 29.036-.017 6.745 1.046-.552-13.047-.022-31.334-.05-37.912-.061-32.78-.053-10.84-.017-3.323-.006c-.519 0-1.272-.143-1.776-.002-.064.018-.157 0-.225 0l.434.154.046-28.105.072-44.725.016-10.17c0-.338-1.48-.1-1.48.396"/>
        <path fill="#5D7183" d="M174.377 74.657l-32.707 25.7-4.576 3.596 1.284-.153-22.296-17.409-35.527-27.738-8.14-6.356-.965.747 33.25.053 53.016.086 12.19.02c.595 0 1.558-.895.561-.897l-33.25-.054-53.016-.085-12.19-.02c-.202 0-1.433.382-.966.747l22.296 17.408a3583550.273 3583550.273 0 0 0 43.667 34.094c.384.3.938.12 1.285-.153l32.706-25.7 4.577-3.596c.673-.53-.794-.609-1.2-.29"/>
        <g transform="translate(-.039)">
            <use fill="#000" filter="url(#a)" xlink:href="#b"/>
            <use fill="#1297F9" xlink:href="#b"/>
        </g>
        <path fill="#5D7183" d="M27.102 11.807c-2.456-3.581-4.68-7.27-6.285-11.317-.2-.503-1.662-.06-1.48.397 1.63 4.11 3.895 7.857 6.39 11.493.272.398 1.708-.088 1.375-.573M21.153 17.813l-11.22-7.43c-.393-.26-1.763.321-1.181.706l11.22 7.43c.393.26 1.762-.32 1.18-.706M16.843 25.125a141.457 141.457 0 0 0-12.809-1.752c-.6-.054-1.56.797-.563.887 4.185.38 8.343.949 12.476 1.708.503.092 1.745-.687.896-.843"/>
        <path fill="#FFF" d="M202.468 50.274v7.303l2.553 1.608c.067.02.213.02.28 0l10.985-7.406c0-.877-.818-1.505-1.28-1.505h-12.538z"/>
        <path fill="#FFF" d="M202.468 60.302l2.33 1.6c.328.241.723 0 .723 0-.394.241 10.766-7.171 10.766-7.171v13.423c0 1.461-.935 2.074-1.987 2.074h-11.833v-9.926h.001zM190.408 56.935c-.793 0-1.426.373-1.893 1.118-.467.745-.701 1.73-.701 2.957 0 1.246.234 2.23.701 2.954.467.725 1.08 1.085 1.837 1.085.781 0 1.401-.352 1.858-1.056.457-.704.687-1.681.687-2.93 0-1.303-.221-2.317-.666-3.042-.444-.724-1.051-1.086-1.823-1.086z"/>
        <path fill="#FFF" fill-rule="nonzero" d="M179.358 46.565v28.573l21.736 4.557V42.358l-21.736 4.207zm14.545 19.117c-.919 1.208-2.116 1.814-3.594 1.814-1.44 0-2.613-.586-3.52-1.757-.906-1.172-1.36-2.698-1.36-4.58 0-1.987.46-3.594 1.38-4.821.922-1.227 2.142-1.841 3.661-1.841 1.435 0 2.596.586 3.48 1.76.887 1.176 1.33 2.724 1.33 4.647.001 1.976-.459 3.569-1.377 4.778z"/>
    </g>
</svg>
