<svg width="8" height="23" viewBox="0 0 8 23" xmlns="http://www.w3.org/2000/svg"><path d="M1.5,18 C0.67157,18 0,17.3284271 0,16.5 C0,15.6715729 0.67157,15 1.5,15 C2.32843,15 3,15.6715729 3,16.5 C3,17.3284271 2.32843,18 1.5,18 Z M1.5,8 C0.67157,8 0,7.3284271 0,6.5 C0,5.6715729 0.67157,5 1.5,5 C2.32843,5 3,5.6715729 3,6.5 C3,7.3284271 2.32843,8 1.5,8 Z M1.5,3 C0.67157,3 0,2.3284271 0,1.5 C0,0.67157288 0.67157,0 1.5,0 C2.32843,0 3,0.67157288 3,1.5 C3,2.3284271 2.32843,3 1.5,3 Z M1.5,23 C0.67157,23 0,22.3284271 0,21.5 C0,20.6715729 0.67157,20 1.5,20 C2.32843,20 3,20.6715729 3,21.5 C3,22.3284271 2.32843,23 1.5,23 Z M1.5,13 C0.67157,13 0,12.3284271 0,11.5 C0,10.6715729 0.67157,10 1.5,10 C2.32843,10 3,10.6715729 3,11.5 C3,12.3284271 2.32843,13 1.5,13 Z M6.5,18 C5.67157,18 5,17.3284271 5,16.5 C5,15.6715729 5.67157,15 6.5,15 C7.32843,15 8,15.6715729 8,16.5 C8,17.3284271 7.32843,18 6.5,18 Z M6.5,8 C5.67157,8 5,7.3284271 5,6.5 C5,5.6715729 5.67157,5 6.5,5 C7.32843,5 8,5.6715729 8,6.5 C8,7.3284271 7.32843,8 6.5,8 Z M6.5,3 C5.67157,3 5,2.3284271 5,1.5 C5,0.67157288 5.67157,0 6.5,0 C7.32843,0 8,0.67157288 8,1.5 C8,2.3284271 7.32843,3 6.5,3 Z M6.5,23 C5.67157,23 5,22.3284271 5,21.5 C5,20.6715729 5.67157,20 6.5,20 C7.32843,20 8,20.6715729 8,21.5 C8,22.3284271 7.32843,23 6.5,23 Z M6.5,13 C5.67157,13 5,12.3284271 5,11.5 C5,10.6715729 5.67157,10 6.5,10 C7.32843,10 8,10.6715729 8,11.5 C8,12.3284271 7.32843,13 6.5,13 Z" fill-rule="nonzero" fill="#DBDBDB"/></svg>