<svg width="8" height="28" viewBox="0 0 8 28" xmlns="http://www.w3.org/2000/svg"><path d="M1106.5,26 C1105.67157,26 1105,25.3284271 1105,24.5 C1105,23.6715729 1105.67157,23 1106.5,23 C1107.32843,23 1108,23.6715729 1108,24.5 C1108,25.3284271 1107.32843,26 1106.5,26 Z M1106.5,16 C1105.67157,16 1105,15.3284271 1105,14.5 C1105,13.6715729 1105.67157,13 1106.5,13 C1107.32843,13 1108,13.6715729 1108,14.5 C1108,15.3284271 1107.32843,16 1106.5,16 Z M1106.5,11 C1105.67157,11 1105,10.3284271 1105,9.5 C1105,8.67157288 1105.67157,8 1106.5,8 C1107.32843,8 1108,8.67157288 1108,9.5 C1108,10.3284271 1107.32843,11 1106.5,11 Z M1106.5,31 C1105.67157,31 1105,30.3284271 1105,29.5 C1105,28.6715729 1105.67157,28 1106.5,28 C1107.32843,28 1108,28.6715729 1108,29.5 C1108,30.3284271 1107.32843,31 1106.5,31 Z M1106.5,21 C1105.67157,21 1105,20.3284271 1105,19.5 C1105,18.6715729 1105.67157,18 1106.5,18 C1107.32843,18 1108,18.6715729 1108,19.5 C1108,20.3284271 1107.32843,21 1106.5,21 Z M1106.5,36 C1105.67157,36 1105,35.3284271 1105,34.5 C1105,33.6715729 1105.67157,33 1106.5,33 C1107.32843,33 1108,33.6715729 1108,34.5 C1108,35.3284271 1107.32843,36 1106.5,36 Z M1111.5,26 C1110.67157,26 1110,25.3284271 1110,24.5 C1110,23.6715729 1110.67157,23 1111.5,23 C1112.32843,23 1113,23.6715729 1113,24.5 C1113,25.3284271 1112.32843,26 1111.5,26 Z M1111.5,16 C1110.67157,16 1110,15.3284271 1110,14.5 C1110,13.6715729 1110.67157,13 1111.5,13 C1112.32843,13 1113,13.6715729 1113,14.5 C1113,15.3284271 1112.32843,16 1111.5,16 Z M1111.5,11 C1110.67157,11 1110,10.3284271 1110,9.5 C1110,8.67157288 1110.67157,8 1111.5,8 C1112.32843,8 1113,8.67157288 1113,9.5 C1113,10.3284271 1112.32843,11 1111.5,11 Z M1111.5,31 C1110.67157,31 1110,30.3284271 1110,29.5 C1110,28.6715729 1110.67157,28 1111.5,28 C1112.32843,28 1113,28.6715729 1113,29.5 C1113,30.3284271 1112.32843,31 1111.5,31 Z M1111.5,21 C1110.67157,21 1110,20.3284271 1110,19.5 C1110,18.6715729 1110.67157,18 1111.5,18 C1112.32843,18 1113,18.6715729 1113,19.5 C1113,20.3284271 1112.32843,21 1111.5,21 Z M1111.5,36 C1110.67157,36 1110,35.3284271 1110,34.5 C1110,33.6715729 1110.67157,33 1111.5,33 C1112.32843,33 1113,33.6715729 1113,34.5 C1113,35.3284271 1112.32843,36 1111.5,36 Z" transform="translate(-1105 -8)" fill="#DBDBDB" fill-rule="evenodd"/></svg>