<svg width="8" height="18" viewBox="0 0 8 18" xmlns="http://www.w3.org/2000/svg"><path d="M6.5,18 C5.67157288,18 5,17.3284271 5,16.5 C5,15.6715729 5.67157288,15 6.5,15 C7.32842712,15 8,15.6715729 8,16.5 C8,17.3284271 7.32842712,18 6.5,18 Z M6.5,8 C5.67157288,8 5,7.32842712 5,6.5 C5,5.67157288 5.67157288,5 6.5,5 C7.32842712,5 8,5.67157288 8,6.5 C8,7.32842712 7.32842712,8 6.5,8 Z M6.5,23 C5.67157288,23 5,22.3284271 5,21.5 C5,20.6715729 5.67157288,20 6.5,20 C7.32842712,20 8,20.6715729 8,21.5 C8,22.3284271 7.32842712,23 6.5,23 Z M6.5,13 C5.67157288,13 5,12.3284271 5,11.5 C5,10.6715729 5.67157288,10 6.5,10 C7.32842712,10 8,10.6715729 8,11.5 C8,12.3284271 7.32842712,13 6.5,13 Z M11.5,18 C10.6715729,18 10,17.3284271 10,16.5 C10,15.6715729 10.6715729,15 11.5,15 C12.3284271,15 13,15.6715729 13,16.5 C13,17.3284271 12.3284271,18 11.5,18 Z M11.5,8 C10.6715729,8 10,7.32842712 10,6.5 C10,5.67157288 10.6715729,5 11.5,5 C12.3284271,5 13,5.67157288 13,6.5 C13,7.32842712 12.3284271,8 11.5,8 Z M11.5,23 C10.6715729,23 10,22.3284271 10,21.5 C10,20.6715729 10.6715729,20 11.5,20 C12.3284271,20 13,20.6715729 13,21.5 C13,22.3284271 12.3284271,23 11.5,23 Z M11.5,13 C10.6715729,13 10,12.3284271 10,11.5 C10,10.6715729 10.6715729,10 11.5,10 C12.3284271,10 13,10.6715729 13,11.5 C13,12.3284271 12.3284271,13 11.5,13 Z" transform="translate(-5 -5)" fill="#DBDBDB" fill-rule="evenodd"/></svg>