<svg xmlns="http://www.w3.org/2000/svg" width="166" height="177" viewBox="0 0 166 177">
    <g fill="none" fill-rule="evenodd">
        <text fill="#FFF" font-family="GothamPro-Medium, Gotham Pro" font-size="12" font-weight="400" letter-spacing="-.436">
            <tspan x="78.871" y="88">Create</tspan>
        </text>
        <path fill="#D63E53" d="M75.5 24.727c-.93 0-1.774.52-2.26 1.39L46.002 74.84a3.107 3.107 0 0 0-.013 3.019c.49.899 1.32 1.413 2.273 1.413h54.475c.956 0 1.784-.514 2.274-1.413a3.107 3.107 0 0 0-.013-3.02L77.76 26.118c-.486-.87-1.33-1.39-2.26-1.39zM102.737 82H48.262c-1.883 0-3.577-1.04-4.528-2.785a5.917 5.917 0 0 1 .026-5.754l27.237-48.724C71.955 23.023 73.637 22 75.5 22s3.546 1.023 4.502 2.737L107.24 73.46a5.92 5.92 0 0 1 .027 5.754c-.952 1.745-2.646 2.785-4.53 2.785z"/>
        <path fill="#D63E53" d="M75 71c-1.654 0-3-1.346-3-3s1.346-3 3-3 3 1.346 3 3-1.346 3-3 3M75 63c-.553 0-1-.616-1-1.375v-19.25c0-.759.447-1.375 1-1.375.553 0 1 .616 1 1.375v19.25c0 .759-.447 1.375-1 1.375"/>
        <path fill="#E3E3E3" d="M3.633 171.992c-2.404.379-3.286.827-2.127 1.357 8.06 3.688 44.142 3.618 61.645 3.634 22.016.02 44.924.143 64.742-.73 8.293-.365 27.09-.688 30.3-1.929 8.418-3.26-51.578-4.228-61.287-4.284-16.186-.093-79.545-.209-93.273 1.952"/>
        <path fill="#F9E280" d="M145.819 116.56c.412 2.135.647 4.3.758 6.47.24 4.701-.207 9.407-.328 14.106-.098 3.817-.067 7.64.046 11.457.058 1.993.138 3.986.206 5.979.064 1.835.384 3.854.197 5.679.132 3.808.533 7.725.12 11.525-.077.712-.142 1.912-.811 2.373-2.191 1.512-5.603-9.463-5.986-10.543-.48-1.352-.92-2.719-1.419-4.064a225.042 225.042 0 0 1-4.591-13.701c-.692-2.308-1.267-4.652-1.964-6.957-.496-1.642-1.51-5.331-3.581-5.485-1.95-.145-2.883 2.78-3.624 4.162-3.939 7.348-6.849 15.083-9.747 22.873-1.106 2.971-2.205 5.948-3.437 8.87-.816 1.938-1.637 4.075-2.968 5.736-.326.407-.832 1.031-1.432.953-3.32-.43.893-19.155 1.663-32.626.554-9.698 1.32-18.689 2.15-28.367l34.748 1.56"/>
        <path fill="#FFF0A9" d="M112.902 143.416c.317-5.617.699-11.002 1.118-16.416 4.954 2.127 10.317 3.051 15.626 3.506 3.436.294 6.835.204 10.278.232 2.67.022 5.26-.065 7.813-.824-.1 2.35-.238 4.7-.303 7.048-.107 3.858-.093 7.72-.005 11.576.046 2.013.11 4.026.166 6.04.051 1.853.338 3.892.158 5.736.106 3.846.46 7.802.063 11.644-.135 1.301-.942 2.245-1.693.701-.864-1.776-1.46-3.953-2.088-5.84a475.078 475.078 0 0 0-2.575-7.54c-2.637-7.513-4.697-15.212-7.544-22.665-.787-2.058-1.988-3.264-4.152-3.418-.644-.045-1.264.32-1.697.813-.432.494-.708 1.109-.978 1.713-2.3 5.145-4.644 10.247-6.647 15.525l-3.682 9.704c-1.057 2.786-1.842 6.07-3.287 8.636-.477.847-.955 1.696-1.317 2.601-.349.874-.598 1.815-1.176 2.55-.116.146-.28.295-.46.255-.917-.205-.353-5.062-.302-5.768.185-2.568.485-5.127.79-7.683.718-6.029 1.552-12.057 1.894-18.126"/>
        <path fill="#6A79A8" d="M145.6 116.999c1.419 7.59.47 15.23.381 22.881-.044 3.79.04 7.579.173 11.366.063 1.802.112 3.603.249 5.401.142 1.867.06 3.721.152 5.59.167 3.374.561 6.956-.069 10.305-.048.254-.288 1.233-.36 1.254-.18.052-.963-.756-1.19-1.045-.875-1.118-1.352-2.519-1.846-3.83-2.591-6.87-5.07-13.83-7.256-20.838-1.026-3.291-1.855-6.637-2.871-9.93-.51-1.652-1.262-4.355-3.227-4.836-1.97-.481-3.337 1.212-4.115 2.735-1.441 2.821-2.875 5.652-4.176 8.54-3.053 6.777-5.48 13.794-8.152 20.72-.61 1.584-1.25 3.154-1.908 4.719-.278.662-.555 1.324-.862 1.973-.41.867-.944 2.266-1.71 2.866-.467.368-.538.562-.967-.007-.1-.133-.168-.363-.224-.525-.24-.694-.28-1.442-.308-2.168-.077-2.065.165-4.142.371-6.194.832-8.247 2.146-16.41 2.648-24.692.529-8.707 1.267-17.4 2.013-26.091.032-.38-1.19-.136-1.217.19-.666 7.759-1.327 15.518-1.837 23.288-.261 3.976-.48 7.947-.919 11.91-.451 4.063-1.038 8.11-1.524 12.169-.422 3.521-1.207 7.469-.664 11.008.115.75.367 1.874 1.2 2.164.798.278 1.71-.238 2.26-.769 1.13-1.09 1.833-2.725 2.453-4.128a129.46 129.46 0 0 0 2.07-5.024c1.44-3.674 2.767-7.39 4.174-11.076 2.518-6.59 5.284-13.11 8.635-19.333.275-.51.699-1.4 1.276-1.65.755-.328 1.422.336 1.836.859.78.985 1.197 2.247 1.569 3.428 1.111 3.527 1.987 7.122 3.097 10.651a359.56 359.56 0 0 0 7.328 20.955c.596 1.553 1.777 4.956 4.033 4.502 2.084-.418 1.814-3.711 1.864-5.26.066-2.072-.043-4.144-.149-6.213-.107-2.11-.028-4.217-.184-6.323-.32-4.329-.406-8.693-.443-13.033-.077-8.922 1.276-17.994-.377-26.835-.058-.313-1.293-.03-1.227.326"/>
        <path fill="#F2F2F2" d="M153.421 124.768c-11.67 1.458-23.576 3.084-35.291 1.395-2.093-.302-4.212-.73-6.198-1.565-1.47-.618-3.12-1.572-3.703-3.355-.21-.643-2.398.132-2.219.682 1.094 3.346 5.322 4.288 7.991 4.854 3.33.705 6.706.91 10.08 1.112 7.072.422 14.206-.462 21.241-1.215 2.386-.256 4.771-.523 7.153-.82.355-.045 1.321-.171 1.482-.62.155-.435-.128-.519-.536-.468"/>
        <path fill="#F2F2F2" d="M106.847 122.21a58.6 58.6 0 0 0-1.347-.616c-.772-.338-1.806-.614-2.29-1.41-.521-.857.074-2.545.221-3.462.226-1.408.472-2.813.738-4.213 1.425-7.51 3.153-15.028 5.275-22.35.44-1.521.904-3.035 1.395-4.538 2.577-7.883 9.407-29.154 23.277-22.27 10.395 5.16 15.419 25.798 17.831 45.941.806 6.733 1.727 10.681 2.053 16.707.017.322-16.745 1.758-17.951 1.845-6.884.499-13.808-.191-20.446-2.197-2.333-.705-4.617-1.584-6.86-2.565-.637-.278-1.266-.577-1.896-.872"/>
        <path fill="#FFF" d="M108.694 121.305c-.43-.207-.86-.412-1.294-.607-.741-.334-1.734-.605-2.199-1.39-.5-.846.073-2.513.215-3.418a151.1 151.1 0 0 1 .713-4.16c1.375-7.415 3.042-14.837 5.087-22.069.425-1.501.871-2.996 1.345-4.48.91-2.853 1.85-5.697 2.991-8.469.641-1.556 1.829-3.221 2.248-4.825.449-1.72.119-3.18 1.223-4.792.808-1.18 1.98-2.093 3.286-2.687 4.357-1.98 7.987-3.6 12.637-1.231 9.984 5.084 14.794 25.454 17.095 45.338.77 6.646 1.65 10.543 1.959 16.49.016.318-16.091 1.75-17.25 1.838-6.616.498-13.268-.178-19.645-2.152-2.241-.694-4.435-1.56-6.59-2.527-.611-.274-1.216-.568-1.821-.86"/>
        <path fill="#6A79A8" d="M106.022 122.612c-1.64-.76-4.018-1.167-3.747-3.413.23-1.903.698-3.831 1.052-5.717a258.655 258.655 0 0 1 2.78-12.972c1.56-6.457 3.362-12.87 5.625-19.12 1.646-4.547 3.597-9.13 6.525-13.022 2.867-3.81 6.927-6.843 11.928-5.488 5.454 1.477 9.005 6.281 11.446 11.063 3.252 6.37 5.11 13.43 6.549 20.395 1.626 7.873 2.477 15.864 3.647 23.81.246 1.677.478 3.357.651 5.044.09.865-.01 1.986.238 2.809l.013.211c-.056.205.023.289.238.252.41 1.169.225-.203.174.053a1.022 1.022 0 0 0-.216.038c-1.594.428-3.43.42-5.066.584-4.006.4-8.017.77-12.03 1.087-8.125.641-16.343-.383-24.002-3.178-1.974-.72-3.902-1.549-5.805-2.436-.303-.14-1.418.323-.982.526 8.367 3.899 17.27 6.01 26.535 5.854 4.486-.076 8.985-.618 13.448-1.04 2.21-.209 4.422-.413 6.625-.69.541-.068 1.125-.106 1.65-.264 1.001-.301.66-.978.588-1.944-.292-3.942-.958-7.838-1.513-11.749-.621-4.382-1.106-8.777-1.836-13.144-1.326-7.936-3.074-15.956-6.23-23.394-2.2-5.185-5.347-10.833-10.617-13.444-4.435-2.198-9.344-1.628-13.166 1.492-3.914 3.194-6.389 7.963-8.335 12.519-2.35 5.5-4.103 11.29-5.67 17.05a242.488 242.488 0 0 0-3.364 14.083 218.805 218.805 0 0 0-1.375 7.083c-.163.93-.307 1.862-.51 2.785-.158.728-.424 1.671-.154 2.407.505 1.373 2.738 1.846 3.924 2.396.303.14 1.417-.324.982-.526"/>
        <path fill="#FFF0A9" d="M138.546 66.262c-.969-.912-2.018.794-2.482 1.466-.918 1.326-2.175 2.282-3.43 3.28-1.831 1.455-3.838 2.69-6.003 3.576-.943.386-2.447 1.158-3.48 1.098-.54-.031-1.413-.876-1.845-1.323a10.284 10.284 0 0 1-2.275-3.62 9.487 9.487 0 0 1-.508-2.141c-.073-.634.143-1.545-.061-2.123-.595-1.677-1.447 1.622-1.46 2.127-.035 1.447.271 2.9.751 4.258a18.642 18.642 0 0 0 2.433 4.653c-.027-.037 2.314-1.026 2.469-1.089.098-.04.785 2.364.849 2.576 5.459-1.056 11.922-3.994 14.774-9.099.502-.9 1.19-2.77.268-3.639"/>
        <path fill="#FFF" d="M119.93 64.548c1.065 2.215 2.627 4.21 5.048 4.428 1.745.157 3.484-.475 4.97-1.406 3.269-2.048 5.476-5.493 6.742-9.142 1.431-4.127 2.276-8.67 2.309-13.17.022-3.065-.333-6.11-1.137-8.99-1.271-4.554-4.374-11.322-10.016-11.268-6.098.06-10.953 9.226-10.844 20.474l.02 2.015c.06 6.237.631 10.577 1.587 13.593.337 1.064.76 2.295 1.322 3.466"/>
        <path fill="#F9AB98" d="M145.354 46.67c4.777-5.962 4.127-14.317-.967-19.9-1.486-1.628-2.845-2.815-2.054-5.215.88-2.67 4.121-3.753 6.757-3.482 2.529.26 4.854 1.67 6.557 3.567 1.702 1.897 2.828 4.255 3.614 6.685a29.643 29.643 0 0 1 .303 17.117c1.31-2.275 2.448-4.655 3.338-7.128 2.085-5.795 3.387-12.111 3.043-18.298-.287-5.137-1.463-11.034-4.882-15.036-5.42-6.348-16.132-6.62-22.084-.859-1.72 1.664-2.896 4.042-2.913 6.468-.017 2.439 1.387 5.25-.15 7.518-.684 1.007-1.844 1.608-3.03 1.863-2.458.53-4.772.721-7.172 1.668-2.469.974-4.888 2.25-6.858 4.058-1.647 1.51-4.1 4.485-3.836 6.908.468 4.288 7.28 6.76 10.852 6.662 4.389-.121 8.641-.501 11.998 2.9a14.01 14.01 0 0 1 2.619 3.7c.206.422 1.696 3.835 1.243 4.134a15.932 15.932 0 0 0 3.622-3.33"/>
        <path fill="#6A79A8" d="M135.475 65.71c2.22-2.992 3.466-6.46 4.335-10.054.953-3.944 1.37-8.033 1.118-12.086-.349-5.62-2.009-12.401-6.34-16.374-3.608-3.308-8.507-2.72-11.771.7-4.187 4.386-5.583 11.196-5.758 17.044-.208 6.927.005 14.34 2.784 20.793.23.535 1.448.182 1.229-.329-2.337-5.426-2.707-11.317-2.768-17.156-.06-5.794.437-11.72 3.3-16.893 1.098-1.986 2.624-3.979 4.726-4.973 2.203-1.042 4.659-.555 6.564.887 4.088 3.094 5.867 9.109 6.542 13.947.586 4.204.352 8.516-.463 12.675-.792 4.048-2.039 8.12-4.523 11.47-.462.623.696.792 1.025.35M123.195 69.73c1.34.77 2.924 1.21 4.684 1.269.374.012.922-.074 1.081-.34.146-.243-.13-.443-.499-.456-1.537-.051-2.817-.44-3.983-1.11-.542-.311-2.001.223-1.283.636"/>
        <path fill="#6A79A8" d="M124 56.483c.299.505.946.946 1.785 1.216 1.169.377 2.616.431 3.728-.019.491-.198.888-.467 1.147-.769.126-.146.22-.3.276-.459a.92.92 0 0 0 .054-.452c-.405.314-1.057.602-1.79.726-1.405.236-3.709.483-4.864-.17-.08-.045-.16-.096-.27-.117l-.066.044"/>
        <path fill="#FFF" d="M139.62 85.661c-.477-.775-.712-1.823-.587-2.947.244-2.198 1.77-3.857 3.409-3.704 1.638.152 2.769 2.058 2.525 4.256-.122 1.1-.565 2.064-1.181 2.734l-4.165-.339"/>
        <path fill="#6A79A8" d="M140.805 84.208a5.494 5.494 0 0 1-.442-3.828c.3-1.234 1.281-3.232 2.884-2.503.974.443 1.403 1.787 1.53 2.747.191 1.453-.188 2.943-1.092 4.104-.321.412.914.308 1.15.005 1.65-2.12 1.981-7.809-1.926-7.732-3.633.071-4.698 4.889-3.344 7.536.204.399 1.408-.001 1.24-.33"/>
        <path fill="#6A79A8" d="M141.671 83.402c-.128 2.172-.025 4.385-.474 6.533-.499 2.382-1.87 4.263-4.05 5.746-.585.399.739.386 1.061.168 2.078-1.414 3.57-3.217 4.177-5.478.624-2.32.475-4.759.615-7.124.026-.451-1.307-.214-1.329.155M118 67.746c.021 2.771 1.293 5.25 3.183 7.194.275.283.77.93 1.182 1.039.428.114 1.199-.269 1.574-.38 2.138-.632 4.32-1.212 6.275-2.32 3.097-1.757 5.876-4.175 7.784-7.236.051-.083-.771-.056-.914.173-2.026 3.25-5.233 6.115-8.72 7.65-1.796.791-3.768 1.267-5.65 1.804l.473-.024c-2.503-1.878-4.234-4.98-4.258-8.153-.001-.132-.931-.002-.929.253"/>
        <path fill="#6A79A8" d="M123.005 75.606l.714 2.285c.046.148.41.109.517.089 4.447-.858 8.744-2.522 12.241-5.231 1.571-1.217 3.203-2.71 4.106-4.435.677-1.292.704-3.222-1.251-3.314-.301-.014-1.433.484-.797.514 2.335.11.797 3.15.113 4.039-1.01 1.313-2.262 2.481-3.626 3.484-3.067 2.255-6.742 3.72-10.572 4.457l.518.089-.714-2.285c-.094-.3-1.341.013-1.25.308"/>
        <path fill="#6A79A8" d="M123.145 75.271c-.826.39-1.737.58-2.564.972l.816.079c-2.081-2.876-4.302-7.377-2.548-10.868.295-.589-.92-.578-1.148-.123-1.872 3.73.353 8.407 2.592 11.502.17.234.594.184.815.08.827-.391 1.737-.581 2.564-.972.74-.35.079-.956-.527-.67M137.912 94.64c-4.711 3.203-10.621 3.17-15.477.274-1.982-1.182-4.207-3.053-4.127-5.446.037-1.133 1.076-1.762 1.316-2.824.22-.976-.158-1.866-.92-2.524-.442-.383-1.52.232-.967.71 1.632 1.412-.223 2.632-.617 4.017-.309 1.089.012 2.31.578 3.273 1.18 2.01 3.366 3.433 5.522 4.419 5.138 2.348 10.92 1.834 15.546-1.311.692-.47-.32-.95-.854-.588M108.974 84.522c-2.188 1.687-4.744 3.075-7.358 3.675-2.45.563-4.986.11-7.31-.847a20.685 20.685 0 0 1-3.348-1.78c-.867-.56-2.192-1.235-2.842-2.102-.73-.974-.016-2.125-.032-3.249-.012-.79-.425-.992-1.05-1.207-.283-.097-1.327.411-.955.539 1.49.513.408 2.235.53 3.524.108 1.119 1.583 1.808 2.34 2.341 2.2 1.555 4.614 2.801 7.181 3.333 4.827.999 9.797-1.102 13.75-4.15.492-.379-.674-.256-.906-.077"/>
        <path fill="#D1D1D1" d="M1.08 114.035c.045-.288 11.295 1.265 13.212 1.643 4.111.81 16.587.558 16.633.557.168-.003.004.927-.012 1.034-.15.982-.364 1.937-.576 2.882-.33 1.473-.686 2.93-1.05 4.379a375.114 375.114 0 0 1-1.434 5.525 610.308 610.308 0 0 1-3.667 13.09 554.158 554.158 0 0 1-2.053 6.865 424.93 424.93 0 0 1-2.083 6.61 268.128 268.128 0 0 1-2.02 6.007c-.6 1.71-1.218 3.402-1.872 5.053-.51 1.288-1.041 2.561-1.632 3.747-.623 1.253-1.39 2.797-2.571 2.546-1.913-.408-2.13-3.746-2.648-5.977-.738-3.178-1.484-6.353-2.164-9.56-.464-2.186-.89-4.396-1.31-6.608-.423-2.23-.758-4.547-1.236-6.744-.008-.044-.017-.09-.024-.136-1.183-6.672-2.15-13.427-2.833-20.304-.28-2.82-.628-5.61-.723-8.477-.021-.702-.04-1.444.062-2.132"/>
        <path fill="#E5E5E5" d="M1.069 114.035c.04-.288 9.835 1.266 11.504 1.644 3.58.81 13.437.612 13.427.688-.407 2.955-5.638 24.028-6.21 26.276a4103.038 4103.038 0 0 1-3.882 15.158c-1.19 4.604-2.42 9.18-3.628 13.77-.338 1.281-.711 2.504-1.645 2.425-.759-.063-1.433-1.125-1.67-2.326-.87-4.408-1.795-8.771-2.616-13.218a358.347 358.347 0 0 1-1.14-6.61c-.37-2.232-.66-4.549-1.077-6.746-.007-.045-.015-.09-.02-.136a306.121 306.121 0 0 1-2.468-20.312c-.244-2.821-.546-5.612-.63-8.48-.018-.703-.035-1.445.055-2.133"/>
        <path fill="#D1D1D1" d="M11.053 120.28c2.399.116 4.85-.53 7.207-.914 1.704-.43 3.536-.576 5.271-.859 1.747-.284 3.489-.553 5.207-.987 2.521-.624 5.02-1.346 7.506-2.095 1.53-.46 3.056-.932 4.576-1.423.162-.052.27.888.286.996.137.985.203 1.966.268 2.935.102 1.51.175 3.012.238 4.51.08 1.914.141 3.822.192 5.725a602.833 602.833 0 0 1 .194 13.64c.006 2.404-.002 4.802-.027 7.192a419.724 419.724 0 0 1-.127 6.957 264.677 264.677 0 0 1-.241 6.359 134.724 134.724 0 0 1-.37 5.399c-.127 1.386-.278 2.764-.513 4.077-.247 1.386-.55 3.094-1.775 3.201-1.985.174-3.158-2.965-4.306-4.953-1.636-2.831-3.278-5.657-4.867-8.533a310.215 310.215 0 0 1-3.182-5.953c-.802-1.53-1.421-3.408-2.435-4.8-.456-.628-1.111-1.077-1.754-1.491-.659-.423-1.443-.306-2.214-.34-.158-.006-.322-.015-.46-.09-.155-.085-.256-.24-.35-.389-1.952-3.085-4.071-6.104-5.677-9.404-1.355-2.784-2.367-5.779-2.637-8.879-.289-3.318-.717-6.651-1.063-9.973 0 .03.498.066 1.053.093"/>
        <path fill="#E5E5E5" d="M14.42 119.222c1.93.105 3.842-.025 5.807-.191 2.968-.25 5.935-.85 8.815-1.596.58-.15 8.622-2.214 8.59-2.435.42 2.954.948 24.76.99 27.092.093 5.243.182 10.486.253 15.723.065 4.78.082 9.544.124 14.316.011 1.333-.032 2.62-1.04 2.843-.82.181-1.837-.618-2.432-1.69-2.184-3.935-4.414-7.809-6.559-11.796a324.062 324.062 0 0 1-3.102-5.953c-1.566-3.062-3.055-5.795-5.052-8.585-2.148-3.004-4.19-6.082-6.232-9.158-.58-.873-1.16-1.749-1.633-2.684-.46-.911-.844-2.04-1.715-2.65-.291-.204-.623-.339-.927-.522-.971-.587-1.592-1.637-1.896-2.732-.464-1.668-.368-3.46-.401-5.175-.02-1.069-.022-2.144.12-3.205.09-.675.1-1.56.56-2.108.656-.78 2.233.041 3.065.195.896.165 1.782.263 2.664.31"/>
        <path fill="#6A79A8" d="M21.776 149.207c-1.677 5.674-3.405 11.343-5.412 16.907-.897 2.487-1.73 5.407-3.267 7.584-1.573 2.227-2.585-2.622-2.777-3.642-1.037-5.513-2.423-10.955-3.453-16.473-1.058-5.677-2.061-11.372-2.872-17.091a269.054 269.054 0 0 1-1.21-9.809c-.367-3.512-.451-7.012-.56-10.54-.009-.307-1.238-.087-1.225.333.103 3.36.165 6.7.507 10.045.336 3.28.736 6.552 1.193 9.816.892 6.363 2.012 12.7 3.21 19.011a298.89 298.89 0 0 0 1.952 9.363c.564 2.524.95 5.16 1.663 7.644.418 1.46 1.337 3.04 3.084 2.556 1.938-.537 2.758-3.332 3.436-4.968 2.808-6.772 4.872-13.892 6.949-20.92.104-.352-1.11-.185-1.218.184"/>
        <path fill="#6A79A8" d="M27.025 116.496c4.152-1.017 8.254-2.27 12.318-3.6l-.573-.078c.132.084.186 1.148.2 1.266.126 1.087.188 2.181.252 3.273.115 1.934.192 3.87.258 5.806.129 3.75.204 7.502.248 11.255.087 7.432.068 14.872-.2 22.3-.138 3.793-.286 7.62-.801 11.384-.133.971-.26 4.205-1.735 3.899-1.151-.24-1.99-2.262-2.465-3.167-1.599-3.05-3.387-5.999-5.05-9.014-1.73-3.139-3.294-6.373-5.075-9.482-1.906-3.326-4.087-6.469-6.388-9.523-2.375-3.15-4.754-6.347-5.804-10.231-.159-.588-1.355-.264-1.195.325 1.154 4.27 3.868 7.717 6.457 11.185 2.737 3.665 5.227 7.495 7.349 11.561a380.846 380.846 0 0 0 7.003 12.804c.931 1.629 1.7 3.456 2.813 4.966.713.966 1.748 1.807 3.01 1.517 1.343-.31 1.73-1.762 1.972-2.961.439-2.163.615-4.383.773-6.581.362-5.003.48-10.026.547-15.041.133-9.942.073-19.915-.435-29.846a105.757 105.757 0 0 0-.243-3.788c-.051-.582.015-1.99-.414-2.496-.443-.521-1.356-.012-1.858.149-3.7 1.181-7.424 2.314-11.196 3.238-.749.183-.514 1.062.232.88"/>
        <path fill="#6A79A8" d="M30.011 122.524c1.158 2.515 3.188 4.428 5.764 5.453.348.139 1.6-.397 1.115-.59a10.15 10.15 0 0 1-5.503-5.23c-.183-.398-1.523.048-1.376.367"/>
        <path fill="#F2F2F2" d="M19.899 61.623c-.156.02-.31.04-.466.063-2.154.31-4.623.824-6.264 2.333-.269.247-.512.521-.747.8-.242.288-.476.582-.702.882-1.926 2.554-2.986 5.345-3.81 8.387-.882 3.255-1.746 6.474-2.468 9.772-1.286 5.869-2.191 11.813-2.928 17.772a451.1 451.1 0 0 0-1.002 8.958c-.237 2.287-.93 5.077-.155 7.33.795 2.312 9.59 2.575 11.46 2.79 9.966 1.142 19.716-1.252 29.183-4.251-.261-3.115-.514-6.23-.794-9.344C40.12 95.052 39.2 82.19 34.812 70.779c-1.324-3.443-3.293-7.895-6.994-9.397-.88-.357-1.839-.432-2.78-.354-.893.075-1.735.29-2.632.356-.837.06-1.675.132-2.507.239"/>
        <path fill="#FFF" d="M19.211 60.322c-3.583.77-7.033 2.875-9.171 5.77-2.116 2.864-3.138 6.369-3.97 9.825-2.375 9.853-4.495 20.687-4.782 30.818-.096 3.382-.256 6.768-.288 10.151-.029 3.066 18.26 3.396 22.732 2.957 5.44-.534 15.268-3.68 15.268-3.68-.756-9.005-1.175-18.036-2.162-27.023-.872-7.931-1.65-17.176-5.772-24.23-2.574-4.402-7.321-5.563-11.855-4.588"/>
        <path fill="#FFF" d="M34.923 46.805c.723-11.638-3.752-21.395-9.995-21.792-6.243-.398-11.89 8.715-12.612 20.353l-.13 2.086c-.4 6.453-.137 10.984.617 14.174 1.02 4.318 4.478 6.825 8.285 8.562 1.554.709 3.328 1.055 4.978.621 1.476-.388 2.746-1.37 3.741-2.54 4.127-4.852 4.608-13.28 4.987-19.378l.13-2.086"/>
        <path fill="#F2F2F2" d="M11.012 65.672a.277.277 0 0 0 .02.21c.095.197.307.346.45.519 2.352 2.848 5.907 4.912 9.97 5.48 2.4.336 4.663-.074 6.722-.798 1.03-.363 2.01-.795 2.984-1.233.533-.24 1.116-.405 1.589-.73.24-.166.293-.248.226-.528-.048-.202-.116-.488-.325-.625-.242-.16-.765.01-.994.104-3.047 1.258-6.416 3.761-10.342 2.602-3.282-.97-6.318-3.113-8.492-5.359-.412-.425-1.131-.403-1.481-.026-.12.128-.283.24-.327.384"/>
        <path fill="#6A79A8" d="M11.152 65.87c2.8 2.454 6.45 4.352 10.062 4.974 4.045.696 7.556-1.086 11.31-2.365.764-.26.55-1.16-.228-.894-3.513 1.197-6.844 2.964-10.637 2.306-3.43-.595-6.866-2.454-9.522-4.78-.423-.371-1.542.271-.985.76"/>
        <path fill="#BBDFF5" d="M37.65 33.815c1.327-.995 2.383-2.355 3.264-3.8.56-.92 1.055-1.885 1.512-2.868.095-.204.675-1.234.559-1.38-.06-.074-.384-.062-.473-.068a3.65 3.65 0 0 0-.45 0c-.3.019-.598.069-.894.129-.377.077-.753.163-1.128.252-.698.166-1.395.345-2.102.467l2.644-4.281-1.881.24.654-2.103-4.265 2.21.545-3.269-3.146 1.624-1.85-3.212-1.333 1.505-3.17-4.01-1.105 2.398c-.83-1.216-1.658-2.433-2.487-3.649-1.175.578-1.395 2.752-2.455 3.122-1.005.35-3.976-2.349-4.873-2.94l1.89 4.074-4.31-2.266.805 1.89-3.378-1.26 2.428 3.081L8 17.547c1.743 2.165 2.15 5.094 2.443 7.958.165 1.606.765 3.25.747 4.823-.039 1.792-.483 3.519-.448 5.291.039 1.991.238 4.05.267 6.074.007.51.086 1.14.515 1.3.508.192 3.834-4.19 4.594-4.73.68-.483 4.416-2.306 4.531-3.057l-.337 1.695c.631-1.061 2.018-1.535 3.125-1.067 1.086.46 1.354 1.6 1.917 2.496 1.186-.675 2.365-1.247 3.706-1.544 3.007-.664 6.008-1.038 8.59-2.971"/>
        <path fill="#6A79A8" d="M13.492 61.142c-1.595-5.256-1.054-11.137-.702-16.525.375-5.75 1.848-12.068 5.74-16.537 1.417-1.628 3.332-3.089 5.581-3.194 2.093-.099 3.976 1.037 5.346 2.528 3.825 4.163 4.914 10.551 4.937 15.983.013 3.06-.258 6.165-.542 9.21-.347 3.733-.93 7.501-2.466 10.954-.046.104-.05.249.027.342 1.114 1.337 1.708 3.042 2.327 4.65a65.42 65.42 0 0 1 1.944 5.909c1.146 4.11 1.933 8.31 2.534 12.53 1.239 8.709 1.833 17.515 2.568 26.276l.492-.584c-7.659 2.414-15.56 4.472-23.653 4.416-2.518-.017-5.035-.293-7.534-.587-2.24-.263-4.556-.547-6.693-1.29-.646-.226-1.596-.525-1.956-1.165-.347-.616-.212-1.56-.175-2.229.131-2.373.56-4.737.968-7.076 1.034-5.93 1.735-11.906 2.795-17.832.787-4.4 1.796-8.743 2.95-13.06 1.073-4.02 2.225-7.849 4.93-11.116.488-.591-.66-.805-1.02-.37-2.267 2.739-3.593 5.905-4.528 9.3-1.111 4.038-2.15 8.096-2.97 12.204-1.329 6.652-2.043 13.395-3.23 20.07-.448 2.52-.918 5.059-1.101 7.614-.111 1.542-.235 3.011 1.257 3.877 1.832 1.063 4.185 1.377 6.248 1.687 2.058.309 4.14.528 6.214.707 9.456.815 18.782-1.485 27.726-4.304.28-.088.518-.27.492-.584-.951-11.342-1.533-22.875-3.93-34.03-.593-2.763-1.314-5.5-2.214-8.18-.757-2.252-1.514-4.954-2.935-6.89-.062-.086-.232-.223-.258-.312-.127-.42.04.058.046-.183.014-.501.541-1.372.702-1.862.373-1.14.666-2.305.904-3.479.497-2.459.748-4.96.931-7.458.338-4.608.648-9.206-.24-13.778-.734-3.772-2.175-7.81-5.051-10.514-2.177-2.045-5.142-2.85-7.998-1.797-3.278 1.21-5.56 4.253-7.086 7.244-2.36 4.625-3.104 9.688-3.423 14.802-.304 4.872-.606 10.213.834 14.956.17.564 1.382.238 1.212-.323"/>
        <path fill="#6A79A8" d="M31.682 56.362c-.255.476-.712 1.013-1.568.955-.854-.058-1.439-.616-1.743-1.11-.253-.41-1.585-.15-1.341.245.526.855 1.542 1.55 2.979 1.548 1.413-.003 2.488-.655 2.956-1.53.266-.497-1.077-.495-1.283-.108"/>
        <path fill="#BBDFF5" d="M33.317 106l.056-.16c.036-.105.097-.262.155-.466.128-.4.271-1.012.333-1.776.033-.382.032-.804.002-1.251a6.6 6.6 0 0 0-.27-1.388 4.671 4.671 0 0 0-.66-1.343c-.081-.1-.153-.203-.238-.3l-.308-.368-.303-.337-.331-.356c-.453-.483-.942-1-1.45-1.598a10.07 10.07 0 0 1-1.417-2.16 7.914 7.914 0 0 1-.737-2.842l-.016-.189-.007-.196-.01-.312c.003-.242.006-.525.023-.748.022-.474.075-.931.13-1.388.11-.905.275-1.778.408-2.611.065-.417.125-.826.161-1.216.039-.39.071-.768.062-1.11a4.408 4.408 0 0 0-.105-.93 2.477 2.477 0 0 0-.284-.692c-.236-.399-.657-.764-1.263-1.072-.076-.036-.145-.08-.224-.117l-.243-.107c-.156-.077-.337-.134-.508-.2l-.13-.049c-.037-.012.032.01.017.005l-.02-.006-.04-.013-.079-.025-.159-.05a2.286 2.286 0 0 0-.144-.042l-.243-.066-.278-.065a30.723 30.723 0 0 0-2.437-.411c-.434-.06-.88-.123-1.332-.196a21.401 21.401 0 0 1-1.383-.286l-.35-.09-.095-.025-.039-.012-.076-.024-.153-.048-.305-.095-.156-.05-.181-.067c-.24-.09-.488-.177-.711-.278l-.65-.304a13.509 13.509 0 0 1-4.23-3.353 14.601 14.601 0 0 1-2.44-4.086l-.1-.255-.049-.126-.012-.032-.021-.052-.005-.015-.019-.06-.148-.476-.142-.568c-.044-.184-.062-.358-.09-.533a8.223 8.223 0 0 1-.025-1.975 8.998 8.998 0 0 1 .364-1.645 9.33 9.33 0 0 1 .538-1.283c.375-.74.756-1.255 1.013-1.6.127-.175.241-.296.31-.383l.108-.128-.235.616c-.15.4-.34.999-.507 1.755-.084.379-.145.8-.189 1.252-.026.455-.041.939.01 1.443.057.503.156 1.023.335 1.54.05.125.091.262.143.382l.157.353.227.44.228.373c.159.273.343.537.521.809.196.26.38.535.6.789.415.523.882 1.026 1.397 1.493 1.015.95 2.24 1.734 3.577 2.284l.51.186c.168.056.323.095.483.15l.12.037c.041.013.1.026.149.038l.31.076.156.039.078.019.038.01c.019.004-.085-.024-.033-.01l.017.003.276.052c.744.13 1.555.21 2.423.3.87.092 1.803.175 2.783.389l.37.083.4.104c.073.018.124.034.176.05l.16.047.196.06.184.066c.246.09.49.166.738.28l.37.16c.123.056.249.123.371.188.492.254.986.587 1.453.992a5.906 5.906 0 0 1 1.924 3.311c.12.614.152 1.204.141 1.757-.026 1.106-.221 2.07-.416 2.963l-.57 2.5c-.079.388-.155.77-.202 1.133-.032.194-.039.33-.064.502l-.022.311-.005.078-.003.038c0-.01-.002.05-.001-.018v.015l-.002.12a5.308 5.308 0 0 0 .256 1.843c.373 1.19 1.223 2.335 1.987 3.499l.283.44.281.454.242.422c.098.162.173.337.256.5.304.674.46 1.346.514 1.969a7.267 7.267 0 0 1-.399 3.076 7.235 7.235 0 0 1-.86 1.711c-.115.186-.225.307-.292.396l-.104.132"/>
        <path fill="#BBDFF5" d="M33.933 64.56l.042.367c.013.12.03.264.023.443-.003.176.004.393-.028.618-.021.23-.054.487-.117.76-.047.282-.145.569-.24.887a8.902 8.902 0 0 1-1.008 2.002 9.682 9.682 0 0 1-3.125 2.929l-.365.198-.092.05-.023.012-.012.006-.05.02-.04.02-.319.15c-.054.026-.1.05-.176.079l-.42.163c-1.069.397-2.21.622-3.354.7-1.143.08-2.27.02-3.344-.095a37.268 37.268 0 0 1-1.573-.21 24.358 24.358 0 0 1-1.592-.295c-1.061-.23-2.131-.56-3.13-1.027a10.356 10.356 0 0 1-1.753-1.03l-.313-.244-.077-.06-.01-.008c-.078-.056-.026-.02-.045-.034l-.016-.014-.03-.028-.123-.11a6.559 6.559 0 0 1-.261-.247l-.292-.293c-.09-.096-.167-.19-.249-.282-.165-.184-.306-.38-.445-.57a8.289 8.289 0 0 1-.673-1.162 7.39 7.39 0 0 1-.643-2.175 6.404 6.404 0 0 1-.008-1.69c.015-.114.025-.222.044-.322l.061-.282.054-.238.062-.196c.075-.232.12-.352.12-.352l.102.355c.03.114.072.254.127.415.053.16.111.342.193.54a8.59 8.59 0 0 0 1.764 2.814c.225.242.474.473.742.693.143.102.269.22.418.317.072.049.146.105.216.149l.203.12c.053.035.167.096.259.151l.143.084.037.022.018.01c-.014-.01.044.03-.029-.021l.008.003.063.03c.167.083.336.165.512.24.354.147.72.285 1.111.4.78.234 1.636.404 2.554.541.456.07.936.13 1.413.19l1.47.17c.962.106 1.886.184 2.76.183a12.11 12.11 0 0 0 2.732-.292c.038-.004.101-.025.157-.04l.17-.05.17-.05.042-.011-.03.012.008-.002.017-.006.066-.022.267-.085c.176-.065.352-.133.526-.204.17-.082.347-.148.512-.237.67-.337 1.285-.74 1.821-1.164.54-.423.999-.87 1.388-1.295.376-.432.689-.84.921-1.2.23-.356.408-.649.514-.871l.175-.33"/>
        <path fill="#6A79A8" d="M64.124 79.31c-.537.996-.486 1.888-.015 2.898.578 1.24 1.102 2.105-.222 3.113-2.787 2.122-6.11 3.733-9.408 4.913-6.574 2.352-13.888 2.897-20.624.875-3.986-1.197-7.605-3.298-10.67-6.068-.333-.3-1.472.16-1.118.48 11.555 10.441 28.995 9.177 41.455.975 1.048-.69 2.664-1.538 2.46-3.008-.214-1.545-1.619-2.469-.726-4.125.282-.523-.93-.427-1.132-.053"/>
    </g>
</svg>
