<svg xmlns="http://www.w3.org/2000/svg" width="18" height="25" viewBox="0 0 18 25">
    <g fill="none" fill-rule="evenodd" transform="scale(0.45), translate(11,15)" >
        <rect width="16.875" height="21.688" x=".563" y="2.125" stroke="#FFF" rx="2"/>
        <path fill="#FFF" d="M14.45 4.031c.275 0 .5-.384.5-.854V1.448c0-.47-.225-.854-.5-.854s-.5.384-.5.854v1.729c0 .47.225.854.5.854M10.875 4.031c.275 0 .5-.384.5-.854V1.448c0-.47-.225-.854-.5-.854s-.5.384-.5.854v1.729c0 .47.225.854.5.854M7.094 4.031c.275 0 .5-.384.5-.854V1.448c0-.47-.225-.854-.5-.854s-.5.384-.5.854v1.729c0 .47.225.854.5.854M3.45 4.031c.275 0 .5-.384.5-.854V1.448c0-.47-.225-.854-.5-.854s-.5.384-.5.854v1.729c0 .47.225.854.5.854M13.995 19.5h-9.99c-.279 0-.505.154-.505.344 0 .19.226.343.505.343h9.99c.279 0 .505-.153.505-.343 0-.19-.226-.344-.505-.344M13.995 16.75h-9.99c-.279 0-.505.154-.505.344 0 .19.226.343.505.343h9.99c.279 0 .505-.153.505-.343 0-.19-.226-.344-.505-.344M13.995 14h-9.99c-.279 0-.505.154-.505.344 0 .19.226.344.505.344h9.99c.279 0 .505-.154.505-.344 0-.19-.226-.344-.505-.344M3.5 11.594c0 .19.226.344.505.344h9.99c.279 0 .505-.154.505-.344 0-.19-.226-.344-.505-.344h-9.99c-.279 0-.505.154-.505.344"/>
        <path stroke="#FFF" stroke-linecap="square" d="M1.094 7.813H16.92"/>
    </g>
</svg>
