<svg xmlns="http://www.w3.org/2000/svg" width="17" height="15" viewBox="0 0 17 15">
    <g fill="#FFF" fill-rule="evenodd">
        <path stroke="#FFF" stroke-width=".3" d="M1.467 11.029h13.31V2.267H1.467v8.762zM14.777 1H1.467C.77 1 .2 1.57.2 2.267v9.079c0 .696.57 1.267 1.267 1.267h13.31c.697 0 1.267-.57 1.267-1.267V2.267c0-.697-.57-1.267-1.267-1.267z"/>
        <path d="M10.334 13.258H5.91a.16.16 0 0 0-.158.158v.951c0 .087.071.158.158.158h4.425a.159.159 0 0 0 .159-.158v-.95a.159.159 0 0 0-.159-.159"/>
    </g>
</svg>
