<?xml version="1.0" encoding="UTF-8"?><!DOCTYPE svg PUBLIC "-//W3C//DTD SVG 1.1//EN" "http://www.w3.org/Graphics/SVG/1.1/DTD/svg11.dtd"><svg xmlns="http://www.w3.org/2000/svg" xmlns:xlink="http://www.w3.org/1999/xlink"><defs><path d="M3 0h30a3 3 0 013 3v19.548a3 3 0 01-3 3H3a3 3 0 01-3-3V3a3 3 0 013-3z" id="capture-area-a"/><mask id="capture-area-b" x="0" y="0" width="36" height="25.548" fill="#fff"><use xlink:href="#capture-area-a"/></mask><linearGradient x1="0%" y1="68.006%" x2="100%" y2="68.006%" id="clickup-a"><stop stop-color="#8930FD" offset="0%"/><stop stop-color="#49CCF9" offset="100%"/></linearGradient><linearGradient x1="0%" y1="68.006%" x2="100%" y2="68.006%" id="clickup-b"><stop stop-color="#FF02F0" offset="0%"/><stop stop-color="#FFC800" offset="100%"/></linearGradient><filter id="graphic-a" width="145.4%" height="145.4%" x="-22.7%" y="-19.2%" filterUnits="objectBoundingBox"><feOffset dy="2" in="SourceAlpha" result="shadowOffsetOuter1"/><feGaussianBlur in="shadowOffsetOuter1" result="shadowBlurOuter1" stdDeviation="4"/><feColorMatrix in="shadowBlurOuter1" values="0 0 0 0 0 0 0 0 0 0 0 0 0 0 0 0 0 0 0.187613225 0"/></filter><path id="graphic-b" d="M225.244 61.842c0-15.822-12.825-28.648-28.646-28.648-15.822 0-28.647 12.826-28.647 28.648 0 15.82 12.825 28.646 28.647 28.646 15.821 0 28.646-12.825 28.646-28.646"/></defs><symbol id="angle-left" viewBox="45 0 582 2048"><path d="M627 672c0 8.667-3.333 16.333-10 23l-393 393 393 393c6.667 6.667 10 14.333 10 23s-3.333 16.333-10 23l-50 50c-6.667 6.667-14.333 10-23 10s-16.333-3.333-23-10L55 1111c-6.667-6.667-10-14.333-10-23s3.333-16.333 10-23l466-466c6.667-6.667 14.333-10 23-10s16.333 3.333 23 10l50 50c6.667 6.667 10 14.333 10 23z"/></symbol><symbol id="angle-right-no-padding"><path d="M582 499c0 8.7-3.3 16.3-10 23L106 988c-6.7 6.7-14.3 10-23 10s-16.3-3.3-23-10l-50-50c-6.7-6.7-10-14.3-10-23s3.3-16.3 10-23l393-393L10 106C3.3 99.3 0 91.7 0 83s3.3-16.3 10-23l50-50C66.7 3.3 74.3 0 83 0s16.3 3.3 23 10l466 466c6.7 6.7 10 14.3 10 23z" fill="#717171"/></symbol><symbol id="angle-right-sm"><path d="M1 0l6 10-6 10" stroke="#D5D5D5" fill="none"/></symbol><symbol id="angle-right" viewBox="13 0 582 2048"><path d="M595 1088c0 8.667-3.333 16.333-10 23l-466 466c-6.667 6.667-14.333 10-23 10s-16.333-3.333-23-10l-50-50c-6.667-6.667-10-14.333-10-23s3.333-16.333 10-23l393-393L23 695c-6.667-6.667-10-14.333-10-23s3.333-16.333 10-23l50-50c6.667-6.667 14.333-10 23-10s16.333 3.333 23 10l466 466c6.667 6.667 10 14.333 10 23z"/></symbol><symbol id="arrow-back" viewBox="0 0 20 34"><path d="M18 32L3 17 18 2" fill="none" fill-rule="evenodd" stroke-width="3" stroke="#fff" stroke-linecap="round"/></symbol><symbol id="arrow-board-left"><path d="M10 2L3 9l7 7" stroke-width="4" stroke="#7b68ee" fill="none"/></symbol><symbol id="arrow-board-right-gray"><path d="M2 2l7 7-7 7" stroke-width="4" stroke="#707070" fill="none"/></symbol><symbol id="arrow-board-right"><path d="M2 2l7 7-7 7" stroke-width="4" stroke="#7b68ee" fill="none"/></symbol><symbol id="arrow-down-on"><g fill-rule="evenodd"><path d="M1.735.11l7.184 6.938-1.39 1.439L.347 1.549z"/><path d="M6.142 6.95L13.181.152l1.39 1.439-7.04 6.797z"/></g></symbol><symbol id="arrow-down"><g fill-rule="evenodd"><path d="M1.735.11l7.184 6.938-1.39 1.439L.347 1.549z"/><path d="M6.142 6.95L13.181.152l1.39 1.439-7.04 6.797z"/></g></symbol><symbol id="arrow-due-date" viewBox="0 0 8 26"><path stroke="#E4E3E6" d="M1 0l6 13-6 13" fill="none"/></symbol><symbol id="arrow-expand" viewBox="0 0 7 10"><path d="M1.3 8.5L4.7 5 1.3 1.5" fill="none"/></symbol><symbol id="arrow-left-bold" viewBox="0 0 33 50"><path d="M31.7 7.1c.5.5.5 1.2 0 1.7L21 19.6l-1.7 1.7L8.5 32.1c-.5.5-1.2.5-1.7 0l-2.3-2.3-1.7-1.7-2.3-2.3c-.5-.5-.5-1.2 0-1.7l10.8-10.8 1.7-1.7L23.7.8c.5-.5 1.2-.5 1.7 0l2.3 2.3 1.7 1.7 2.3 2.3z"/><path d="M25.4 49c-.5.5-1.2.5-1.7 0L12.9 38.2l-1.7-1.7L.4 25.7c-.5-.5-.5-1.2 0-1.7l2.3-2.3L4.4 20l2.3-2.3c.5-.5 1.2-.5 1.7 0l10.8 10.8 1.7 1.7L31.7 41c.5.5.5 1.2 0 1.7L29.4 45l-1.7 1.7-2.3 2.3z"/></symbol><symbol id="arrow-right"><g transform="translate(0 1)" fill="none" fill-rule="evenodd"><rect fill="#4A4F55" y="4" width="12" height="2" rx="1"/><path stroke="#4A4F55" stroke-width="2" d="M8 0l4 5-3.94 4.993"/></g></symbol><symbol id="arrows"><g fill-rule="evenodd"><path d="M8 .832L8.832 0 12.4 3.568 8.832 7.135 8 6.303l2.735-2.735z"/><path opacity=".7" d="M4 .832L4.832 0 8.4 3.568 4.832 7.135 4 6.303l2.735-2.735z"/><path opacity=".4" d="M0 .832L.832 0 4.4 3.568.832 7.135 0 6.303l2.735-2.735z"/></g></symbol><symbol id="basket"><path d="M10.777 16.215h1V7.622h-1v8.593zm-3.36 0h1V7.622h-1v8.593zm-3.359 0h1V7.622h-1v8.593zm10.776-12.6a.262.262 0 00-.261-.261H1.26A.262.262 0 001 3.615v.686h13.834v-.686zM6.193 2.355h3.448V1.261A.262.262 0 009.38 1H6.454a.262.262 0 00-.261.261v1.093zm9.64 1.261v1.686H0V3.615c0-.695.566-1.261 1.262-1.261h3.931V1.261C5.193.566 5.759 0 6.455 0H9.38c.695 0 1.261.566 1.261 1.261v1.093H14.573c.695 0 1.26.566 1.26 1.261zm-1.697 2.447h1V18.1c0 1.049-.852 1.901-1.9 1.901H2.598c-1.047 0-1.9-.852-1.9-1.9V6.061h1V18.1c0 .497.405.901.9.901h10.638c.496 0 .9-.404.9-.9V6.061z" fill="#E7A2A2" fill-rule="evenodd"/></symbol><symbol id="bookmark"><path fill="none" stroke="#FFF" d="M8.3 12.75l-4.996 2.627.954-5.564-4.042-3.94 5.586-.811L8.3 0l2.498 5.062 5.586.811-4.042 3.94.954 5.564z"/></symbol><symbol id="capture-area"><g fill="none" fill-rule="evenodd"><use stroke="#FFF" mask="url(#capture-area-b)" stroke-width="2" stroke-dasharray="2,1,2,1" xlink:href="#capture-area-a"/><g fill="#FFF"><path d="M30.404 21.969c-.708 0-1.283-.49-1.283-1.095s.575-1.096 1.283-1.096c.71 0 1.284.491 1.284 1.096 0 .604-.574 1.095-1.284 1.095zm-.188-2.822a1.727 1.727 0 00-1.26 2.908c.14.148-1.359.873-2.56 1.73.405.336.757.658 1.024.951 1.19-1.36 2.4-2.136 2.796-2.136a1.727 1.727 0 100-3.453zm-11.108 9.858s1.16.94 2.41.142c.944-.604 3.128-2.008 4.658-3.253l-1.363-.976-5.705 4.087z"/><path d="M30.404 27.702c.71 0 1.284.49 1.284 1.095s-.574 1.096-1.284 1.096c-.708 0-1.283-.491-1.283-1.096 0-.605.575-1.095 1.283-1.095zm-11.296-7.036l7.268 5.206c1.205.862 2.72 1.595 2.58 1.744a1.727 1.727 0 101.259-.546c-.398 0-1.623-.786-2.82-2.165-1.2-1.379-4.627-3.582-5.877-4.381-1.25-.799-2.41.142-2.41.142z"/><path d="M26.817 24.489l1.201 1.99c.422-.364.557-.935.264-1.418-.291-.485-.897-.693-1.465-.572zm-.868 1.712c.294.484.898.691 1.467.572l-1.201-1.992c-.421.365-.557.935-.266 1.42z"/></g></g></symbol><symbol id="capture-fullscreen"><g fill="none" fill-rule="evenodd"><rect stroke="#FFF" x=".5" y=".5" width="32" height="22.419" rx="3"/><path d="M.532 17.565h30.89" stroke="#FFF" stroke-linecap="square"/><rect fill="#FFF" x="10.645" y="25.548" width="10.645" height="1.065" rx=".532"/><rect fill="#FFF" transform="rotate(105 13.306 24.218)" x="11.444" y="23.685" width="3.726" height="1.065" rx=".532"/><rect fill="#FFF" transform="rotate(75 18.629 24.218)" x="16.766" y="23.685" width="3.726" height="1.065" rx=".532"/></g></symbol><symbol id="capture"><path fill="none" stroke="#6F5DEB" stroke-width="2" d="M1 6.187V4a3 3 0 013-3h2.825m7.155 0H17a3 3 0 013 3v2.001m0 7.439V15a3 3 0 01-3 3h-2.864M6.98 18H4a3 3 0 01-3-3v-1.786"/></symbol><symbol id="check"><path d="M1 5.37l3.01 2.96L11 1" fill="none"/></symbol><symbol id="chevron-down"><path d="M24.285 11.284L16 19.571l-8.285-8.288a1.01 1.01 0 10-1.429 1.43l8.999 9.002a1.009 1.009 0 001.428 0l8.999-9.002a1.01 1.01 0 10-1.427-1.429z" fill="#121313"/></symbol><symbol id="chevron-left-white"><path stroke="#FFF" stroke-width="2" d="M8 15L2 8l6-7h0" fill="none" fill-rule="evenodd" stroke-linecap="round"/></symbol><symbol id="chevron-left"><path clip-rule="evenodd" d="M11.262 16.714l9.002 8.999a1.014 1.014 0 001.431 0 1.009 1.009 0 000-1.428L13.407 16l8.287-8.285a1.01 1.01 0 000-1.429 1.014 1.014 0 00-1.431 0l-9.002 8.999a1.02 1.02 0 00.001 1.429z" fill="#121313" fill-rule="evenodd"/></symbol><symbol id="chevron-right" viewBox="0 0 32 32"><path clip-rule="evenodd" d="M21.698 15.286l-9.002-8.999a1.014 1.014 0 00-1.431 0 1.009 1.009 0 000 1.428L19.553 16l-8.287 8.285a1.01 1.01 0 000 1.429 1.014 1.014 0 001.431 0l9.002-8.999a1.02 1.02 0 00-.001-1.429z"/></symbol><symbol id="chevron-top"><path d="M16.714 11.297a1.02 1.02 0 00-1.429 0l-8.999 8.976a1.008 1.008 0 101.428 1.426L16 13.436l8.285 8.264a1.012 1.012 0 001.429 0 1.008 1.008 0 000-1.426l-9-8.977z"/></symbol><symbol id="clickup" viewBox="30 7 120 160"><g fill="none" fill-rule="evenodd"><circle cx="90" cy="90" r="90"/><path d="M25.396 129.121l23.817-18.242C61.86 127.39 75.29 135 90.258 135c14.883 0 27.945-7.522 40.025-23.903l24.145 17.806C137.01 152.522 115.34 165 90.258 165c-25 0-46.87-12.39-64.862-35.879z" fill="url(#clickup-a)"/><path fill="url(#clickup-b)" d="M90.181 49.837l-42.39 36.526-19.583-22.726 62.057-53.474 61.575 53.515-19.68 22.644z"/></g></symbol><symbol id="close-m" viewBox="0 0 14 14"><g stroke-width="2" stroke="#979797" fill="none" fill-rule="evenodd" stroke-linecap="round"><path d="M1 1l12 12M13 1L1 13"/></g></symbol><symbol id="close-o"><path d="M16 8c0 1.451-.358 2.79-1.073 4.016a7.964 7.964 0 01-2.911 2.911A7.826 7.826 0 018 16a7.826 7.826 0 01-4.016-1.073 7.964 7.964 0 01-2.911-2.911A7.826 7.826 0 010 8c0-1.451.358-2.79 1.073-4.016a7.964 7.964 0 012.911-2.911A7.826 7.826 0 018 0c1.451 0 2.79.358 4.016 1.073a7.964 7.964 0 012.911 2.911A7.826 7.826 0 0116 8z"/><path d="M11.969 10.354a.64.64 0 00-.198-.469L9.885 8l1.886-1.885a.64.64 0 00.198-.47.653.653 0 00-.198-.478l-.938-.938a.653.653 0 00-.479-.198.64.64 0 00-.469.198L8 6.115 6.115 4.229a.64.64 0 00-.47-.198.653.653 0 00-.478.198l-.938.938a.653.653 0 00-.198.479c0 .18.066.337.198.469L6.115 8 4.229 9.885a.64.64 0 00-.198.47c0 .187.066.346.198.478l.938.938a.653.653 0 00.479.198.64.64 0 00.469-.198L8 9.885l1.885 1.886a.64.64 0 00.47.198.653.653 0 00.478-.198l.938-.938a.653.653 0 00.198-.479z" fill="#FFF"/></symbol><symbol id="close-p"><path d="M16 8c0 1.451-.358 2.79-1.073 4.016a7.964 7.964 0 01-2.911 2.911A7.826 7.826 0 018 16a7.826 7.826 0 01-4.016-1.073 7.964 7.964 0 01-2.911-2.911A7.826 7.826 0 010 8c0-1.451.358-2.79 1.073-4.016a7.964 7.964 0 012.911-2.911A7.826 7.826 0 018 0c1.451 0 2.79.358 4.016 1.073a7.964 7.964 0 012.911 2.911A7.826 7.826 0 0116 8z"/><path d="M11.969 10.354a.64.64 0 00-.198-.469L9.885 8l1.886-1.885a.64.64 0 00.198-.47.653.653 0 00-.198-.478l-.938-.938a.653.653 0 00-.479-.198.64.64 0 00-.469.198L8 6.115 6.115 4.229a.64.64 0 00-.47-.198.653.653 0 00-.478.198l-.938.938a.653.653 0 00-.198.479c0 .18.066.337.198.469L6.115 8 4.229 9.885a.64.64 0 00-.198.47c0 .187.066.346.198.478l.938.938a.653.653 0 00.479.198.64.64 0 00.469-.198L8 9.885l1.885 1.886a.64.64 0 00.47.198.653.653 0 00.478-.198l.938-.938a.653.653 0 00.198-.479z" fill="#FFF"/></symbol><symbol id="close-silver" viewBox="0 0 24 24"><g class="icon-fill icon-close" stroke-width="2.5" fill-rule="evenodd" stroke-linecap="round" stroke="silver"><path d="M2 2l20 20M2 22L22 2"/></g></symbol><symbol id="close" viewBox="0 0 24 24"><g class="icon-fill icon-close" stroke-width="2.5" fill-rule="evenodd" stroke-linecap="round"><path d="M2 2l20 20M2 22L22 2"/></g></symbol><symbol id="collapse-fullscreen"><path d="M7.126 5.874A.259.259 0 007.345 6h3.726a.263.263 0 100-.526H7.898l4.025-4.025a.263.263 0 00-.372-.372L7.526 5.102V1.929a.263.263 0 10-.526 0v3.726a.26.26 0 00.126.22M5.874 7.126A.26.26 0 005.655 7H1.93a.263.263 0 100 .526h3.173l-4.025 4.025a.263.263 0 00.372.372l4.025-4.025v3.173a.263.263 0 00.526 0V7.345a.26.26 0 00-.126-.22" stroke-width=".4" fill-rule="evenodd"/></symbol><symbol id="dropdown-settings_down" viewBox="0 0 6 4"><path d="M5.328 0c.716 0 .887.463.381 1.036L3.914 3.07c-.505.573-1.323.574-1.829 0L.29 1.036C-.215.464-.043 0 .671 0h4.657z"/></symbol><symbol id="dropdown-settings_mark"><path d="M14 2.095c0 .241-.084.446-.253.615l-6.54 6.539-1.228 1.228a.836.836 0 01-.614.253.836.836 0 01-.614-.253L3.523 9.25l-3.27-3.27A.836.836 0 010 5.365c0-.24.084-.445.253-.614L1.48 3.523a.836.836 0 01.614-.253c.241 0 .446.084.615.253l2.655 2.664L11.29.253A.836.836 0 0111.905 0c.24 0 .445.084.614.253l1.228 1.228a.836.836 0 01.253.614z"/></symbol><symbol id="ellipsis" viewBox="0 0 60 60"><path d="M8 22c-4.411 0-8 3.589-8 8s3.589 8 8 8 8-3.589 8-8-3.589-8-8-8zM52 22c-4.411 0-8 3.589-8 8s3.589 8 8 8 8-3.589 8-8-3.589-8-8-8zM30 22c-4.411 0-8 3.589-8 8s3.589 8 8 8 8-3.589 8-8-3.589-8-8-8z"/></symbol><symbol id="expand-fullscreen"><path d="M11.874 1.126A.259.259 0 0011.655 1H7.93a.263.263 0 100 .526h3.173L7.077 5.551a.263.263 0 00.372.372l4.025-4.025v3.173a.263.263 0 10.526 0V1.345a.26.26 0 00-.126-.22M1.345 12H5.07a.263.263 0 100-.526H1.898l4.025-4.025a.263.263 0 00-.372-.372l-4.025 4.025V7.929a.263.263 0 00-.526 0v3.726a.26.26 0 00.126.22.26.26 0 00.219.125z" stroke-width=".4" fill-rule="evenodd"/></symbol><symbol id="full-screen"><path fill="none" stroke="#6F5DEB" stroke-width="2" d="M4 1h13a3 3 0 013 3v11a3 3 0 01-3 3H4a3 3 0 01-3-3V4a3 3 0 013-3zM2 6h18"/></symbol><symbol id="graphic"><g fill="none" fill-rule="evenodd"><path fill="#EEE" d="M8.181 169.626c-4.07-.552-5.57-1.203-3.621-1.969 13.545-5.328 74.522-5.166 104.1-5.16 37.204.007 75.914-.134 109.423 1.164 14.023.543 45.794 1.042 51.242 2.845 14.293 4.736-87.074 6.039-103.48 6.103-27.351.108-134.421.17-157.664-2.983"/><path fill="#EEE" d="M254.557 166.94H12.074c-6.637 0-12.036-5.4-12.036-12.036v-.723c0-.39.316-.705.706-.705h265.158c.393 0 .708.315.708.705v.707c0 6.645-5.408 12.051-12.053 12.051"/><path fill="#EEE" d="M243.585 158.609V24.773c0-2.423-1.906-4.405-4.235-4.405H27.477c-2.33 0-4.235 1.982-4.235 4.405V158.61h220.343"/><path fill="#F8F8F8" d="M247.21 153.378V24.718a4.247 4.247 0 00-4.235-4.234H31.102a4.247 4.247 0 00-4.235 4.235v128.66H247.21"/><path fill="#5D7183" d="M247.951 151.187V27.202c0-1.212.174-2.69-.171-3.867-.737-2.51-3.076-3.293-5.398-3.293H36.033c-3.527 0-8.924-.72-9.831 3.96-.22 1.137-.077 2.418-.077 3.565V151.36c0 .644 1.483.345 1.483-.173V27.8c0-1.05-.041-2.11 0-3.16.077-1.953 1.304-3.61 3.352-3.715.321-.016.648 0 .97 0h205.66c3.28 0 8.634-.898 8.877 3.895.196 3.882 0 7.825 0 11.71v114.83c0 .644 1.483.345 1.483-.173"/><path fill="#F8F8F8" d="M258.272 166.94H15.788c-6.636 0-12.036-5.4-12.036-12.036v-.723c0-.39.316-.705.706-.705H269.62c.39 0 .705.315.705.705v.707c0 6.645-5.405 12.051-12.052 12.051"/><path fill="#5D7183" d="M258.543 166.456H17.627c-1.603 0-3.153.013-4.728-.439-4.374-1.253-7.65-5.127-8.287-9.611-.078-.551-.019-1.152-.114-1.688.005.033.022-1.124-.31-.76.006-.006.031.006.038 0 .036-.032.194.012.241 0 .933-.229 2.22 0 3.173 0h258.845c.683 0 2.09-.28 2.727 0 1.216.534-.132 4.58-.5 5.47-1.743 4.252-5.788 6.952-10.358 7.03-.796.014-1.177.98-.164.962 4.044-.07 7.92-1.93 10.366-5.182a12.482 12.482 0 002.335-5.35c.196-1.124.736-3.532-.833-3.867-.625-.132-1.352-.029-1.983-.029H8.067c-1.032 0-2.07-.032-3.102 0-.805.025-1.646.206-1.91 1.084-.466 1.558.2 3.886.753 5.327a12.476 12.476 0 003.532 4.996c3.965 3.395 8.658 3.024 13.436 3.024H258c.64 0 1.54-.967.542-.967"/><path fill="#5D7183" d="M106.194 155.725c1.8 2.933 5.079 2.475 8.018 2.475h44.312c3.234 0 7.252.679 9.275-2.502.511-.804-.86-1.11-1.253-.49-1.566 2.46-4.92 1.836-7.454 1.836h-42.673c-2.84 0-7.145.83-8.876-1.991-.375-.611-1.774-.021-1.35.672"/><path fill="#FFF" d="M37.113 147.283h199.85V30.708H37.113z"/><path fill="#5D7183" d="M237.03 30.173H45.322c-2.59 0-5.228-.147-7.815 0-.108.006-.218 0-.326 0-.285 0-.816.249-.816.593V142.58c0 1.46-.214 3.105 0 4.554.01.066 0 .14 0 .207 0 .382.359.477.682.477h191.709c2.59 0 5.229.147 7.815 0 .108-.006.218 0 .326 0 .286 0 .817-.249.817-.593V35.411c0-1.46.214-3.105 0-4.554-.01-.066 0-.14 0-.207 0-.766-1.499-.54-1.499.116v114.776c0 .422-.153 1.192 0 1.592.02.052 0 .149 0 .207l.817-.594H40.18c-.822 0-1.868-.177-2.675 0-.099.022-.223 0-.326 0l.682.478V32.45c0-.424.153-1.193 0-1.593-.02-.052 0-.149 0-.207l-.816.594h191.709c2.59 0 5.229.147 7.815 0 .108-.006.218 0 .326 0 .84 0 1.14-1.071.135-1.071"/><path fill="#D6D1E8" d="M71.596 135.615l.134-83.02 131.237.212-.133 83.019-131.238-.211"/><path fill="#E5E1F6" d="M80.479 126.869c-3.11-2.912-2.478-8.293-2.305-12.108.227-5.003.294-10.01.346-15.018.086-8.19.066-16.382-.058-24.572-.055-3.64-.026-7.302-.311-10.933-.079-.999-2.096-11.216-2.104-11.21 2.488-1.631 9.745-.41 13.021-.404l13.76.022 36.342.058 60.827.098 2.97.005-.015 9.852-.06 36.422-.028 17.686c-.007 4.637-.767 9.604-.587 14.109-12.274 1.95-25.437.55-37.767-.12-13.113-.713-26.239-1.21-39.37-1.328-12.787-.116-26.228 1.595-38.903-.302-1.803-.27-3.625-.727-5.131-1.754a5.179 5.179 0 01-.627-.503"/><path fill="#D6D1E8" d="M71.73 52.596l131.237.211-63.184 53.671a4.72 4.72 0 01-5.938.14l-56.69-43.72-5.425-10.302"/><path fill="#E5E1F6" d="M71.73 52.596l131.237.211-65.274 51.291L71.73 52.596"/><path fill="#5D7183" d="M70.99 52.812l-.045 28.105-.072 44.725-.017 10.17c0 .16.352.156.435.156l13.047.021 31.333.05 37.912.062 32.78.053c5.29.008 10.655.283 15.94.025.074-.003.15 0 .225 0 .292 0 1.044-.157 1.046-.551l.045-18.307a280556788.704 280556788.704 0 01.088-35.781c0-.338-1.479-.099-1.48.396l-.045 18.308-.072 29.036-.017 6.745 1.046-.552-13.047-.022-31.334-.05-37.912-.061-32.78-.053-10.84-.017-3.323-.006c-.519 0-1.272-.143-1.776-.002-.064.018-.157 0-.225 0l.434.154.046-28.105.072-44.725.016-10.17c0-.338-1.48-.1-1.48.396"/><path fill="#5D7183" d="M174.377 74.657l-32.707 25.7-4.576 3.596 1.284-.153-22.296-17.409-35.527-27.738-8.14-6.356-.965.747 33.25.053 53.016.086 12.19.02c.595 0 1.558-.895.561-.897l-33.25-.054-53.016-.085-12.19-.02c-.202 0-1.433.382-.966.747l22.296 17.408a3583550.273 3583550.273 0 0043.667 34.094c.384.3.938.12 1.285-.153l32.706-25.7 4.577-3.596c.673-.53-.794-.609-1.2-.29"/><g transform="translate(-.039)"><use fill="#000" filter="url(#graphic-a)" xlink:href="#graphic-b"/><use fill="#1297F9" xlink:href="#graphic-b"/></g><path fill="#5D7183" d="M27.102 11.807c-2.456-3.581-4.68-7.27-6.285-11.317-.2-.503-1.662-.06-1.48.397 1.63 4.11 3.895 7.857 6.39 11.493.272.398 1.708-.088 1.375-.573m-5.949 6.006l-11.22-7.43c-.393-.26-1.763.321-1.181.706l11.22 7.43c.393.26 1.762-.32 1.18-.706m-4.309 7.312a141.457 141.457 0 00-12.809-1.752c-.6-.054-1.56.797-.563.887 4.185.38 8.343.949 12.476 1.708.503.092 1.745-.687.896-.843"/><path fill="#FFF" d="M202.468 50.274v7.303l2.553 1.608a.66.66 0 00.28 0l10.985-7.406c0-.877-.818-1.505-1.28-1.505h-12.538z"/><path fill="#FFF" d="M202.468 60.302l2.33 1.6c.328.241.723 0 .723 0-.394.241 10.766-7.171 10.766-7.171v13.423c0 1.461-.935 2.074-1.987 2.074h-11.833v-9.926h.001zm-12.06-3.367c-.793 0-1.426.373-1.893 1.118-.467.745-.701 1.73-.701 2.957 0 1.246.234 2.23.701 2.954.467.725 1.08 1.085 1.837 1.085.781 0 1.401-.352 1.858-1.056.457-.704.687-1.681.687-2.93 0-1.303-.221-2.317-.666-3.042-.444-.724-1.051-1.086-1.823-1.086z"/><path fill="#FFF" fill-rule="nonzero" d="M179.358 46.565v28.573l21.736 4.557V42.358l-21.736 4.207zm14.545 19.117c-.919 1.208-2.116 1.814-3.594 1.814-1.44 0-2.613-.586-3.52-1.757-.906-1.172-1.36-2.698-1.36-4.58 0-1.987.46-3.594 1.38-4.821.922-1.227 2.142-1.841 3.661-1.841 1.435 0 2.596.586 3.48 1.76.887 1.176 1.33 2.724 1.33 4.647.001 1.976-.459 3.569-1.377 4.778z"/></g></symbol><symbol id="handle"><path d="M0 4c0-1.105.89-2 2.004-2h20.992C24.103 2 25 2.888 25 4c0 1.105-.89 2-2.004 2H2.004A1.997 1.997 0 010 4zm0 8c0-1.105.89-2 2.004-2h20.992c1.107 0 2.004.888 2.004 2 0 1.105-.89 2-2.004 2H2.004A1.997 1.997 0 010 12zm0 8c0-1.105.89-2 2.004-2h20.992c1.107 0 2.004.888 2.004 2 0 1.105-.89 2-2.004 2H2.004A1.997 1.997 0 010 20z" fill="#000" fill-rule="evenodd"/></symbol><symbol id="handle4"><path d="M1.5 13a1.5 1.5 0 110-3 1.5 1.5 0 010 3zm0-10a1.5 1.5 0 110-3 1.5 1.5 0 010 3zm0 15a1.5 1.5 0 110-3 1.5 1.5 0 010 3zm0-10a1.5 1.5 0 110-3 1.5 1.5 0 010 3zm5 5a1.5 1.5 0 110-3 1.5 1.5 0 010 3zm0-10a1.5 1.5 0 110-3 1.5 1.5 0 010 3zm0 15a1.5 1.5 0 110-3 1.5 1.5 0 010 3zm0-10a1.5 1.5 0 110-3 1.5 1.5 0 010 3z" fill="#DBDBDB" fill-rule="evenodd"/></symbol><symbol id="handle5-no-color"><path d="M1.5 18a1.5 1.5 0 110-3 1.5 1.5 0 010 3zm0-10a1.5 1.5 0 110-3 1.5 1.5 0 010 3zm0-5a1.5 1.5 0 110-3 1.5 1.5 0 010 3zm0 20a1.5 1.5 0 110-3 1.5 1.5 0 010 3zm0-10a1.5 1.5 0 110-3 1.5 1.5 0 010 3zm5 5a1.5 1.5 0 110-3 1.5 1.5 0 010 3zm0-10a1.5 1.5 0 110-3 1.5 1.5 0 010 3zm0-5a1.5 1.5 0 110-3 1.5 1.5 0 010 3zm0 20a1.5 1.5 0 110-3 1.5 1.5 0 010 3zm0-10a1.5 1.5 0 110-3 1.5 1.5 0 010 3z"/></symbol><symbol id="handle5"><path d="M1.5 18a1.5 1.5 0 110-3 1.5 1.5 0 010 3zm0-10a1.5 1.5 0 110-3 1.5 1.5 0 010 3zm0-5a1.5 1.5 0 110-3 1.5 1.5 0 010 3zm0 20a1.5 1.5 0 110-3 1.5 1.5 0 010 3zm0-10a1.5 1.5 0 110-3 1.5 1.5 0 010 3zm5 5a1.5 1.5 0 110-3 1.5 1.5 0 010 3zm0-10a1.5 1.5 0 110-3 1.5 1.5 0 010 3zm0-5a1.5 1.5 0 110-3 1.5 1.5 0 010 3zm0 20a1.5 1.5 0 110-3 1.5 1.5 0 010 3zm0-10a1.5 1.5 0 110-3 1.5 1.5 0 010 3z" fill="#DBDBDB"/></symbol><symbol id="handle6"><path d="M1.5 18a1.5 1.5 0 110-3 1.5 1.5 0 010 3zm0-10a1.5 1.5 0 110-3 1.5 1.5 0 010 3zm0-5a1.5 1.5 0 110-3 1.5 1.5 0 010 3zm0 20a1.5 1.5 0 110-3 1.5 1.5 0 010 3zm0-10a1.5 1.5 0 110-3 1.5 1.5 0 010 3zm0 15a1.5 1.5 0 110-3 1.5 1.5 0 010 3zm5-10a1.5 1.5 0 110-3 1.5 1.5 0 010 3zm0-10a1.5 1.5 0 110-3 1.5 1.5 0 010 3zm0-5a1.5 1.5 0 110-3 1.5 1.5 0 010 3zm0 20a1.5 1.5 0 110-3 1.5 1.5 0 010 3zm0-10a1.5 1.5 0 110-3 1.5 1.5 0 010 3zm0 15a1.5 1.5 0 110-3 1.5 1.5 0 010 3z" fill="#DBDBDB" fill-rule="evenodd"/></symbol><symbol id="local-storage-blocked"><g fill="none" fill-rule="evenodd"><text fill="#FFF" font-family="GothamPro-Medium, Gotham Pro" font-size="12" font-weight="400" letter-spacing="-.436"><tspan x="78.871" y="88">Create</tspan></text><path fill="#D63E53" d="M75.5 24.727c-.93 0-1.774.52-2.26 1.39L46.002 74.84a3.107 3.107 0 00-.013 3.019c.49.899 1.32 1.413 2.273 1.413h54.475c.956 0 1.784-.514 2.274-1.413a3.107 3.107 0 00-.013-3.02L77.76 26.118c-.486-.87-1.33-1.39-2.26-1.39zM102.737 82H48.262c-1.883 0-3.577-1.04-4.528-2.785a5.917 5.917 0 01.026-5.754l27.237-48.724C71.955 23.023 73.637 22 75.5 22s3.546 1.023 4.502 2.737L107.24 73.46a5.92 5.92 0 01.027 5.754c-.952 1.745-2.646 2.785-4.53 2.785z"/><path fill="#D63E53" d="M75 71c-1.654 0-3-1.346-3-3s1.346-3 3-3 3 1.346 3 3-1.346 3-3 3m0-8c-.553 0-1-.616-1-1.375v-19.25c0-.759.447-1.375 1-1.375.553 0 1 .616 1 1.375v19.25c0 .759-.447 1.375-1 1.375"/><path fill="#E3E3E3" d="M3.633 171.992c-2.404.379-3.286.827-2.127 1.357 8.06 3.688 44.142 3.618 61.645 3.634 22.016.02 44.924.143 64.742-.73 8.293-.365 27.09-.688 30.3-1.929 8.418-3.26-51.578-4.228-61.287-4.284-16.186-.093-79.545-.209-93.273 1.952"/><path fill="#F9E280" d="M145.819 116.56c.412 2.135.647 4.3.758 6.47.24 4.701-.207 9.407-.328 14.106a207.41 207.41 0 00.046 11.457c.058 1.993.138 3.986.206 5.979.064 1.835.384 3.854.197 5.679.132 3.808.533 7.725.12 11.525-.077.712-.142 1.912-.811 2.373-2.191 1.512-5.603-9.463-5.986-10.543-.48-1.352-.92-2.719-1.419-4.064a225.042 225.042 0 01-4.591-13.701c-.692-2.308-1.267-4.652-1.964-6.957-.496-1.642-1.51-5.331-3.581-5.485-1.95-.145-2.883 2.78-3.624 4.162-3.939 7.348-6.849 15.083-9.747 22.873-1.106 2.971-2.205 5.948-3.437 8.87-.816 1.938-1.637 4.075-2.968 5.736-.326.407-.832 1.031-1.432.953-3.32-.43.893-19.155 1.663-32.626.554-9.698 1.32-18.689 2.15-28.367l34.748 1.56"/><path fill="#FFF0A9" d="M112.902 143.416c.317-5.617.699-11.002 1.118-16.416 4.954 2.127 10.317 3.051 15.626 3.506 3.436.294 6.835.204 10.278.232 2.67.022 5.26-.065 7.813-.824-.1 2.35-.238 4.7-.303 7.048-.107 3.858-.093 7.72-.005 11.576.046 2.013.11 4.026.166 6.04.051 1.853.338 3.892.158 5.736.106 3.846.46 7.802.063 11.644-.135 1.301-.942 2.245-1.693.701-.864-1.776-1.46-3.953-2.088-5.84a475.078 475.078 0 00-2.575-7.54c-2.637-7.513-4.697-15.212-7.544-22.665-.787-2.058-1.988-3.264-4.152-3.418-.644-.045-1.264.32-1.697.813-.432.494-.708 1.109-.978 1.713-2.3 5.145-4.644 10.247-6.647 15.525l-3.682 9.704c-1.057 2.786-1.842 6.07-3.287 8.636-.477.847-.955 1.696-1.317 2.601-.349.874-.598 1.815-1.176 2.55-.116.146-.28.295-.46.255-.917-.205-.353-5.062-.302-5.768.185-2.568.485-5.127.79-7.683.718-6.029 1.552-12.057 1.894-18.126"/><path fill="#6A79A8" d="M145.6 116.999c1.419 7.59.47 15.23.381 22.881-.044 3.79.04 7.579.173 11.366.063 1.802.112 3.603.249 5.401.142 1.867.06 3.721.152 5.59.167 3.374.561 6.956-.069 10.305-.048.254-.288 1.233-.36 1.254-.18.052-.963-.756-1.19-1.045-.875-1.118-1.352-2.519-1.846-3.83-2.591-6.87-5.07-13.83-7.256-20.838-1.026-3.291-1.855-6.637-2.871-9.93-.51-1.652-1.262-4.355-3.227-4.836-1.97-.481-3.337 1.212-4.115 2.735-1.441 2.821-2.875 5.652-4.176 8.54-3.053 6.777-5.48 13.794-8.152 20.72-.61 1.584-1.25 3.154-1.908 4.719-.278.662-.555 1.324-.862 1.973-.41.867-.944 2.266-1.71 2.866-.467.368-.538.562-.967-.007-.1-.133-.168-.363-.224-.525-.24-.694-.28-1.442-.308-2.168-.077-2.065.165-4.142.371-6.194.832-8.247 2.146-16.41 2.648-24.692.529-8.707 1.267-17.4 2.013-26.091.032-.38-1.19-.136-1.217.19-.666 7.759-1.327 15.518-1.837 23.288-.261 3.976-.48 7.947-.919 11.91-.451 4.063-1.038 8.11-1.524 12.169-.422 3.521-1.207 7.469-.664 11.008.115.75.367 1.874 1.2 2.164.798.278 1.71-.238 2.26-.769 1.13-1.09 1.833-2.725 2.453-4.128a129.46 129.46 0 002.07-5.024c1.44-3.674 2.767-7.39 4.174-11.076 2.518-6.59 5.284-13.11 8.635-19.333.275-.51.699-1.4 1.276-1.65.755-.328 1.422.336 1.836.859.78.985 1.197 2.247 1.569 3.428 1.111 3.527 1.987 7.122 3.097 10.651a359.56 359.56 0 007.328 20.955c.596 1.553 1.777 4.956 4.033 4.502 2.084-.418 1.814-3.711 1.864-5.26.066-2.072-.043-4.144-.149-6.213-.107-2.11-.028-4.217-.184-6.323-.32-4.329-.406-8.693-.443-13.033-.077-8.922 1.276-17.994-.377-26.835-.058-.313-1.293-.03-1.227.326"/><path fill="#F2F2F2" d="M153.421 124.768c-11.67 1.458-23.576 3.084-35.291 1.395-2.093-.302-4.212-.73-6.198-1.565-1.47-.618-3.12-1.572-3.703-3.355-.21-.643-2.398.132-2.219.682 1.094 3.346 5.322 4.288 7.991 4.854 3.33.705 6.706.91 10.08 1.112 7.072.422 14.206-.462 21.241-1.215 2.386-.256 4.771-.523 7.153-.82.355-.045 1.321-.171 1.482-.62.155-.435-.128-.519-.536-.468"/><path fill="#F2F2F2" d="M106.847 122.21a58.6 58.6 0 00-1.347-.616c-.772-.338-1.806-.614-2.29-1.41-.521-.857.074-2.545.221-3.462.226-1.408.472-2.813.738-4.213 1.425-7.51 3.153-15.028 5.275-22.35.44-1.521.904-3.035 1.395-4.538 2.577-7.883 9.407-29.154 23.277-22.27 10.395 5.16 15.419 25.798 17.831 45.941.806 6.733 1.727 10.681 2.053 16.707.017.322-16.745 1.758-17.951 1.845-6.884.499-13.808-.191-20.446-2.197-2.333-.705-4.617-1.584-6.86-2.565-.637-.278-1.266-.577-1.896-.872"/><path fill="#FFF" d="M108.694 121.305c-.43-.207-.86-.412-1.294-.607-.741-.334-1.734-.605-2.199-1.39-.5-.846.073-2.513.215-3.418a151.1 151.1 0 01.713-4.16c1.375-7.415 3.042-14.837 5.087-22.069.425-1.501.871-2.996 1.345-4.48.91-2.853 1.85-5.697 2.991-8.469.641-1.556 1.829-3.221 2.248-4.825.449-1.72.119-3.18 1.223-4.792.808-1.18 1.98-2.093 3.286-2.687 4.357-1.98 7.987-3.6 12.637-1.231 9.984 5.084 14.794 25.454 17.095 45.338.77 6.646 1.65 10.543 1.959 16.49.016.318-16.091 1.75-17.25 1.838-6.616.498-13.268-.178-19.645-2.152-2.241-.694-4.435-1.56-6.59-2.527-.611-.274-1.216-.568-1.821-.86"/><path fill="#6A79A8" d="M106.022 122.612c-1.64-.76-4.018-1.167-3.747-3.413.23-1.903.698-3.831 1.052-5.717a258.655 258.655 0 012.78-12.972c1.56-6.457 3.362-12.87 5.625-19.12 1.646-4.547 3.597-9.13 6.525-13.022 2.867-3.81 6.927-6.843 11.928-5.488 5.454 1.477 9.005 6.281 11.446 11.063 3.252 6.37 5.11 13.43 6.549 20.395 1.626 7.873 2.477 15.864 3.647 23.81.246 1.677.478 3.357.651 5.044.09.865-.01 1.986.238 2.809l.013.211c-.056.205.023.289.238.252.41 1.169.225-.203.174.053a1.022 1.022 0 00-.216.038c-1.594.428-3.43.42-5.066.584-4.006.4-8.017.77-12.03 1.087-8.125.641-16.343-.383-24.002-3.178-1.974-.72-3.902-1.549-5.805-2.436-.303-.14-1.418.323-.982.526 8.367 3.899 17.27 6.01 26.535 5.854 4.486-.076 8.985-.618 13.448-1.04 2.21-.209 4.422-.413 6.625-.69.541-.068 1.125-.106 1.65-.264 1.001-.301.66-.978.588-1.944-.292-3.942-.958-7.838-1.513-11.749-.621-4.382-1.106-8.777-1.836-13.144-1.326-7.936-3.074-15.956-6.23-23.394-2.2-5.185-5.347-10.833-10.617-13.444-4.435-2.198-9.344-1.628-13.166 1.492-3.914 3.194-6.389 7.963-8.335 12.519-2.35 5.5-4.103 11.29-5.67 17.05a242.488 242.488 0 00-3.364 14.083 218.805 218.805 0 00-1.375 7.083c-.163.93-.307 1.862-.51 2.785-.158.728-.424 1.671-.154 2.407.505 1.373 2.738 1.846 3.924 2.396.303.14 1.417-.324.982-.526"/><path fill="#FFF0A9" d="M138.546 66.262c-.969-.912-2.018.794-2.482 1.466-.918 1.326-2.175 2.282-3.43 3.28-1.831 1.455-3.838 2.69-6.003 3.576-.943.386-2.447 1.158-3.48 1.098-.54-.031-1.413-.876-1.845-1.323a10.284 10.284 0 01-2.275-3.62 9.487 9.487 0 01-.508-2.141c-.073-.634.143-1.545-.061-2.123-.595-1.677-1.447 1.622-1.46 2.127-.035 1.447.271 2.9.751 4.258a18.642 18.642 0 002.433 4.653c-.027-.037 2.314-1.026 2.469-1.089.098-.04.785 2.364.849 2.576 5.459-1.056 11.922-3.994 14.774-9.099.502-.9 1.19-2.77.268-3.639"/><path fill="#FFF" d="M119.93 64.548c1.065 2.215 2.627 4.21 5.048 4.428 1.745.157 3.484-.475 4.97-1.406 3.269-2.048 5.476-5.493 6.742-9.142 1.431-4.127 2.276-8.67 2.309-13.17.022-3.065-.333-6.11-1.137-8.99-1.271-4.554-4.374-11.322-10.016-11.268-6.098.06-10.953 9.226-10.844 20.474l.02 2.015c.06 6.237.631 10.577 1.587 13.593.337 1.064.76 2.295 1.322 3.466"/><path fill="#F9AB98" d="M145.354 46.67c4.777-5.962 4.127-14.317-.967-19.9-1.486-1.628-2.845-2.815-2.054-5.215.88-2.67 4.121-3.753 6.757-3.482 2.529.26 4.854 1.67 6.557 3.567 1.702 1.897 2.828 4.255 3.614 6.685a29.643 29.643 0 01.303 17.117c1.31-2.275 2.448-4.655 3.338-7.128 2.085-5.795 3.387-12.111 3.043-18.298-.287-5.137-1.463-11.034-4.882-15.036-5.42-6.348-16.132-6.62-22.084-.859-1.72 1.664-2.896 4.042-2.913 6.468-.017 2.439 1.387 5.25-.15 7.518-.684 1.007-1.844 1.608-3.03 1.863-2.458.53-4.772.721-7.172 1.668-2.469.974-4.888 2.25-6.858 4.058-1.647 1.51-4.1 4.485-3.836 6.908.468 4.288 7.28 6.76 10.852 6.662 4.389-.121 8.641-.501 11.998 2.9a14.01 14.01 0 012.619 3.7c.206.422 1.696 3.835 1.243 4.134a15.932 15.932 0 003.622-3.33"/><path fill="#6A79A8" d="M135.475 65.71c2.22-2.992 3.466-6.46 4.335-10.054.953-3.944 1.37-8.033 1.118-12.086-.349-5.62-2.009-12.401-6.34-16.374-3.608-3.308-8.507-2.72-11.771.7-4.187 4.386-5.583 11.196-5.758 17.044-.208 6.927.005 14.34 2.784 20.793.23.535 1.448.182 1.229-.329-2.337-5.426-2.707-11.317-2.768-17.156-.06-5.794.437-11.72 3.3-16.893 1.098-1.986 2.624-3.979 4.726-4.973 2.203-1.042 4.659-.555 6.564.887 4.088 3.094 5.867 9.109 6.542 13.947.586 4.204.352 8.516-.463 12.675-.792 4.048-2.039 8.12-4.523 11.47-.462.623.696.792 1.025.35m-12.28 4.019c1.34.77 2.924 1.21 4.684 1.269.374.012.922-.074 1.081-.34.146-.243-.13-.443-.499-.456-1.537-.051-2.817-.44-3.983-1.11-.542-.311-2.001.223-1.283.636"/><path fill="#6A79A8" d="M124 56.483c.299.505.946.946 1.785 1.216 1.169.377 2.616.431 3.728-.019.491-.198.888-.467 1.147-.769.126-.146.22-.3.276-.459a.92.92 0 00.054-.452c-.405.314-1.057.602-1.79.726-1.405.236-3.709.483-4.864-.17-.08-.045-.16-.096-.27-.117l-.066.044"/><path fill="#FFF" d="M139.62 85.661c-.477-.775-.712-1.823-.587-2.947.244-2.198 1.77-3.857 3.409-3.704 1.638.152 2.769 2.058 2.525 4.256-.122 1.1-.565 2.064-1.181 2.734l-4.165-.339"/><path fill="#6A79A8" d="M140.805 84.208a5.494 5.494 0 01-.442-3.828c.3-1.234 1.281-3.232 2.884-2.503.974.443 1.403 1.787 1.53 2.747.191 1.453-.188 2.943-1.092 4.104-.321.412.914.308 1.15.005 1.65-2.12 1.981-7.809-1.926-7.732-3.633.071-4.698 4.889-3.344 7.536.204.399 1.408-.001 1.24-.33"/><path fill="#6A79A8" d="M141.671 83.402c-.128 2.172-.025 4.385-.474 6.533-.499 2.382-1.87 4.263-4.05 5.746-.585.399.739.386 1.061.168 2.078-1.414 3.57-3.217 4.177-5.478.624-2.32.475-4.759.615-7.124.026-.451-1.307-.214-1.329.155M118 67.746c.021 2.771 1.293 5.25 3.183 7.194.275.283.77.93 1.182 1.039.428.114 1.199-.269 1.574-.38 2.138-.632 4.32-1.212 6.275-2.32 3.097-1.757 5.876-4.175 7.784-7.236.051-.083-.771-.056-.914.173-2.026 3.25-5.233 6.115-8.72 7.65-1.796.791-3.768 1.267-5.65 1.804l.473-.024c-2.503-1.878-4.234-4.98-4.258-8.153-.001-.132-.931-.002-.929.253"/><path fill="#6A79A8" d="M123.005 75.606l.714 2.285c.046.148.41.109.517.089 4.447-.858 8.744-2.522 12.241-5.231 1.571-1.217 3.203-2.71 4.106-4.435.677-1.292.704-3.222-1.251-3.314-.301-.014-1.433.484-.797.514 2.335.11.797 3.15.113 4.039-1.01 1.313-2.262 2.481-3.626 3.484-3.067 2.255-6.742 3.72-10.572 4.457l.518.089-.714-2.285c-.094-.3-1.341.013-1.25.308"/><path fill="#6A79A8" d="M123.145 75.271c-.826.39-1.737.58-2.564.972l.816.079c-2.081-2.876-4.302-7.377-2.548-10.868.295-.589-.92-.578-1.148-.123-1.872 3.73.353 8.407 2.592 11.502.17.234.594.184.815.08.827-.391 1.737-.581 2.564-.972.74-.35.079-.956-.527-.67m14.767 19.369c-4.711 3.203-10.621 3.17-15.477.274-1.982-1.182-4.207-3.053-4.127-5.446.037-1.133 1.076-1.762 1.316-2.824.22-.976-.158-1.866-.92-2.524-.442-.383-1.52.232-.967.71 1.632 1.412-.223 2.632-.617 4.017-.309 1.089.012 2.31.578 3.273 1.18 2.01 3.366 3.433 5.522 4.419 5.138 2.348 10.92 1.834 15.546-1.311.692-.47-.32-.95-.854-.588m-28.938-10.118c-2.188 1.687-4.744 3.075-7.358 3.675-2.45.563-4.986.11-7.31-.847a20.685 20.685 0 01-3.348-1.78c-.867-.56-2.192-1.235-2.842-2.102-.73-.974-.016-2.125-.032-3.249-.012-.79-.425-.992-1.05-1.207-.283-.097-1.327.411-.955.539 1.49.513.408 2.235.53 3.524.108 1.119 1.583 1.808 2.34 2.341 2.2 1.555 4.614 2.801 7.181 3.333 4.827.999 9.797-1.102 13.75-4.15.492-.379-.674-.256-.906-.077"/><path fill="#D1D1D1" d="M1.08 114.035c.045-.288 11.295 1.265 13.212 1.643 4.111.81 16.587.558 16.633.557.168-.003.004.927-.012 1.034-.15.982-.364 1.937-.576 2.882-.33 1.473-.686 2.93-1.05 4.379a375.114 375.114 0 01-1.434 5.525 610.308 610.308 0 01-3.667 13.09 554.158 554.158 0 01-2.053 6.865 424.93 424.93 0 01-2.083 6.61 268.128 268.128 0 01-2.02 6.007 136.08 136.08 0 01-1.872 5.053c-.51 1.288-1.041 2.561-1.632 3.747-.623 1.253-1.39 2.797-2.571 2.546-1.913-.408-2.13-3.746-2.648-5.977-.738-3.178-1.484-6.353-2.164-9.56-.464-2.186-.89-4.396-1.31-6.608-.423-2.23-.758-4.547-1.236-6.744-.008-.044-.017-.09-.024-.136-1.183-6.672-2.15-13.427-2.833-20.304-.28-2.82-.628-5.61-.723-8.477-.021-.702-.04-1.444.062-2.132"/><path fill="#E5E5E5" d="M1.069 114.035c.04-.288 9.835 1.266 11.504 1.644 3.58.81 13.437.612 13.427.688-.407 2.955-5.638 24.028-6.21 26.276a4103.038 4103.038 0 01-3.882 15.158c-1.19 4.604-2.42 9.18-3.628 13.77-.338 1.281-.711 2.504-1.645 2.425-.759-.063-1.433-1.125-1.67-2.326-.87-4.408-1.795-8.771-2.616-13.218a358.347 358.347 0 01-1.14-6.61c-.37-2.232-.66-4.549-1.077-6.746-.007-.045-.015-.09-.02-.136a306.121 306.121 0 01-2.468-20.312c-.244-2.821-.546-5.612-.63-8.48-.018-.703-.035-1.445.055-2.133"/><path fill="#D1D1D1" d="M11.053 120.28c2.399.116 4.85-.53 7.207-.914 1.704-.43 3.536-.576 5.271-.859 1.747-.284 3.489-.553 5.207-.987 2.521-.624 5.02-1.346 7.506-2.095 1.53-.46 3.056-.932 4.576-1.423.162-.052.27.888.286.996.137.985.203 1.966.268 2.935.102 1.51.175 3.012.238 4.51.08 1.914.141 3.822.192 5.725a602.833 602.833 0 01.194 13.64c.006 2.404-.002 4.802-.027 7.192a419.724 419.724 0 01-.127 6.957 264.677 264.677 0 01-.241 6.359 134.724 134.724 0 01-.37 5.399c-.127 1.386-.278 2.764-.513 4.077-.247 1.386-.55 3.094-1.775 3.201-1.985.174-3.158-2.965-4.306-4.953-1.636-2.831-3.278-5.657-4.867-8.533a310.215 310.215 0 01-3.182-5.953c-.802-1.53-1.421-3.408-2.435-4.8-.456-.628-1.111-1.077-1.754-1.491-.659-.423-1.443-.306-2.214-.34-.158-.006-.322-.015-.46-.09-.155-.085-.256-.24-.35-.389-1.952-3.085-4.071-6.104-5.677-9.404-1.355-2.784-2.367-5.779-2.637-8.879-.289-3.318-.717-6.651-1.063-9.973 0 .03.498.066 1.053.093"/><path fill="#E5E5E5" d="M14.42 119.222c1.93.105 3.842-.025 5.807-.191 2.968-.25 5.935-.85 8.815-1.596.58-.15 8.622-2.214 8.59-2.435.42 2.954.948 24.76.99 27.092.093 5.243.182 10.486.253 15.723.065 4.78.082 9.544.124 14.316.011 1.333-.032 2.62-1.04 2.843-.82.181-1.837-.618-2.432-1.69-2.184-3.935-4.414-7.809-6.559-11.796a324.062 324.062 0 01-3.102-5.953c-1.566-3.062-3.055-5.795-5.052-8.585-2.148-3.004-4.19-6.082-6.232-9.158-.58-.873-1.16-1.749-1.633-2.684-.46-.911-.844-2.04-1.715-2.65-.291-.204-.623-.339-.927-.522-.971-.587-1.592-1.637-1.896-2.732-.464-1.668-.368-3.46-.401-5.175-.02-1.069-.022-2.144.12-3.205.09-.675.1-1.56.56-2.108.656-.78 2.233.041 3.065.195.896.165 1.782.263 2.664.31"/><path fill="#6A79A8" d="M21.776 149.207c-1.677 5.674-3.405 11.343-5.412 16.907-.897 2.487-1.73 5.407-3.267 7.584-1.573 2.227-2.585-2.622-2.777-3.642-1.037-5.513-2.423-10.955-3.453-16.473-1.058-5.677-2.061-11.372-2.872-17.091a269.054 269.054 0 01-1.21-9.809c-.367-3.512-.451-7.012-.56-10.54-.009-.307-1.238-.087-1.225.333.103 3.36.165 6.7.507 10.045.336 3.28.736 6.552 1.193 9.816.892 6.363 2.012 12.7 3.21 19.011a298.89 298.89 0 001.952 9.363c.564 2.524.95 5.16 1.663 7.644.418 1.46 1.337 3.04 3.084 2.556 1.938-.537 2.758-3.332 3.436-4.968 2.808-6.772 4.872-13.892 6.949-20.92.104-.352-1.11-.185-1.218.184"/><path fill="#6A79A8" d="M27.025 116.496c4.152-1.017 8.254-2.27 12.318-3.6l-.573-.078c.132.084.186 1.148.2 1.266.126 1.087.188 2.181.252 3.273.115 1.934.192 3.87.258 5.806.129 3.75.204 7.502.248 11.255.087 7.432.068 14.872-.2 22.3-.138 3.793-.286 7.62-.801 11.384-.133.971-.26 4.205-1.735 3.899-1.151-.24-1.99-2.262-2.465-3.167-1.599-3.05-3.387-5.999-5.05-9.014-1.73-3.139-3.294-6.373-5.075-9.482-1.906-3.326-4.087-6.469-6.388-9.523-2.375-3.15-4.754-6.347-5.804-10.231-.159-.588-1.355-.264-1.195.325 1.154 4.27 3.868 7.717 6.457 11.185 2.737 3.665 5.227 7.495 7.349 11.561a380.846 380.846 0 007.003 12.804c.931 1.629 1.7 3.456 2.813 4.966.713.966 1.748 1.807 3.01 1.517 1.343-.31 1.73-1.762 1.972-2.961.439-2.163.615-4.383.773-6.581.362-5.003.48-10.026.547-15.041.133-9.942.073-19.915-.435-29.846a105.757 105.757 0 00-.243-3.788c-.051-.582.015-1.99-.414-2.496-.443-.521-1.356-.012-1.858.149-3.7 1.181-7.424 2.314-11.196 3.238-.749.183-.514 1.062.232.88"/><path fill="#6A79A8" d="M30.011 122.524c1.158 2.515 3.188 4.428 5.764 5.453.348.139 1.6-.397 1.115-.59a10.15 10.15 0 01-5.503-5.23c-.183-.398-1.523.048-1.376.367"/><path fill="#F2F2F2" d="M19.899 61.623c-.156.02-.31.04-.466.063-2.154.31-4.623.824-6.264 2.333a8.562 8.562 0 00-.747.8c-.242.288-.476.582-.702.882-1.926 2.554-2.986 5.345-3.81 8.387-.882 3.255-1.746 6.474-2.468 9.772-1.286 5.869-2.191 11.813-2.928 17.772a451.1 451.1 0 00-1.002 8.958c-.237 2.287-.93 5.077-.155 7.33.795 2.312 9.59 2.575 11.46 2.79 9.966 1.142 19.716-1.252 29.183-4.251-.261-3.115-.514-6.23-.794-9.344C40.12 95.052 39.2 82.19 34.812 70.779c-1.324-3.443-3.293-7.895-6.994-9.397-.88-.357-1.839-.432-2.78-.354-.893.075-1.735.29-2.632.356a44.74 44.74 0 00-2.507.239"/><path fill="#FFF" d="M19.211 60.322c-3.583.77-7.033 2.875-9.171 5.77-2.116 2.864-3.138 6.369-3.97 9.825-2.375 9.853-4.495 20.687-4.782 30.818-.096 3.382-.256 6.768-.288 10.151-.029 3.066 18.26 3.396 22.732 2.957 5.44-.534 15.268-3.68 15.268-3.68-.756-9.005-1.175-18.036-2.162-27.023-.872-7.931-1.65-17.176-5.772-24.23-2.574-4.402-7.321-5.563-11.855-4.588"/><path fill="#FFF" d="M34.923 46.805c.723-11.638-3.752-21.395-9.995-21.792-6.243-.398-11.89 8.715-12.612 20.353l-.13 2.086c-.4 6.453-.137 10.984.617 14.174 1.02 4.318 4.478 6.825 8.285 8.562 1.554.709 3.328 1.055 4.978.621 1.476-.388 2.746-1.37 3.741-2.54 4.127-4.852 4.608-13.28 4.987-19.378l.13-2.086"/><path fill="#F2F2F2" d="M11.012 65.672a.277.277 0 00.02.21c.095.197.307.346.45.519 2.352 2.848 5.907 4.912 9.97 5.48 2.4.336 4.663-.074 6.722-.798 1.03-.363 2.01-.795 2.984-1.233.533-.24 1.116-.405 1.589-.73.24-.166.293-.248.226-.528-.048-.202-.116-.488-.325-.625-.242-.16-.765.01-.994.104-3.047 1.258-6.416 3.761-10.342 2.602-3.282-.97-6.318-3.113-8.492-5.359-.412-.425-1.131-.403-1.481-.026-.12.128-.283.24-.327.384"/><path fill="#6A79A8" d="M11.152 65.87c2.8 2.454 6.45 4.352 10.062 4.974 4.045.696 7.556-1.086 11.31-2.365.764-.26.55-1.16-.228-.894-3.513 1.197-6.844 2.964-10.637 2.306-3.43-.595-6.866-2.454-9.522-4.78-.423-.371-1.542.271-.985.76"/><path fill="#BBDFF5" d="M37.65 33.815c1.327-.995 2.383-2.355 3.264-3.8.56-.92 1.055-1.885 1.512-2.868.095-.204.675-1.234.559-1.38-.06-.074-.384-.062-.473-.068a3.65 3.65 0 00-.45 0c-.3.019-.598.069-.894.129a36.66 36.66 0 00-1.128.252c-.698.166-1.395.345-2.102.467l2.644-4.281-1.881.24.654-2.103-4.265 2.21.545-3.269-3.146 1.624-1.85-3.212-1.333 1.505-3.17-4.01-1.105 2.398c-.83-1.216-1.658-2.433-2.487-3.649-1.175.578-1.395 2.752-2.455 3.122-1.005.35-3.976-2.349-4.873-2.94l1.89 4.074-4.31-2.266.805 1.89-3.378-1.26 2.428 3.081L8 17.547c1.743 2.165 2.15 5.094 2.443 7.958.165 1.606.765 3.25.747 4.823-.039 1.792-.483 3.519-.448 5.291.039 1.991.238 4.05.267 6.074.007.51.086 1.14.515 1.3.508.192 3.834-4.19 4.594-4.73.68-.483 4.416-2.306 4.531-3.057l-.337 1.695c.631-1.061 2.018-1.535 3.125-1.067 1.086.46 1.354 1.6 1.917 2.496 1.186-.675 2.365-1.247 3.706-1.544 3.007-.664 6.008-1.038 8.59-2.971"/><path fill="#6A79A8" d="M13.492 61.142c-1.595-5.256-1.054-11.137-.702-16.525.375-5.75 1.848-12.068 5.74-16.537 1.417-1.628 3.332-3.089 5.581-3.194 2.093-.099 3.976 1.037 5.346 2.528 3.825 4.163 4.914 10.551 4.937 15.983.013 3.06-.258 6.165-.542 9.21-.347 3.733-.93 7.501-2.466 10.954-.046.104-.05.249.027.342 1.114 1.337 1.708 3.042 2.327 4.65a65.42 65.42 0 011.944 5.909c1.146 4.11 1.933 8.31 2.534 12.53 1.239 8.709 1.833 17.515 2.568 26.276l.492-.584c-7.659 2.414-15.56 4.472-23.653 4.416-2.518-.017-5.035-.293-7.534-.587-2.24-.263-4.556-.547-6.693-1.29-.646-.226-1.596-.525-1.956-1.165-.347-.616-.212-1.56-.175-2.229.131-2.373.56-4.737.968-7.076 1.034-5.93 1.735-11.906 2.795-17.832.787-4.4 1.796-8.743 2.95-13.06 1.073-4.02 2.225-7.849 4.93-11.116.488-.591-.66-.805-1.02-.37-2.267 2.739-3.593 5.905-4.528 9.3-1.111 4.038-2.15 8.096-2.97 12.204-1.329 6.652-2.043 13.395-3.23 20.07-.448 2.52-.918 5.059-1.101 7.614-.111 1.542-.235 3.011 1.257 3.877 1.832 1.063 4.185 1.377 6.248 1.687 2.058.309 4.14.528 6.214.707 9.456.815 18.782-1.485 27.726-4.304.28-.088.518-.27.492-.584-.951-11.342-1.533-22.875-3.93-34.03-.593-2.763-1.314-5.5-2.214-8.18-.757-2.252-1.514-4.954-2.935-6.89-.062-.086-.232-.223-.258-.312-.127-.42.04.058.046-.183.014-.501.541-1.372.702-1.862.373-1.14.666-2.305.904-3.479.497-2.459.748-4.96.931-7.458.338-4.608.648-9.206-.24-13.778-.734-3.772-2.175-7.81-5.051-10.514-2.177-2.045-5.142-2.85-7.998-1.797-3.278 1.21-5.56 4.253-7.086 7.244-2.36 4.625-3.104 9.688-3.423 14.802-.304 4.872-.606 10.213.834 14.956.17.564 1.382.238 1.212-.323"/><path fill="#6A79A8" d="M31.682 56.362c-.255.476-.712 1.013-1.568.955-.854-.058-1.439-.616-1.743-1.11-.253-.41-1.585-.15-1.341.245.526.855 1.542 1.55 2.979 1.548 1.413-.003 2.488-.655 2.956-1.53.266-.497-1.077-.495-1.283-.108"/><path fill="#BBDFF5" d="M33.317 106l.056-.16c.036-.105.097-.262.155-.466.128-.4.271-1.012.333-1.776.033-.382.032-.804.002-1.251a6.6 6.6 0 00-.27-1.388 4.671 4.671 0 00-.66-1.343c-.081-.1-.153-.203-.238-.3l-.308-.368-.303-.337-.331-.356c-.453-.483-.942-1-1.45-1.598a10.07 10.07 0 01-1.417-2.16 7.914 7.914 0 01-.737-2.842l-.016-.189-.007-.196-.01-.312c.003-.242.006-.525.023-.748.022-.474.075-.931.13-1.388.11-.905.275-1.778.408-2.611.065-.417.125-.826.161-1.216.039-.39.071-.768.062-1.11a4.408 4.408 0 00-.105-.93 2.477 2.477 0 00-.284-.692c-.236-.399-.657-.764-1.263-1.072-.076-.036-.145-.08-.224-.117l-.243-.107c-.156-.077-.337-.134-.508-.2l-.13-.049c-.037-.012.032.01.017.005l-.02-.006-.04-.013-.079-.025-.159-.05a2.286 2.286 0 00-.144-.042l-.243-.066-.278-.065a30.723 30.723 0 00-2.437-.411c-.434-.06-.88-.123-1.332-.196a21.401 21.401 0 01-1.383-.286l-.35-.09-.095-.025-.039-.012-.076-.024-.153-.048-.305-.095-.156-.05-.181-.067c-.24-.09-.488-.177-.711-.278l-.65-.304a13.509 13.509 0 01-4.23-3.353 14.601 14.601 0 01-2.44-4.086l-.1-.255-.049-.126-.012-.032-.021-.052-.005-.015-.019-.06-.148-.476-.142-.568c-.044-.184-.062-.358-.09-.533a8.223 8.223 0 01-.025-1.975 8.998 8.998 0 01.364-1.645 9.33 9.33 0 01.538-1.283c.375-.74.756-1.255 1.013-1.6.127-.175.241-.296.31-.383l.108-.128-.235.616c-.15.4-.34.999-.507 1.755-.084.379-.145.8-.189 1.252-.026.455-.041.939.01 1.443.057.503.156 1.023.335 1.54.05.125.091.262.143.382l.157.353.227.44.228.373c.159.273.343.537.521.809.196.26.38.535.6.789.415.523.882 1.026 1.397 1.493 1.015.95 2.24 1.734 3.577 2.284l.51.186c.168.056.323.095.483.15l.12.037c.041.013.1.026.149.038l.31.076.156.039.078.019.038.01c.019.004-.085-.024-.033-.01l.017.003.276.052c.744.13 1.555.21 2.423.3.87.092 1.803.175 2.783.389l.37.083.4.104c.073.018.124.034.176.05l.16.047.196.06.184.066c.246.09.49.166.738.28l.37.16c.123.056.249.123.371.188.492.254.986.587 1.453.992a5.906 5.906 0 011.924 3.311c.12.614.152 1.204.141 1.757-.026 1.106-.221 2.07-.416 2.963l-.57 2.5c-.079.388-.155.77-.202 1.133-.032.194-.039.33-.064.502l-.022.311-.005.078-.003.038c0-.01-.002.05-.001-.018v.015l-.002.12a5.308 5.308 0 00.256 1.843c.373 1.19 1.223 2.335 1.987 3.499l.283.44.281.454.242.422c.098.162.173.337.256.5a6.06 6.06 0 01.514 1.969 7.267 7.267 0 01-.399 3.076 7.235 7.235 0 01-.86 1.711c-.115.186-.225.307-.292.396l-.104.132"/><path fill="#BBDFF5" d="M33.933 64.56l.042.367c.013.12.03.264.023.443-.003.176.004.393-.028.618a5.63 5.63 0 01-.117.76c-.047.282-.145.569-.24.887a8.902 8.902 0 01-1.008 2.002 9.682 9.682 0 01-3.125 2.929l-.365.198-.092.05-.023.012-.012.006-.05.02-.04.02-.319.15c-.054.026-.1.05-.176.079l-.42.163c-1.069.397-2.21.622-3.354.7-1.143.08-2.27.02-3.344-.095a37.268 37.268 0 01-1.573-.21 24.358 24.358 0 01-1.592-.295c-1.061-.23-2.131-.56-3.13-1.027a10.356 10.356 0 01-1.753-1.03l-.313-.244-.077-.06-.01-.008c-.078-.056-.026-.02-.045-.034l-.016-.014-.03-.028-.123-.11a6.559 6.559 0 01-.261-.247l-.292-.293c-.09-.096-.167-.19-.249-.282-.165-.184-.306-.38-.445-.57a8.289 8.289 0 01-.673-1.162 7.39 7.39 0 01-.643-2.175 6.404 6.404 0 01-.008-1.69c.015-.114.025-.222.044-.322l.061-.282.054-.238.062-.196c.075-.232.12-.352.12-.352l.102.355c.03.114.072.254.127.415.053.16.111.342.193.54a8.59 8.59 0 001.764 2.814c.225.242.474.473.742.693.143.102.269.22.418.317.072.049.146.105.216.149l.203.12c.053.035.167.096.259.151l.143.084.037.022.018.01c-.014-.01.044.03-.029-.021l.008.003.063.03c.167.083.336.165.512.24.354.147.72.285 1.111.4.78.234 1.636.404 2.554.541.456.07.936.13 1.413.19l1.47.17c.962.106 1.886.184 2.76.183a12.11 12.11 0 002.732-.292c.038-.004.101-.025.157-.04l.17-.05.17-.05.042-.011-.03.012.008-.002.017-.006.066-.022.267-.085c.176-.065.352-.133.526-.204.17-.082.347-.148.512-.237.67-.337 1.285-.74 1.821-1.164.54-.423.999-.87 1.388-1.295.376-.432.689-.84.921-1.2.23-.356.408-.649.514-.871l.175-.33"/><path fill="#6A79A8" d="M64.124 79.31c-.537.996-.486 1.888-.015 2.898.578 1.24 1.102 2.105-.222 3.113-2.787 2.122-6.11 3.733-9.408 4.913-6.574 2.352-13.888 2.897-20.624.875-3.986-1.197-7.605-3.298-10.67-6.068-.333-.3-1.472.16-1.118.48 11.555 10.441 28.995 9.177 41.455.975 1.048-.69 2.664-1.538 2.46-3.008-.214-1.545-1.619-2.469-.726-4.125.282-.523-.93-.427-1.132-.053"/></g></symbol><symbol id="modal-close-extra" viewBox="0 0 9 14"><path d="M1 1l6 6-6 6" fill="none"/></symbol><symbol id="modal-close" viewBox="0 0 14 14"><g stroke-width="2" fill="none" fill-rule="evenodd" stroke-linecap="round" stroke="silver"><path d="M1 1l12 12M13 1L1 13"/></g></symbol><symbol id="notepad"><g fill="none" fill-rule="evenodd" transform="matrix(.45 0 0 .45 4.95 6.75)"><rect width="16.875" height="21.688" x=".563" y="2.125" stroke="#FFF" rx="2"/><path fill="#FFF" d="M14.45 4.031c.275 0 .5-.384.5-.854V1.448c0-.47-.225-.854-.5-.854s-.5.384-.5.854v1.729c0 .47.225.854.5.854m-3.575 0c.275 0 .5-.384.5-.854V1.448c0-.47-.225-.854-.5-.854s-.5.384-.5.854v1.729c0 .47.225.854.5.854m-3.781 0c.275 0 .5-.384.5-.854V1.448c0-.47-.225-.854-.5-.854s-.5.384-.5.854v1.729c0 .47.225.854.5.854m-3.644 0c.275 0 .5-.384.5-.854V1.448c0-.47-.225-.854-.5-.854s-.5.384-.5.854v1.729c0 .47.225.854.5.854M13.995 19.5h-9.99c-.279 0-.505.154-.505.344 0 .19.226.343.505.343h9.99c.279 0 .505-.153.505-.343 0-.19-.226-.344-.505-.344m0-2.75h-9.99c-.279 0-.505.154-.505.344 0 .19.226.343.505.343h9.99c.279 0 .505-.153.505-.343 0-.19-.226-.344-.505-.344m0-2.75h-9.99c-.279 0-.505.154-.505.344 0 .19.226.344.505.344h9.99c.279 0 .505-.154.505-.344 0-.19-.226-.344-.505-.344M3.5 11.594c0 .19.226.344.505.344h9.99c.279 0 .505-.154.505-.344 0-.19-.226-.344-.505-.344h-9.99c-.279 0-.505.154-.505.344"/><path stroke="#FFF" stroke-linecap="square" d="M1.094 7.813H16.92"/></g></symbol><symbol id="play"><path fill="#FFF" fill-rule="evenodd" d="M8.3 6.514l-8 5.715V.8z"/></symbol><symbol id="plus"><g fill="#fff" fill-rule="evenodd"><rect y="11.5" width="23" height="1.15" rx=".575"/><rect transform="rotate(90 11.5 12.075)" y="11.5" width="23" height="1.15" rx=".575"/></g></symbol><symbol id="print"><g fill="none"><path d="M4.5 7.5h7a1 1 0 011 1v5a1 1 0 01-1 1h-7a1 1 0 01-1-1v-5a1 1 0 011-1z" stroke="silver"/><path stroke="silver" d="M3.5 10.5h-2a1 1 0 01-1-1v-5a1 1 0 011-1h13a1 1 0 011 1v5a1 1 0 01-1 1h-2m-9-7v-2a1 1 0 011-1h7a1 1 0 011 1v2"/><path d="M11.5 4.5v-1m2 1v-1"/></g></symbol><symbol id="remove" viewBox="0 0 16 16"><path d="M8.7 8l5.2-5.1-.8-.8L8 7.3 2.9 2.1l-.8.8L7.3 8l-5.2 5.1.8.8L8 8.7l5.1 5.2.8-.8L8.7 8" fill="#FF80B9" fill-rule="evenodd"/></symbol><symbol id="restore"><g fill-rule="evenodd"><path d="M9.323 0c-4.24 0-7.678 3.405-7.678 7.605H0l2.194 2.716 2.193-2.716H2.742c0-3.594 2.952-6.519 6.58-6.519s6.581 2.925 6.581 6.52c0 3.594-2.952 6.518-6.58 6.518a6.59 6.59 0 01-4.65-1.912l-.779.77a7.69 7.69 0 005.429 2.229c4.24 0 7.677-3.405 7.677-7.606S13.563 0 9.323 0"/><path d="M8.053 3.579h1v5.368h-1z"/><path d="M8.053 8.053h4.473v1H8.053z"/></g></symbol><symbol id="screenshot"><g fill="#FFF" fill-rule="evenodd"><path stroke="#FFF" stroke-width=".3" d="M1.467 11.029h13.31V2.267H1.467v8.762zM14.777 1H1.467A1.27 1.27 0 00.2 2.267v9.079c0 .696.57 1.267 1.267 1.267h13.31a1.27 1.27 0 001.267-1.267V2.267A1.27 1.27 0 0014.777 1z"/><path d="M10.334 13.258H5.91a.16.16 0 00-.158.158v.951c0 .087.071.158.158.158h4.425a.159.159 0 00.159-.158v-.95a.159.159 0 00-.159-.159"/></g></symbol><symbol id="search"><g fill="none" stroke="#d5d6d7" fill-rule="evenodd" stroke-width="2"><circle cx="6" cy="6" r="5"/><path d="M10 10l3 3" stroke-linecap="round"/></g></symbol><symbol id="spinner-search" viewBox="0 0 583.162 583.162"><g fill="#7b68ee"><path d="M279.958 255.742V116.211H163.722L.993 255.742v23.223h255.718zM256.711 304.197H117.228v116.212l139.483 162.753h23.247V327.42zM326.936 278.989h139.482V162.754L326.936 0h-23.247v255.742zM303.205 327.42v139.507H419.44L582.169 327.42v-23.223H326.427z"/></g></symbol><symbol id="spinner"><path d="M8 0a1 1 0 00-1 1v2a1 1 0 002 0V1a1 1 0 00-1-1zm0 12a1 1 0 00-1 1v2a1 1 0 102 0v-2a1 1 0 00-1-1zm4.242-6.828l1.414-1.415a.999.999 0 10-1.414-1.414l-1.414 1.414a1 1 0 101.414 1.415zm-8.485 5.656l-1.414 1.414a.999.999 0 101.414 1.414l1.414-1.414a.999.999 0 10-1.414-1.414zm0-8.485a.999.999 0 10-1.414 1.414l1.414 1.415a1 1 0 001.414-1.415L3.757 2.343zm8.485 8.485a.999.999 0 10-1.414 1.414l1.414 1.414a.999.999 0 101.414-1.414l-1.414-1.414zM15 7h-2a1 1 0 100 2h2a1 1 0 100-2zM4 8a1 1 0 00-1-1H1a1 1 0 000 2h2a1 1 0 001-1z"/></symbol><symbol id="stop"><rect width="8.462" height="8.462" x="1479.5" y="771" fill="#FFF" fill-rule="evenodd" rx="1" transform="translate(-1479 -771)"/></symbol><symbol id="storage-limit"><g fill="none" fill-rule="evenodd"><text fill="#FFF" font-family="GothamPro-Medium, Gotham Pro" font-size="12" font-weight="400" letter-spacing="-.436"><tspan x="78.871" y="88">Create</tspan></text><path fill="#F5A623" d="M75.5 24.727c-.93 0-1.774.52-2.26 1.39L46.002 74.84a3.107 3.107 0 00-.013 3.019c.49.899 1.32 1.413 2.273 1.413h54.475c.956 0 1.784-.514 2.274-1.413a3.107 3.107 0 00-.013-3.02L77.76 26.118c-.486-.87-1.33-1.39-2.26-1.39zM102.737 82H48.262c-1.883 0-3.577-1.04-4.528-2.785a5.917 5.917 0 01.026-5.754l27.237-48.724C71.955 23.023 73.637 22 75.5 22s3.546 1.023 4.502 2.737L107.24 73.46a5.92 5.92 0 01.027 5.754c-.952 1.745-2.646 2.785-4.53 2.785z"/><path fill="#F5A623" d="M75 71c-1.654 0-3-1.346-3-3s1.346-3 3-3 3 1.346 3 3-1.346 3-3 3m0-8c-.553 0-1-.616-1-1.375v-19.25c0-.759.447-1.375 1-1.375.553 0 1 .616 1 1.375v19.25c0 .759-.447 1.375-1 1.375"/><path fill="#E3E3E3" d="M3.633 171.992c-2.404.379-3.286.827-2.127 1.357 8.06 3.688 44.142 3.618 61.645 3.634 22.016.02 44.924.143 64.742-.73 8.293-.365 27.09-.688 30.3-1.929 8.418-3.26-51.578-4.228-61.287-4.284-16.186-.093-79.545-.209-93.273 1.952"/><path fill="#F9E280" d="M145.819 116.56c.412 2.135.647 4.3.758 6.47.24 4.701-.207 9.407-.328 14.106a207.41 207.41 0 00.046 11.457c.058 1.993.138 3.986.206 5.979.064 1.835.384 3.854.197 5.679.132 3.808.533 7.725.12 11.525-.077.712-.142 1.912-.811 2.373-2.191 1.512-5.603-9.463-5.986-10.543-.48-1.352-.92-2.719-1.419-4.064a225.042 225.042 0 01-4.591-13.701c-.692-2.308-1.267-4.652-1.964-6.957-.496-1.642-1.51-5.331-3.581-5.485-1.95-.145-2.883 2.78-3.624 4.162-3.939 7.348-6.849 15.083-9.747 22.873-1.106 2.971-2.205 5.948-3.437 8.87-.816 1.938-1.637 4.075-2.968 5.736-.326.407-.832 1.031-1.432.953-3.32-.43.893-19.155 1.663-32.626.554-9.698 1.32-18.689 2.15-28.367l34.748 1.56"/><path fill="#FFF0A9" d="M112.902 143.416c.317-5.617.699-11.002 1.118-16.416 4.954 2.127 10.317 3.051 15.626 3.506 3.436.294 6.835.204 10.278.232 2.67.022 5.26-.065 7.813-.824-.1 2.35-.238 4.7-.303 7.048-.107 3.858-.093 7.72-.005 11.576.046 2.013.11 4.026.166 6.04.051 1.853.338 3.892.158 5.736.106 3.846.46 7.802.063 11.644-.135 1.301-.942 2.245-1.693.701-.864-1.776-1.46-3.953-2.088-5.84a475.078 475.078 0 00-2.575-7.54c-2.637-7.513-4.697-15.212-7.544-22.665-.787-2.058-1.988-3.264-4.152-3.418-.644-.045-1.264.32-1.697.813-.432.494-.708 1.109-.978 1.713-2.3 5.145-4.644 10.247-6.647 15.525l-3.682 9.704c-1.057 2.786-1.842 6.07-3.287 8.636-.477.847-.955 1.696-1.317 2.601-.349.874-.598 1.815-1.176 2.55-.116.146-.28.295-.46.255-.917-.205-.353-5.062-.302-5.768.185-2.568.485-5.127.79-7.683.718-6.029 1.552-12.057 1.894-18.126"/><path fill="#6A79A8" d="M145.6 116.999c1.419 7.59.47 15.23.381 22.881-.044 3.79.04 7.579.173 11.366.063 1.802.112 3.603.249 5.401.142 1.867.06 3.721.152 5.59.167 3.374.561 6.956-.069 10.305-.048.254-.288 1.233-.36 1.254-.18.052-.963-.756-1.19-1.045-.875-1.118-1.352-2.519-1.846-3.83-2.591-6.87-5.07-13.83-7.256-20.838-1.026-3.291-1.855-6.637-2.871-9.93-.51-1.652-1.262-4.355-3.227-4.836-1.97-.481-3.337 1.212-4.115 2.735-1.441 2.821-2.875 5.652-4.176 8.54-3.053 6.777-5.48 13.794-8.152 20.72-.61 1.584-1.25 3.154-1.908 4.719-.278.662-.555 1.324-.862 1.973-.41.867-.944 2.266-1.71 2.866-.467.368-.538.562-.967-.007-.1-.133-.168-.363-.224-.525-.24-.694-.28-1.442-.308-2.168-.077-2.065.165-4.142.371-6.194.832-8.247 2.146-16.41 2.648-24.692.529-8.707 1.267-17.4 2.013-26.091.032-.38-1.19-.136-1.217.19-.666 7.759-1.327 15.518-1.837 23.288-.261 3.976-.48 7.947-.919 11.91-.451 4.063-1.038 8.11-1.524 12.169-.422 3.521-1.207 7.469-.664 11.008.115.75.367 1.874 1.2 2.164.798.278 1.71-.238 2.26-.769 1.13-1.09 1.833-2.725 2.453-4.128a129.46 129.46 0 002.07-5.024c1.44-3.674 2.767-7.39 4.174-11.076 2.518-6.59 5.284-13.11 8.635-19.333.275-.51.699-1.4 1.276-1.65.755-.328 1.422.336 1.836.859.78.985 1.197 2.247 1.569 3.428 1.111 3.527 1.987 7.122 3.097 10.651a359.56 359.56 0 007.328 20.955c.596 1.553 1.777 4.956 4.033 4.502 2.084-.418 1.814-3.711 1.864-5.26.066-2.072-.043-4.144-.149-6.213-.107-2.11-.028-4.217-.184-6.323-.32-4.329-.406-8.693-.443-13.033-.077-8.922 1.276-17.994-.377-26.835-.058-.313-1.293-.03-1.227.326"/><path fill="#F2F2F2" d="M153.421 124.768c-11.67 1.458-23.576 3.084-35.291 1.395-2.093-.302-4.212-.73-6.198-1.565-1.47-.618-3.12-1.572-3.703-3.355-.21-.643-2.398.132-2.219.682 1.094 3.346 5.322 4.288 7.991 4.854 3.33.705 6.706.91 10.08 1.112 7.072.422 14.206-.462 21.241-1.215 2.386-.256 4.771-.523 7.153-.82.355-.045 1.321-.171 1.482-.62.155-.435-.128-.519-.536-.468"/><path fill="#F2F2F2" d="M106.847 122.21a58.6 58.6 0 00-1.347-.616c-.772-.338-1.806-.614-2.29-1.41-.521-.857.074-2.545.221-3.462.226-1.408.472-2.813.738-4.213 1.425-7.51 3.153-15.028 5.275-22.35.44-1.521.904-3.035 1.395-4.538 2.577-7.883 9.407-29.154 23.277-22.27 10.395 5.16 15.419 25.798 17.831 45.941.806 6.733 1.727 10.681 2.053 16.707.017.322-16.745 1.758-17.951 1.845-6.884.499-13.808-.191-20.446-2.197-2.333-.705-4.617-1.584-6.86-2.565-.637-.278-1.266-.577-1.896-.872"/><path fill="#FFF" d="M108.694 121.305c-.43-.207-.86-.412-1.294-.607-.741-.334-1.734-.605-2.199-1.39-.5-.846.073-2.513.215-3.418a151.1 151.1 0 01.713-4.16c1.375-7.415 3.042-14.837 5.087-22.069.425-1.501.871-2.996 1.345-4.48.91-2.853 1.85-5.697 2.991-8.469.641-1.556 1.829-3.221 2.248-4.825.449-1.72.119-3.18 1.223-4.792.808-1.18 1.98-2.093 3.286-2.687 4.357-1.98 7.987-3.6 12.637-1.231 9.984 5.084 14.794 25.454 17.095 45.338.77 6.646 1.65 10.543 1.959 16.49.016.318-16.091 1.75-17.25 1.838-6.616.498-13.268-.178-19.645-2.152-2.241-.694-4.435-1.56-6.59-2.527-.611-.274-1.216-.568-1.821-.86"/><path fill="#6A79A8" d="M106.022 122.612c-1.64-.76-4.018-1.167-3.747-3.413.23-1.903.698-3.831 1.052-5.717a258.655 258.655 0 012.78-12.972c1.56-6.457 3.362-12.87 5.625-19.12 1.646-4.547 3.597-9.13 6.525-13.022 2.867-3.81 6.927-6.843 11.928-5.488 5.454 1.477 9.005 6.281 11.446 11.063 3.252 6.37 5.11 13.43 6.549 20.395 1.626 7.873 2.477 15.864 3.647 23.81.246 1.677.478 3.357.651 5.044.09.865-.01 1.986.238 2.809l.013.211c-.056.205.023.289.238.252.41 1.169.225-.203.174.053a1.022 1.022 0 00-.216.038c-1.594.428-3.43.42-5.066.584-4.006.4-8.017.77-12.03 1.087-8.125.641-16.343-.383-24.002-3.178-1.974-.72-3.902-1.549-5.805-2.436-.303-.14-1.418.323-.982.526 8.367 3.899 17.27 6.01 26.535 5.854 4.486-.076 8.985-.618 13.448-1.04 2.21-.209 4.422-.413 6.625-.69.541-.068 1.125-.106 1.65-.264 1.001-.301.66-.978.588-1.944-.292-3.942-.958-7.838-1.513-11.749-.621-4.382-1.106-8.777-1.836-13.144-1.326-7.936-3.074-15.956-6.23-23.394-2.2-5.185-5.347-10.833-10.617-13.444-4.435-2.198-9.344-1.628-13.166 1.492-3.914 3.194-6.389 7.963-8.335 12.519-2.35 5.5-4.103 11.29-5.67 17.05a242.488 242.488 0 00-3.364 14.083 218.805 218.805 0 00-1.375 7.083c-.163.93-.307 1.862-.51 2.785-.158.728-.424 1.671-.154 2.407.505 1.373 2.738 1.846 3.924 2.396.303.14 1.417-.324.982-.526"/><path fill="#FFF0A9" d="M138.546 66.262c-.969-.912-2.018.794-2.482 1.466-.918 1.326-2.175 2.282-3.43 3.28-1.831 1.455-3.838 2.69-6.003 3.576-.943.386-2.447 1.158-3.48 1.098-.54-.031-1.413-.876-1.845-1.323a10.284 10.284 0 01-2.275-3.62 9.487 9.487 0 01-.508-2.141c-.073-.634.143-1.545-.061-2.123-.595-1.677-1.447 1.622-1.46 2.127-.035 1.447.271 2.9.751 4.258a18.642 18.642 0 002.433 4.653c-.027-.037 2.314-1.026 2.469-1.089.098-.04.785 2.364.849 2.576 5.459-1.056 11.922-3.994 14.774-9.099.502-.9 1.19-2.77.268-3.639"/><path fill="#FFF" d="M119.93 64.548c1.065 2.215 2.627 4.21 5.048 4.428 1.745.157 3.484-.475 4.97-1.406 3.269-2.048 5.476-5.493 6.742-9.142 1.431-4.127 2.276-8.67 2.309-13.17.022-3.065-.333-6.11-1.137-8.99-1.271-4.554-4.374-11.322-10.016-11.268-6.098.06-10.953 9.226-10.844 20.474l.02 2.015c.06 6.237.631 10.577 1.587 13.593.337 1.064.76 2.295 1.322 3.466"/><path fill="#F9AB98" d="M145.354 46.67c4.777-5.962 4.127-14.317-.967-19.9-1.486-1.628-2.845-2.815-2.054-5.215.88-2.67 4.121-3.753 6.757-3.482 2.529.26 4.854 1.67 6.557 3.567 1.702 1.897 2.828 4.255 3.614 6.685a29.643 29.643 0 01.303 17.117c1.31-2.275 2.448-4.655 3.338-7.128 2.085-5.795 3.387-12.111 3.043-18.298-.287-5.137-1.463-11.034-4.882-15.036-5.42-6.348-16.132-6.62-22.084-.859-1.72 1.664-2.896 4.042-2.913 6.468-.017 2.439 1.387 5.25-.15 7.518-.684 1.007-1.844 1.608-3.03 1.863-2.458.53-4.772.721-7.172 1.668-2.469.974-4.888 2.25-6.858 4.058-1.647 1.51-4.1 4.485-3.836 6.908.468 4.288 7.28 6.76 10.852 6.662 4.389-.121 8.641-.501 11.998 2.9a14.01 14.01 0 012.619 3.7c.206.422 1.696 3.835 1.243 4.134a15.932 15.932 0 003.622-3.33"/><path fill="#6A79A8" d="M135.475 65.71c2.22-2.992 3.466-6.46 4.335-10.054.953-3.944 1.37-8.033 1.118-12.086-.349-5.62-2.009-12.401-6.34-16.374-3.608-3.308-8.507-2.72-11.771.7-4.187 4.386-5.583 11.196-5.758 17.044-.208 6.927.005 14.34 2.784 20.793.23.535 1.448.182 1.229-.329-2.337-5.426-2.707-11.317-2.768-17.156-.06-5.794.437-11.72 3.3-16.893 1.098-1.986 2.624-3.979 4.726-4.973 2.203-1.042 4.659-.555 6.564.887 4.088 3.094 5.867 9.109 6.542 13.947.586 4.204.352 8.516-.463 12.675-.792 4.048-2.039 8.12-4.523 11.47-.462.623.696.792 1.025.35m-12.28 4.019c1.34.77 2.924 1.21 4.684 1.269.374.012.922-.074 1.081-.34.146-.243-.13-.443-.499-.456-1.537-.051-2.817-.44-3.983-1.11-.542-.311-2.001.223-1.283.636"/><path fill="#6A79A8" d="M124 56.483c.299.505.946.946 1.785 1.216 1.169.377 2.616.431 3.728-.019.491-.198.888-.467 1.147-.769.126-.146.22-.3.276-.459a.92.92 0 00.054-.452c-.405.314-1.057.602-1.79.726-1.405.236-3.709.483-4.864-.17-.08-.045-.16-.096-.27-.117l-.066.044"/><path fill="#FFF" d="M139.62 85.661c-.477-.775-.712-1.823-.587-2.947.244-2.198 1.77-3.857 3.409-3.704 1.638.152 2.769 2.058 2.525 4.256-.122 1.1-.565 2.064-1.181 2.734l-4.165-.339"/><path fill="#6A79A8" d="M140.805 84.208a5.494 5.494 0 01-.442-3.828c.3-1.234 1.281-3.232 2.884-2.503.974.443 1.403 1.787 1.53 2.747.191 1.453-.188 2.943-1.092 4.104-.321.412.914.308 1.15.005 1.65-2.12 1.981-7.809-1.926-7.732-3.633.071-4.698 4.889-3.344 7.536.204.399 1.408-.001 1.24-.33"/><path fill="#6A79A8" d="M141.671 83.402c-.128 2.172-.025 4.385-.474 6.533-.499 2.382-1.87 4.263-4.05 5.746-.585.399.739.386 1.061.168 2.078-1.414 3.57-3.217 4.177-5.478.624-2.32.475-4.759.615-7.124.026-.451-1.307-.214-1.329.155M118 67.746c.021 2.771 1.293 5.25 3.183 7.194.275.283.77.93 1.182 1.039.428.114 1.199-.269 1.574-.38 2.138-.632 4.32-1.212 6.275-2.32 3.097-1.757 5.876-4.175 7.784-7.236.051-.083-.771-.056-.914.173-2.026 3.25-5.233 6.115-8.72 7.65-1.796.791-3.768 1.267-5.65 1.804l.473-.024c-2.503-1.878-4.234-4.98-4.258-8.153-.001-.132-.931-.002-.929.253"/><path fill="#6A79A8" d="M123.005 75.606l.714 2.285c.046.148.41.109.517.089 4.447-.858 8.744-2.522 12.241-5.231 1.571-1.217 3.203-2.71 4.106-4.435.677-1.292.704-3.222-1.251-3.314-.301-.014-1.433.484-.797.514 2.335.11.797 3.15.113 4.039-1.01 1.313-2.262 2.481-3.626 3.484-3.067 2.255-6.742 3.72-10.572 4.457l.518.089-.714-2.285c-.094-.3-1.341.013-1.25.308"/><path fill="#6A79A8" d="M123.145 75.271c-.826.39-1.737.58-2.564.972l.816.079c-2.081-2.876-4.302-7.377-2.548-10.868.295-.589-.92-.578-1.148-.123-1.872 3.73.353 8.407 2.592 11.502.17.234.594.184.815.08.827-.391 1.737-.581 2.564-.972.74-.35.079-.956-.527-.67m14.767 19.369c-4.711 3.203-10.621 3.17-15.477.274-1.982-1.182-4.207-3.053-4.127-5.446.037-1.133 1.076-1.762 1.316-2.824.22-.976-.158-1.866-.92-2.524-.442-.383-1.52.232-.967.71 1.632 1.412-.223 2.632-.617 4.017-.309 1.089.012 2.31.578 3.273 1.18 2.01 3.366 3.433 5.522 4.419 5.138 2.348 10.92 1.834 15.546-1.311.692-.47-.32-.95-.854-.588m-28.938-10.118c-2.188 1.687-4.744 3.075-7.358 3.675-2.45.563-4.986.11-7.31-.847a20.685 20.685 0 01-3.348-1.78c-.867-.56-2.192-1.235-2.842-2.102-.73-.974-.016-2.125-.032-3.249-.012-.79-.425-.992-1.05-1.207-.283-.097-1.327.411-.955.539 1.49.513.408 2.235.53 3.524.108 1.119 1.583 1.808 2.34 2.341 2.2 1.555 4.614 2.801 7.181 3.333 4.827.999 9.797-1.102 13.75-4.15.492-.379-.674-.256-.906-.077"/><path fill="#D1D1D1" d="M1.08 114.035c.045-.288 11.295 1.265 13.212 1.643 4.111.81 16.587.558 16.633.557.168-.003.004.927-.012 1.034-.15.982-.364 1.937-.576 2.882-.33 1.473-.686 2.93-1.05 4.379a375.114 375.114 0 01-1.434 5.525 610.308 610.308 0 01-3.667 13.09 554.158 554.158 0 01-2.053 6.865 424.93 424.93 0 01-2.083 6.61 268.128 268.128 0 01-2.02 6.007 136.08 136.08 0 01-1.872 5.053c-.51 1.288-1.041 2.561-1.632 3.747-.623 1.253-1.39 2.797-2.571 2.546-1.913-.408-2.13-3.746-2.648-5.977-.738-3.178-1.484-6.353-2.164-9.56-.464-2.186-.89-4.396-1.31-6.608-.423-2.23-.758-4.547-1.236-6.744-.008-.044-.017-.09-.024-.136-1.183-6.672-2.15-13.427-2.833-20.304-.28-2.82-.628-5.61-.723-8.477-.021-.702-.04-1.444.062-2.132"/><path fill="#E5E5E5" d="M1.069 114.035c.04-.288 9.835 1.266 11.504 1.644 3.58.81 13.437.612 13.427.688-.407 2.955-5.638 24.028-6.21 26.276a4103.038 4103.038 0 01-3.882 15.158c-1.19 4.604-2.42 9.18-3.628 13.77-.338 1.281-.711 2.504-1.645 2.425-.759-.063-1.433-1.125-1.67-2.326-.87-4.408-1.795-8.771-2.616-13.218a358.347 358.347 0 01-1.14-6.61c-.37-2.232-.66-4.549-1.077-6.746-.007-.045-.015-.09-.02-.136a306.121 306.121 0 01-2.468-20.312c-.244-2.821-.546-5.612-.63-8.48-.018-.703-.035-1.445.055-2.133"/><path fill="#D1D1D1" d="M11.053 120.28c2.399.116 4.85-.53 7.207-.914 1.704-.43 3.536-.576 5.271-.859 1.747-.284 3.489-.553 5.207-.987 2.521-.624 5.02-1.346 7.506-2.095 1.53-.46 3.056-.932 4.576-1.423.162-.052.27.888.286.996.137.985.203 1.966.268 2.935.102 1.51.175 3.012.238 4.51.08 1.914.141 3.822.192 5.725a602.833 602.833 0 01.194 13.64c.006 2.404-.002 4.802-.027 7.192a419.724 419.724 0 01-.127 6.957 264.677 264.677 0 01-.241 6.359 134.724 134.724 0 01-.37 5.399c-.127 1.386-.278 2.764-.513 4.077-.247 1.386-.55 3.094-1.775 3.201-1.985.174-3.158-2.965-4.306-4.953-1.636-2.831-3.278-5.657-4.867-8.533a310.215 310.215 0 01-3.182-5.953c-.802-1.53-1.421-3.408-2.435-4.8-.456-.628-1.111-1.077-1.754-1.491-.659-.423-1.443-.306-2.214-.34-.158-.006-.322-.015-.46-.09-.155-.085-.256-.24-.35-.389-1.952-3.085-4.071-6.104-5.677-9.404-1.355-2.784-2.367-5.779-2.637-8.879-.289-3.318-.717-6.651-1.063-9.973 0 .03.498.066 1.053.093"/><path fill="#E5E5E5" d="M14.42 119.222c1.93.105 3.842-.025 5.807-.191 2.968-.25 5.935-.85 8.815-1.596.58-.15 8.622-2.214 8.59-2.435.42 2.954.948 24.76.99 27.092.093 5.243.182 10.486.253 15.723.065 4.78.082 9.544.124 14.316.011 1.333-.032 2.62-1.04 2.843-.82.181-1.837-.618-2.432-1.69-2.184-3.935-4.414-7.809-6.559-11.796a324.062 324.062 0 01-3.102-5.953c-1.566-3.062-3.055-5.795-5.052-8.585-2.148-3.004-4.19-6.082-6.232-9.158-.58-.873-1.16-1.749-1.633-2.684-.46-.911-.844-2.04-1.715-2.65-.291-.204-.623-.339-.927-.522-.971-.587-1.592-1.637-1.896-2.732-.464-1.668-.368-3.46-.401-5.175-.02-1.069-.022-2.144.12-3.205.09-.675.1-1.56.56-2.108.656-.78 2.233.041 3.065.195.896.165 1.782.263 2.664.31"/><path fill="#6A79A8" d="M21.776 149.207c-1.677 5.674-3.405 11.343-5.412 16.907-.897 2.487-1.73 5.407-3.267 7.584-1.573 2.227-2.585-2.622-2.777-3.642-1.037-5.513-2.423-10.955-3.453-16.473-1.058-5.677-2.061-11.372-2.872-17.091a269.054 269.054 0 01-1.21-9.809c-.367-3.512-.451-7.012-.56-10.54-.009-.307-1.238-.087-1.225.333.103 3.36.165 6.7.507 10.045.336 3.28.736 6.552 1.193 9.816.892 6.363 2.012 12.7 3.21 19.011a298.89 298.89 0 001.952 9.363c.564 2.524.95 5.16 1.663 7.644.418 1.46 1.337 3.04 3.084 2.556 1.938-.537 2.758-3.332 3.436-4.968 2.808-6.772 4.872-13.892 6.949-20.92.104-.352-1.11-.185-1.218.184"/><path fill="#6A79A8" d="M27.025 116.496c4.152-1.017 8.254-2.27 12.318-3.6l-.573-.078c.132.084.186 1.148.2 1.266.126 1.087.188 2.181.252 3.273.115 1.934.192 3.87.258 5.806.129 3.75.204 7.502.248 11.255.087 7.432.068 14.872-.2 22.3-.138 3.793-.286 7.62-.801 11.384-.133.971-.26 4.205-1.735 3.899-1.151-.24-1.99-2.262-2.465-3.167-1.599-3.05-3.387-5.999-5.05-9.014-1.73-3.139-3.294-6.373-5.075-9.482-1.906-3.326-4.087-6.469-6.388-9.523-2.375-3.15-4.754-6.347-5.804-10.231-.159-.588-1.355-.264-1.195.325 1.154 4.27 3.868 7.717 6.457 11.185 2.737 3.665 5.227 7.495 7.349 11.561a380.846 380.846 0 007.003 12.804c.931 1.629 1.7 3.456 2.813 4.966.713.966 1.748 1.807 3.01 1.517 1.343-.31 1.73-1.762 1.972-2.961.439-2.163.615-4.383.773-6.581.362-5.003.48-10.026.547-15.041.133-9.942.073-19.915-.435-29.846a105.757 105.757 0 00-.243-3.788c-.051-.582.015-1.99-.414-2.496-.443-.521-1.356-.012-1.858.149-3.7 1.181-7.424 2.314-11.196 3.238-.749.183-.514 1.062.232.88"/><path fill="#6A79A8" d="M30.011 122.524c1.158 2.515 3.188 4.428 5.764 5.453.348.139 1.6-.397 1.115-.59a10.15 10.15 0 01-5.503-5.23c-.183-.398-1.523.048-1.376.367"/><path fill="#F2F2F2" d="M19.899 61.623c-.156.02-.31.04-.466.063-2.154.31-4.623.824-6.264 2.333a8.562 8.562 0 00-.747.8c-.242.288-.476.582-.702.882-1.926 2.554-2.986 5.345-3.81 8.387-.882 3.255-1.746 6.474-2.468 9.772-1.286 5.869-2.191 11.813-2.928 17.772a451.1 451.1 0 00-1.002 8.958c-.237 2.287-.93 5.077-.155 7.33.795 2.312 9.59 2.575 11.46 2.79 9.966 1.142 19.716-1.252 29.183-4.251-.261-3.115-.514-6.23-.794-9.344C40.12 95.052 39.2 82.19 34.812 70.779c-1.324-3.443-3.293-7.895-6.994-9.397-.88-.357-1.839-.432-2.78-.354-.893.075-1.735.29-2.632.356a44.74 44.74 0 00-2.507.239"/><path fill="#FFF" d="M19.211 60.322c-3.583.77-7.033 2.875-9.171 5.77-2.116 2.864-3.138 6.369-3.97 9.825-2.375 9.853-4.495 20.687-4.782 30.818-.096 3.382-.256 6.768-.288 10.151-.029 3.066 18.26 3.396 22.732 2.957 5.44-.534 15.268-3.68 15.268-3.68-.756-9.005-1.175-18.036-2.162-27.023-.872-7.931-1.65-17.176-5.772-24.23-2.574-4.402-7.321-5.563-11.855-4.588"/><path fill="#FFF" d="M34.923 46.805c.723-11.638-3.752-21.395-9.995-21.792-6.243-.398-11.89 8.715-12.612 20.353l-.13 2.086c-.4 6.453-.137 10.984.617 14.174 1.02 4.318 4.478 6.825 8.285 8.562 1.554.709 3.328 1.055 4.978.621 1.476-.388 2.746-1.37 3.741-2.54 4.127-4.852 4.608-13.28 4.987-19.378l.13-2.086"/><path fill="#F2F2F2" d="M11.012 65.672a.277.277 0 00.02.21c.095.197.307.346.45.519 2.352 2.848 5.907 4.912 9.97 5.48 2.4.336 4.663-.074 6.722-.798 1.03-.363 2.01-.795 2.984-1.233.533-.24 1.116-.405 1.589-.73.24-.166.293-.248.226-.528-.048-.202-.116-.488-.325-.625-.242-.16-.765.01-.994.104-3.047 1.258-6.416 3.761-10.342 2.602-3.282-.97-6.318-3.113-8.492-5.359-.412-.425-1.131-.403-1.481-.026-.12.128-.283.24-.327.384"/><path fill="#6A79A8" d="M11.152 65.87c2.8 2.454 6.45 4.352 10.062 4.974 4.045.696 7.556-1.086 11.31-2.365.764-.26.55-1.16-.228-.894-3.513 1.197-6.844 2.964-10.637 2.306-3.43-.595-6.866-2.454-9.522-4.78-.423-.371-1.542.271-.985.76"/><path fill="#BBDFF5" d="M37.65 33.815c1.327-.995 2.383-2.355 3.264-3.8.56-.92 1.055-1.885 1.512-2.868.095-.204.675-1.234.559-1.38-.06-.074-.384-.062-.473-.068a3.65 3.65 0 00-.45 0c-.3.019-.598.069-.894.129a36.66 36.66 0 00-1.128.252c-.698.166-1.395.345-2.102.467l2.644-4.281-1.881.24.654-2.103-4.265 2.21.545-3.269-3.146 1.624-1.85-3.212-1.333 1.505-3.17-4.01-1.105 2.398c-.83-1.216-1.658-2.433-2.487-3.649-1.175.578-1.395 2.752-2.455 3.122-1.005.35-3.976-2.349-4.873-2.94l1.89 4.074-4.31-2.266.805 1.89-3.378-1.26 2.428 3.081L8 17.547c1.743 2.165 2.15 5.094 2.443 7.958.165 1.606.765 3.25.747 4.823-.039 1.792-.483 3.519-.448 5.291.039 1.991.238 4.05.267 6.074.007.51.086 1.14.515 1.3.508.192 3.834-4.19 4.594-4.73.68-.483 4.416-2.306 4.531-3.057l-.337 1.695c.631-1.061 2.018-1.535 3.125-1.067 1.086.46 1.354 1.6 1.917 2.496 1.186-.675 2.365-1.247 3.706-1.544 3.007-.664 6.008-1.038 8.59-2.971"/><path fill="#6A79A8" d="M13.492 61.142c-1.595-5.256-1.054-11.137-.702-16.525.375-5.75 1.848-12.068 5.74-16.537 1.417-1.628 3.332-3.089 5.581-3.194 2.093-.099 3.976 1.037 5.346 2.528 3.825 4.163 4.914 10.551 4.937 15.983.013 3.06-.258 6.165-.542 9.21-.347 3.733-.93 7.501-2.466 10.954-.046.104-.05.249.027.342 1.114 1.337 1.708 3.042 2.327 4.65a65.42 65.42 0 011.944 5.909c1.146 4.11 1.933 8.31 2.534 12.53 1.239 8.709 1.833 17.515 2.568 26.276l.492-.584c-7.659 2.414-15.56 4.472-23.653 4.416-2.518-.017-5.035-.293-7.534-.587-2.24-.263-4.556-.547-6.693-1.29-.646-.226-1.596-.525-1.956-1.165-.347-.616-.212-1.56-.175-2.229.131-2.373.56-4.737.968-7.076 1.034-5.93 1.735-11.906 2.795-17.832.787-4.4 1.796-8.743 2.95-13.06 1.073-4.02 2.225-7.849 4.93-11.116.488-.591-.66-.805-1.02-.37-2.267 2.739-3.593 5.905-4.528 9.3-1.111 4.038-2.15 8.096-2.97 12.204-1.329 6.652-2.043 13.395-3.23 20.07-.448 2.52-.918 5.059-1.101 7.614-.111 1.542-.235 3.011 1.257 3.877 1.832 1.063 4.185 1.377 6.248 1.687 2.058.309 4.14.528 6.214.707 9.456.815 18.782-1.485 27.726-4.304.28-.088.518-.27.492-.584-.951-11.342-1.533-22.875-3.93-34.03-.593-2.763-1.314-5.5-2.214-8.18-.757-2.252-1.514-4.954-2.935-6.89-.062-.086-.232-.223-.258-.312-.127-.42.04.058.046-.183.014-.501.541-1.372.702-1.862.373-1.14.666-2.305.904-3.479.497-2.459.748-4.96.931-7.458.338-4.608.648-9.206-.24-13.778-.734-3.772-2.175-7.81-5.051-10.514-2.177-2.045-5.142-2.85-7.998-1.797-3.278 1.21-5.56 4.253-7.086 7.244-2.36 4.625-3.104 9.688-3.423 14.802-.304 4.872-.606 10.213.834 14.956.17.564 1.382.238 1.212-.323"/><path fill="#6A79A8" d="M31.682 56.362c-.255.476-.712 1.013-1.568.955-.854-.058-1.439-.616-1.743-1.11-.253-.41-1.585-.15-1.341.245.526.855 1.542 1.55 2.979 1.548 1.413-.003 2.488-.655 2.956-1.53.266-.497-1.077-.495-1.283-.108"/><path fill="#BBDFF5" d="M33.317 106l.056-.16c.036-.105.097-.262.155-.466.128-.4.271-1.012.333-1.776.033-.382.032-.804.002-1.251a6.6 6.6 0 00-.27-1.388 4.671 4.671 0 00-.66-1.343c-.081-.1-.153-.203-.238-.3l-.308-.368-.303-.337-.331-.356c-.453-.483-.942-1-1.45-1.598a10.07 10.07 0 01-1.417-2.16 7.914 7.914 0 01-.737-2.842l-.016-.189-.007-.196-.01-.312c.003-.242.006-.525.023-.748.022-.474.075-.931.13-1.388.11-.905.275-1.778.408-2.611.065-.417.125-.826.161-1.216.039-.39.071-.768.062-1.11a4.408 4.408 0 00-.105-.93 2.477 2.477 0 00-.284-.692c-.236-.399-.657-.764-1.263-1.072-.076-.036-.145-.08-.224-.117l-.243-.107c-.156-.077-.337-.134-.508-.2l-.13-.049c-.037-.012.032.01.017.005l-.02-.006-.04-.013-.079-.025-.159-.05a2.286 2.286 0 00-.144-.042l-.243-.066-.278-.065a30.723 30.723 0 00-2.437-.411c-.434-.06-.88-.123-1.332-.196a21.401 21.401 0 01-1.383-.286l-.35-.09-.095-.025-.039-.012-.076-.024-.153-.048-.305-.095-.156-.05-.181-.067c-.24-.09-.488-.177-.711-.278l-.65-.304a13.509 13.509 0 01-4.23-3.353 14.601 14.601 0 01-2.44-4.086l-.1-.255-.049-.126-.012-.032-.021-.052-.005-.015-.019-.06-.148-.476-.142-.568c-.044-.184-.062-.358-.09-.533a8.223 8.223 0 01-.025-1.975 8.998 8.998 0 01.364-1.645 9.33 9.33 0 01.538-1.283c.375-.74.756-1.255 1.013-1.6.127-.175.241-.296.31-.383l.108-.128-.235.616c-.15.4-.34.999-.507 1.755-.084.379-.145.8-.189 1.252-.026.455-.041.939.01 1.443.057.503.156 1.023.335 1.54.05.125.091.262.143.382l.157.353.227.44.228.373c.159.273.343.537.521.809.196.26.38.535.6.789.415.523.882 1.026 1.397 1.493 1.015.95 2.24 1.734 3.577 2.284l.51.186c.168.056.323.095.483.15l.12.037c.041.013.1.026.149.038l.31.076.156.039.078.019.038.01c.019.004-.085-.024-.033-.01l.017.003.276.052c.744.13 1.555.21 2.423.3.87.092 1.803.175 2.783.389l.37.083.4.104c.073.018.124.034.176.05l.16.047.196.06.184.066c.246.09.49.166.738.28l.37.16c.123.056.249.123.371.188.492.254.986.587 1.453.992a5.906 5.906 0 011.924 3.311c.12.614.152 1.204.141 1.757-.026 1.106-.221 2.07-.416 2.963l-.57 2.5c-.079.388-.155.77-.202 1.133-.032.194-.039.33-.064.502l-.022.311-.005.078-.003.038c0-.01-.002.05-.001-.018v.015l-.002.12a5.308 5.308 0 00.256 1.843c.373 1.19 1.223 2.335 1.987 3.499l.283.44.281.454.242.422c.098.162.173.337.256.5a6.06 6.06 0 01.514 1.969 7.267 7.267 0 01-.399 3.076 7.235 7.235 0 01-.86 1.711c-.115.186-.225.307-.292.396l-.104.132"/><path fill="#BBDFF5" d="M33.933 64.56l.042.367c.013.12.03.264.023.443-.003.176.004.393-.028.618a5.63 5.63 0 01-.117.76c-.047.282-.145.569-.24.887a8.902 8.902 0 01-1.008 2.002 9.682 9.682 0 01-3.125 2.929l-.365.198-.092.05-.023.012-.012.006-.05.02-.04.02-.319.15c-.054.026-.1.05-.176.079l-.42.163c-1.069.397-2.21.622-3.354.7-1.143.08-2.27.02-3.344-.095a37.268 37.268 0 01-1.573-.21 24.358 24.358 0 01-1.592-.295c-1.061-.23-2.131-.56-3.13-1.027a10.356 10.356 0 01-1.753-1.03l-.313-.244-.077-.06-.01-.008c-.078-.056-.026-.02-.045-.034l-.016-.014-.03-.028-.123-.11a6.559 6.559 0 01-.261-.247l-.292-.293c-.09-.096-.167-.19-.249-.282-.165-.184-.306-.38-.445-.57a8.289 8.289 0 01-.673-1.162 7.39 7.39 0 01-.643-2.175 6.404 6.404 0 01-.008-1.69c.015-.114.025-.222.044-.322l.061-.282.054-.238.062-.196c.075-.232.12-.352.12-.352l.102.355c.03.114.072.254.127.415.053.16.111.342.193.54a8.59 8.59 0 001.764 2.814c.225.242.474.473.742.693.143.102.269.22.418.317.072.049.146.105.216.149l.203.12c.053.035.167.096.259.151l.143.084.037.022.018.01c-.014-.01.044.03-.029-.021l.008.003.063.03c.167.083.336.165.512.24.354.147.72.285 1.111.4.78.234 1.636.404 2.554.541.456.07.936.13 1.413.19l1.47.17c.962.106 1.886.184 2.76.183a12.11 12.11 0 002.732-.292c.038-.004.101-.025.157-.04l.17-.05.17-.05.042-.011-.03.012.008-.002.017-.006.066-.022.267-.085c.176-.065.352-.133.526-.204.17-.082.347-.148.512-.237.67-.337 1.285-.74 1.821-1.164.54-.423.999-.87 1.388-1.295.376-.432.689-.84.921-1.2.23-.356.408-.649.514-.871l.175-.33"/><path fill="#6A79A8" d="M64.124 79.31c-.537.996-.486 1.888-.015 2.898.578 1.24 1.102 2.105-.222 3.113-2.787 2.122-6.11 3.733-9.408 4.913-6.574 2.352-13.888 2.897-20.624.875-3.986-1.197-7.605-3.298-10.67-6.068-.333-.3-1.472.16-1.118.48 11.555 10.441 28.995 9.177 41.455.975 1.048-.69 2.664-1.538 2.46-3.008-.214-1.545-1.619-2.469-.726-4.125.282-.523-.93-.427-1.132-.053"/></g></symbol><symbol id="toggle" viewBox="0 0 16 20"><path fill="#FFF" fill-rule="evenodd" d="M8.507 2.946l8.444 5.536c.027-.382-.036-1.995-2.545-4.068L9.42.634A1.685 1.685 0 008.517.34h-.034a1.684 1.684 0 00-.903.293l-4.986 3.78C.085 6.487.022 8.1.049 8.482l8.444-5.536h.014M8.196 18.876c3.53 0 6.566-1.963 7.937-4.785.12-.31.173-.575.195-.761-.029-1.52-.905-2.28-1.253-2.523l-.142-.072c-.01 3.468-3.028 6.287-6.737 6.287h-.019c-3.709 0-6.727-2.819-6.737-6.287l-.14.072C.95 11.05.075 11.81.045 13.33c.023.186.075.452.195.761 1.372 2.822 4.408 4.785 7.937 4.785h.02"/></symbol></svg>