<svg xmlns="http://www.w3.org/2000/svg" width="17" height="9" viewBox="0 0 16 20">
    <path fill="#FFF" fill-rule="evenodd" d="M8.507 2.946l8.444 5.536c.027-.382-.036-1.995-2.545-4.068L9.42.634A1.685 1.685 0 0 0 8.517.34h-.034a1.684 1.684 0 0 0-.903.293l-4.986 3.78C.085 6.487.022 8.1.049 8.482l8.444-5.536h.014"/>
    <path transform="translate(0,10)" fill="#FFF" fill-rule="evenodd" d="M8.196 8.876c3.53 0 6.566-1.963 7.937-4.785.12-.31.173-.575.195-.761-.029-1.52-.905-2.28-1.253-2.523l-.142-.072c-.01 3.468-3.028 6.287-6.737 6.287h-.019C4.468 7.022 1.45 4.203 1.44.735L1.3.807C.95 1.05.075 1.81.045 3.33c.023.186.075.452.195.761 1.372 2.822 4.408 4.785 7.937 4.785h.02"/>
</svg>
